<?xml version="1.0" standalone="no"?>
<!DOCTYPE svg PUBLIC "-//W3C//DTD SVG 20010904//EN"
 "http://www.w3.org/TR/2001/REC-SVG-20010904/DTD/svg10.dtd">
<svg version="1.0" xmlns="http://www.w3.org/2000/svg"
 width="754.000000pt" height="754.000000pt" viewBox="0 0 754.000000 754.000000"
 preserveAspectRatio="xMidYMid meet">
<metadata>
Created by potrace 1.14, written by Peter Selinger 2001-2017
</metadata>
<g transform="translate(0.000000,754.000000) scale(0.100000,-0.100000)"
fill="#000000" stroke="none">
<path d="M4055 7160 c-143 -23 -322 -87 -459 -165 -307 -175 -544 -506 -646
-901 -62 -240 -72 -345 -77 -836 l-5 -448 -329 0 -329 0 0 -125 0 -125 330 0
330 0 0 -1737 c0 -1114 -4 -1751 -10 -1774 -13 -48 -56 -86 -110 -98 -25 -6
-156 -11 -292 -11 l-248 0 0 -103 0 -104 881 -6 c484 -4 1159 -4 1500 0 l619
6 0 103 0 102 -227 4 c-188 2 -233 6 -258 19 -39 22 -60 46 -74 88 -15 45 -16
1825 -1 1991 71 786 480 1486 937 1604 186 48 393 -12 422 -122 22 -81 -12
-143 -128 -231 -146 -111 -192 -186 -199 -322 -5 -97 6 -142 49 -205 62 -91
171 -143 315 -151 166 -10 277 43 381 182 113 150 148 260 140 440 -8 191 -58
320 -174 445 -129 140 -297 215 -524 235 -320 27 -656 -158 -917 -505 -75 -99
-188 -294 -237 -408 -28 -67 -44 -92 -57 -92 -17 0 -18 24 -18 450 l0 450
-560 0 -560 0 0 533 c0 629 11 787 71 1022 69 271 243 486 454 561 72 25 259
31 347 10 89 -21 197 -76 236 -120 68 -77 69 -198 3 -282 -11 -14 -48 -47 -82
-72 -71 -53 -118 -116 -149 -200 -18 -48 -21 -73 -18 -157 3 -84 8 -109 31
-156 35 -73 82 -120 154 -156 54 -26 66 -28 178 -28 109 0 125 2 178 27 104
49 186 158 222 294 20 78 20 287 -1 394 -32 171 -108 314 -228 427 -90 87
-145 125 -249 173 -131 62 -228 82 -402 86 -82 1 -177 -1 -210 -6z m-146
-2625 c19 -11 43 -33 55 -48 l21 -28 3 -1696 c2 -1638 2 -1696 -17 -1737 -25
-57 -69 -77 -180 -84 -153 -8 -230 22 -260 101 -8 20 -11 565 -11 1774 l0
1745 178 -3 c155 -4 181 -7 211 -24z"/>
</g>
</svg>
