<?xml version="1.0" standalone="no"?>
<!DOCTYPE svg PUBLIC "-//W3C//DTD SVG 20010904//EN"
 "http://www.w3.org/TR/2001/REC-SVG-20010904/DTD/svg10.dtd">
<svg version="1.0" xmlns="http://www.w3.org/2000/svg"
 width="754.000000pt" height="754.000000pt" viewBox="0 0 754.000000 754.000000"
 preserveAspectRatio="xMidYMid meet">
<metadata>
Created by potrace 1.14, written by Peter Selinger 2001-2017
</metadata>
<g transform="translate(0.000000,754.000000) scale(0.100000,-0.100000)"
fill="#000000" stroke="none">
<path d="M4075 7160 c-143 -19 -316 -77 -455 -152 -319 -172 -566 -509 -670
-914 -62 -240 -72 -345 -77 -836 l-5 -448 -329 0 -329 0 0 -125 0 -125 330 0
330 0 0 -1747 c0 -1680 -1 -1750 -19 -1789 -34 -74 -54 -79 -368 -82 l-273 -3
0 -103 0 -103 880 -6 c483 -4 1158 -4 1500 0 l620 6 0 103 0 103 -227 3 c-254
3 -281 9 -318 71 -19 31 -20 60 -23 952 -2 630 0 964 8 1060 65 790 475 1500
937 1619 186 48 393 -12 422 -122 22 -81 -12 -143 -128 -231 -146 -111 -192
-186 -199 -322 -6 -129 29 -211 120 -278 78 -58 140 -75 268 -76 105 0 120 2
173 27 81 38 127 77 186 157 95 128 141 256 141 394 0 356 -214 625 -555 700
-394 86 -760 -80 -1063 -483 -75 -99 -188 -294 -237 -408 -28 -67 -44 -92 -57
-92 -17 0 -18 24 -18 450 l0 450 -560 0 -560 0 0 533 c0 629 11 787 71 1022
70 277 252 497 468 566 85 27 247 30 339 5 188 -50 281 -135 282 -259 0 -87
-33 -142 -131 -215 -71 -53 -118 -116 -149 -200 -18 -48 -21 -73 -18 -157 3
-84 8 -109 31 -156 35 -73 82 -120 154 -156 54 -26 66 -28 178 -28 109 0 125
2 178 27 105 50 187 159 223 299 13 49 15 96 11 213 -5 180 -25 267 -93 405
-38 77 -62 110 -128 176 -122 123 -230 190 -381 238 -140 44 -319 58 -480 37z
m-166 -2625 c19 -11 43 -33 55 -48 l21 -28 3 -1702 c2 -1647 2 -1703 -17
-1737 -33 -62 -68 -75 -211 -75 -152 0 -192 14 -221 79 -18 39 -19 109 -19
1790 l0 1748 178 -3 c155 -4 181 -7 211 -24z"/>
</g>
</svg>
