<svg width="422" height="513" viewBox="0 0 422 513" fill="none" xmlns="http://www.w3.org/2000/svg">
<path d="M230.737 131.977C230.737 137.24 229.491 142.088 226.998 146.52C224.781 150.675 221.596 154.277 217.441 157.324C213.285 160.094 208.438 162.31 202.897 163.972C197.357 165.357 191.54 166.05 185.446 166.05C174.365 166.05 162.592 163.834 150.126 159.401C149.018 163.557 148.464 168.681 148.464 174.776C148.464 182.809 149.434 189.596 151.373 195.136C163.285 190.427 174.919 188.072 186.277 188.072C196.803 188.072 205.114 190.15 211.208 194.305C217.302 198.46 220.349 204.832 220.349 213.419C220.349 221.729 217.025 228.239 210.377 232.948C203.728 237.381 195.695 239.597 186.277 239.597C168.548 239.597 154.42 232.671 143.894 218.821C124.503 234.887 114.807 256.771 114.807 284.473C114.807 295.276 116.469 305.387 119.793 314.806C123.395 323.947 128.658 331.842 135.583 338.49C142.786 345.139 151.511 350.402 161.761 354.28C172.01 358.158 184.061 360.097 197.911 360.097C214.532 360.097 228.521 356.358 239.879 348.878C251.513 341.122 260.932 330.873 268.134 318.13C275.613 305.387 281.015 290.983 284.339 274.916C287.94 258.572 290.157 241.674 290.988 224.222C280.461 219.79 271.597 217.574 264.394 217.574C259.962 217.574 255.668 218.544 251.513 220.483C247.635 222.422 245.696 225.469 245.696 229.624C248.743 229.624 251.929 231.425 255.253 235.026C258.854 238.627 260.655 243.198 260.655 248.738C260.655 254.278 259.131 258.434 256.084 261.204C253.037 263.974 249.297 265.359 244.865 265.359C239.602 265.359 234.892 263.281 230.737 259.126C226.582 254.971 224.504 249.569 224.504 242.921C224.504 237.104 225.751 231.702 228.244 226.716C231.014 221.452 234.477 216.882 238.632 213.003C243.064 209.125 247.912 206.078 253.175 203.862C258.716 201.646 264.394 200.538 270.212 200.538C281.846 200.538 296.389 205.94 313.841 216.743C331.293 227.547 347.221 232.948 361.626 232.948C373.26 232.948 382.956 230.04 390.712 224.222C398.746 218.405 402.762 209.125 402.762 196.383C402.762 185.579 399.992 176.438 394.452 168.958C389.189 161.202 381.432 157.324 371.183 157.324C363.15 157.324 356.64 159.678 351.653 164.388C346.667 169.097 344.174 175.191 344.174 182.67C344.174 185.441 344.313 187.241 344.59 188.072C349.022 184.471 354.839 182.67 362.041 182.67C372.291 182.67 377.416 187.518 377.416 197.214C377.416 201.923 375.754 206.078 372.429 209.679C369.105 213.28 364.258 215.081 357.886 215.081C350.13 215.081 343.066 212.449 336.695 207.186C330.323 201.923 327.138 194.305 327.138 184.333C327.138 171.867 331.293 161.756 339.603 154C348.191 146.243 358.302 142.365 369.936 142.365C376.862 142.365 383.51 143.889 389.881 146.936C396.253 149.706 401.654 153.584 406.087 158.57C410.796 163.557 414.535 169.374 417.306 176.022C420.076 182.393 421.461 189.18 421.461 196.383C421.461 214.111 416.059 227.824 405.255 237.519C394.452 247.215 381.155 252.062 365.366 252.062C351.792 252.062 333.232 245.829 309.686 233.364L306.362 231.702C306.085 253.309 303.592 273.115 298.882 291.121C294.45 309.127 287.663 324.64 278.522 337.659C269.658 350.402 258.439 360.374 244.865 367.577C231.291 374.779 215.363 378.38 197.08 378.38C180.736 378.38 166.055 376.026 153.035 371.316C140.292 366.607 129.489 360.236 120.624 352.203C111.76 343.892 104.973 334.197 100.264 323.116C95.5548 312.036 93.2002 300.124 93.2002 287.381C93.2002 270.761 96.8014 254.971 104.004 240.012C111.483 225.053 121.871 213.003 135.168 203.862C131.29 194.721 129.35 185.025 129.35 174.776C129.35 167.019 130.458 159.54 132.675 152.338C120.209 147.905 108.574 145.689 97.7709 145.689C86.1364 145.689 75.6099 147.074 66.1914 149.844C56.773 152.338 48.6011 156.216 41.6758 161.479C34.7504 166.742 29.3487 173.391 25.4705 181.424C21.8693 189.18 20.0687 198.183 20.0687 208.433C20.0687 215.635 21.4538 221.729 24.2239 226.716C27.2711 231.702 31.7033 234.195 37.5206 234.195H38.3516C35.3045 230.317 33.7809 225.885 33.7809 220.898C33.7809 215.081 35.5815 210.233 39.1826 206.355C42.7838 202.2 47.216 200.122 52.4793 200.122C57.7425 200.122 62.1747 202.2 65.7759 206.355C69.3771 210.233 71.1777 215.081 71.1777 220.898C71.1777 229.209 67.8535 236.273 61.2052 242.09C54.8339 247.63 47.3545 250.4 38.7671 250.4C27.9636 250.4 18.8222 246.661 11.3428 239.181C4.14048 231.702 0.539307 220.344 0.539307 205.109C0.539307 194.028 3.17093 183.779 8.43418 174.36C13.6974 164.942 20.7613 156.908 29.6257 150.26C38.4901 143.335 48.6011 137.933 59.9586 134.055C71.5932 130.176 83.7818 128.237 96.5244 128.237C108.713 128.237 123.118 131.285 139.738 137.379C152.758 116.603 170.902 106.215 194.171 106.215C205.529 106.215 214.393 108.708 220.765 113.694C227.413 118.68 230.737 124.775 230.737 131.977ZM213.701 132.808C213.701 124.775 208.022 120.758 196.665 120.758C179.213 120.758 165.916 128.376 156.775 143.612C168.132 147.213 177.689 149.013 185.446 149.013C204.282 149.013 213.701 143.612 213.701 132.808ZM184.199 204.278C175.335 204.278 166.886 206.078 158.852 209.679C165.224 217.99 174.365 222.145 186.277 222.145C189.878 222.145 193.756 221.314 197.911 219.652C202.343 217.713 204.559 215.358 204.559 212.588C203.451 207.048 196.665 204.278 184.199 204.278Z" fill="white" fill-opacity="0.4"/>
<path d="M116.246 142.795C116.21 142.795 115.549 143.437 114.264 144.723C112.978 145.973 111.264 147.901 109.122 150.508C106.979 153.079 104.497 156.346 101.676 160.31C98.891 164.238 95.9629 168.88 92.8919 174.237L90.8029 177.879C91.9813 177.593 93.1775 177.326 94.3917 177.076C95.6058 176.826 96.8377 176.594 98.0876 176.379L100.498 175.897C101.641 173.826 102.676 172.13 103.605 170.809C104.569 169.487 105.444 168.452 106.229 167.702C107.051 166.916 107.8 166.381 108.479 166.095C109.157 165.809 109.765 165.666 110.3 165.666C110.979 165.666 111.639 165.899 112.282 166.363C112.925 166.827 113.246 167.666 113.246 168.88C113.246 169.844 113.014 170.773 112.55 171.666C112.086 172.558 111.425 173.398 110.568 174.183C109.711 174.969 108.693 175.665 107.515 176.272C106.336 176.879 105.033 177.361 103.605 177.718C102.926 179.111 102.23 180.575 101.516 182.111C100.801 183.61 100.052 185.128 99.266 186.664C98.4804 188.199 97.6769 189.717 96.8556 191.216C96.0343 192.681 95.1773 194.073 94.2845 195.394L90.4815 191.806C90.8029 191.413 91.2849 190.788 91.9277 189.931C92.6062 189.074 93.3204 188.11 94.0703 187.038C94.8559 185.967 95.6236 184.842 96.3735 183.664C97.1234 182.45 97.7662 181.307 98.3018 180.236L99.0517 178.629C97.4091 178.986 95.7486 179.361 94.0703 179.754C92.4276 180.111 90.7315 180.522 88.9817 180.986C86.2321 185.699 83.536 189.984 80.8935 193.841C78.2868 197.662 75.5014 200.947 72.5376 203.697C69.5737 206.411 66.3242 208.5 62.7889 209.964C59.2537 211.464 55.1829 212.214 50.5764 212.214C47.5768 212.214 44.5415 211.785 41.4705 210.928C38.4352 210.107 35.6856 208.893 33.2216 207.286C30.7934 205.679 28.7937 203.715 27.2225 201.394C25.687 199.072 24.9192 196.43 24.9192 193.466C24.9192 191.145 25.3835 189.092 26.3119 187.306C27.2046 185.485 28.4366 183.967 30.0078 182.753C31.579 181.504 33.4002 180.575 35.4713 179.968C37.5782 179.325 39.7922 179.004 42.1133 179.004C44.0416 179.004 45.9699 179.236 47.8982 179.7C49.8622 180.164 51.7548 180.825 53.5759 181.682C55.3971 182.539 57.1112 183.593 58.7181 184.842C60.3607 186.056 61.8248 187.431 63.1103 188.967L61.0749 190.52C60.0036 189.449 58.8074 188.503 57.4861 187.681C56.1649 186.824 54.7543 186.11 53.2546 185.539C51.7548 184.932 50.2193 184.485 48.6481 184.2C47.0769 183.878 45.5235 183.718 43.988 183.718C42.3097 183.718 40.667 183.932 39.0601 184.36C37.4532 184.789 36.0248 185.485 34.775 186.449C33.5252 187.378 32.5075 188.592 31.7219 190.092C30.9363 191.556 30.5435 193.359 30.5435 195.502C30.5435 197.43 31.0255 199.233 31.9897 200.912C32.9538 202.59 34.2572 204.054 35.8998 205.304C37.5782 206.518 39.5243 207.482 41.7383 208.196C43.988 208.91 46.3805 209.267 48.9159 209.267C52.5225 209.267 55.7721 208.589 58.6645 207.232C61.557 205.911 64.2173 204.09 66.6455 201.769C69.1095 199.447 71.4127 196.734 73.5553 193.627C75.7336 190.484 77.894 187.146 80.0365 183.61C79.0367 183.932 78.0189 184.271 76.9834 184.628C75.9478 184.985 74.9122 185.36 73.8767 185.753L72.859 183.128C74.5016 182.593 76.0728 182.093 77.5726 181.629C79.0724 181.164 80.5722 180.7 82.072 180.236C84.1074 176.843 86.2142 173.38 88.3925 169.844C90.6065 166.274 93.0168 162.792 95.6236 159.399C98.2304 155.971 101.087 152.704 104.194 149.597C107.336 146.491 110.836 143.67 114.692 141.134L116.246 142.795ZM80.0901 171.933C76.8048 173.433 73.5374 174.522 70.2879 175.201C67.0383 175.879 63.9852 176.219 61.1285 176.219C57.8075 176.219 54.7722 175.772 52.0226 174.879C49.273 173.987 46.8983 172.737 44.8986 171.13C42.8989 169.523 41.3455 167.595 40.2385 165.345C39.1315 163.095 38.578 160.614 38.578 157.9C38.578 154.507 39.1494 151.49 40.2921 148.847C41.4705 146.205 43.0596 143.884 45.0593 141.884C47.059 139.849 49.4158 138.135 52.1297 136.742C54.8436 135.349 57.7539 134.207 60.8606 133.314C63.9673 132.421 67.199 131.778 70.5557 131.386C73.9124 130.993 77.2333 130.796 80.5186 130.796C84.3038 130.796 87.9818 131.028 91.5528 131.493C95.1237 131.957 98.5875 132.475 101.944 133.046C105.337 133.582 108.622 134.082 111.8 134.546C114.978 135.01 118.085 135.242 121.12 135.242C124.584 135.242 127.78 134.974 130.708 134.439C133.636 133.903 136.154 133.314 138.261 132.671C140.367 131.993 142.01 131.386 143.188 130.85C144.403 130.279 145.027 129.993 145.063 129.993L146.402 132.457C146.295 132.528 145.599 132.867 144.313 133.475C143.028 134.046 141.278 134.689 139.064 135.403C136.886 136.081 134.279 136.706 131.244 137.278C128.208 137.813 124.87 138.081 121.227 138.081C117.835 138.081 114.567 137.867 111.425 137.438C108.283 136.974 105.104 136.474 101.891 135.938C98.7125 135.403 95.4094 134.921 91.9813 134.492C88.5532 134.028 84.8573 133.796 80.8935 133.796C75.0372 133.796 69.8594 134.367 65.36 135.51C60.8963 136.617 57.1469 138.224 54.1116 140.331C51.112 142.402 48.8445 144.937 47.309 147.937C45.7735 150.901 45.0057 154.222 45.0057 157.9C45.0057 160.435 45.4878 162.649 46.4519 164.542C47.4518 166.434 48.773 168.005 50.4157 169.255C52.094 170.505 54.0045 171.451 56.147 172.094C58.3253 172.701 60.5928 173.005 62.9496 173.005C65.0208 173.005 67.0205 172.826 68.9488 172.469C70.8771 172.112 72.5733 171.719 74.0374 171.291C75.5014 170.826 76.6798 170.416 77.5726 170.059C78.4653 169.666 78.9295 169.47 78.9652 169.47L80.0901 171.933ZM109.765 168.452C109.157 168.452 108.461 169.023 107.676 170.166C106.926 171.273 106.086 172.737 105.158 174.558C106.265 174.13 107.158 173.683 107.836 173.219C108.515 172.755 109.05 172.291 109.443 171.826C109.836 171.362 110.104 170.898 110.247 170.434C110.389 169.969 110.461 169.523 110.461 169.095C110.461 168.845 110.389 168.684 110.247 168.612C110.104 168.505 109.943 168.452 109.765 168.452ZM153.848 170.594C153.383 171.523 152.723 172.737 151.866 174.237C151.044 175.736 150.152 177.397 149.188 179.218C148.223 181.004 147.241 182.878 146.242 184.842C145.277 186.806 144.385 188.735 143.563 190.627C142.778 192.484 142.117 194.252 141.581 195.93C141.082 197.573 140.832 198.965 140.832 200.108C140.832 201.251 141.046 202.001 141.474 202.358C141.939 202.679 142.528 202.84 143.242 202.84C144.278 202.84 145.331 202.536 146.402 201.929C147.509 201.322 148.58 200.537 149.616 199.572C150.687 198.608 151.723 197.519 152.723 196.305C153.723 195.091 154.651 193.877 155.508 192.663C156.401 191.413 157.204 190.234 157.918 189.127C158.633 187.985 159.24 187.021 159.74 186.235L161.668 187.735C161.061 188.877 160.347 190.109 159.525 191.431C158.704 192.752 157.793 194.091 156.794 195.448C155.829 196.769 154.776 198.055 153.633 199.305C152.491 200.554 151.277 201.661 149.991 202.626C148.741 203.59 147.42 204.357 146.027 204.929C144.635 205.5 143.206 205.786 141.742 205.786C139.6 205.786 138.028 205.143 137.029 203.858C136.029 202.572 135.529 200.912 135.529 198.876C135.529 198.733 135.529 198.43 135.529 197.966C135.564 197.466 135.618 197.073 135.689 196.787C133.904 199.037 132.19 200.894 130.547 202.358C128.94 203.822 127.369 204.982 125.834 205.839C124.334 206.696 122.87 207.286 121.441 207.607C120.049 207.964 118.71 208.143 117.424 208.143C116.067 208.143 114.782 207.911 113.568 207.446C112.389 207.018 111.354 206.375 110.461 205.518C109.532 204.661 108.818 203.608 108.318 202.358C107.783 201.108 107.515 199.662 107.515 198.019C107.515 195.984 107.979 193.663 108.907 191.056C109.8 188.413 111.407 185.574 113.728 182.539C115.692 179.932 117.728 177.736 119.835 175.951C121.977 174.165 124.066 172.737 126.101 171.666C128.173 170.559 130.137 169.773 131.994 169.309C133.85 168.845 135.511 168.612 136.975 168.612C140.26 168.612 142.742 169.166 144.42 170.273C146.099 171.344 147.116 173.005 147.474 175.254C148.188 174.362 148.938 173.469 149.723 172.576C150.509 171.683 151.312 170.773 152.134 169.844L153.848 170.594ZM137.403 190.949C137.868 190.199 138.439 189.252 139.118 188.11C139.796 186.931 140.51 185.735 141.26 184.521C142.01 183.271 142.742 182.075 143.456 180.932C144.17 179.789 144.795 178.825 145.331 178.04C145.331 177.718 145.277 177.201 145.17 176.486C145.099 175.772 144.867 175.058 144.474 174.344C144.081 173.594 143.456 172.951 142.599 172.416C141.742 171.88 140.546 171.612 139.01 171.612C137.903 171.612 136.654 171.791 135.261 172.148C133.904 172.469 132.44 173.04 130.869 173.862C129.333 174.647 127.744 175.701 126.101 177.022C124.459 178.343 122.816 179.986 121.174 181.95C118.71 184.914 116.799 187.895 115.442 190.895C114.121 193.859 113.46 196.537 113.46 198.93C113.46 200.965 113.925 202.536 114.853 203.643C115.782 204.75 117.103 205.304 118.817 205.304C120.781 205.304 122.62 204.875 124.334 204.018C126.048 203.126 127.655 201.983 129.155 200.59C130.654 199.197 132.083 197.662 133.44 195.984C134.797 194.27 136.118 192.591 137.403 190.949ZM193.592 187.735C193.056 188.52 192.414 189.592 191.664 190.949C190.95 192.27 190.11 193.716 189.146 195.287C188.182 196.823 187.111 198.394 185.932 200.001C184.79 201.608 183.522 203.054 182.129 204.34C180.772 205.625 179.29 206.679 177.684 207.5C176.077 208.321 174.363 208.732 172.541 208.732C171.542 208.732 170.595 208.571 169.703 208.25C168.81 207.964 168.024 207.5 167.346 206.857C166.667 206.214 166.132 205.429 165.739 204.5C165.346 203.536 165.15 202.411 165.15 201.126C165.15 199.376 165.489 197.555 166.167 195.662C166.882 193.734 167.703 191.877 168.631 190.092C169.56 188.306 170.488 186.681 171.417 185.217C172.345 183.718 173.024 182.521 173.452 181.629C173.881 180.736 174.095 179.968 174.095 179.325C174.095 178.861 173.934 178.45 173.613 178.093C173.327 177.736 172.952 177.397 172.488 177.076C172.059 176.718 171.595 176.361 171.095 176.004C170.631 175.611 170.238 175.147 169.917 174.612C169.024 176.04 168.113 177.486 167.185 178.95C166.364 180.2 165.471 181.611 164.507 183.182C163.543 184.717 162.614 186.235 161.722 187.735L159.793 186.235L171.256 168.291L172.809 169.095C172.738 169.309 172.613 169.648 172.434 170.112C172.291 170.576 172.22 171.076 172.22 171.612C172.22 172.005 172.274 172.398 172.381 172.79C172.524 173.148 172.791 173.487 173.184 173.808C174.613 175.094 175.737 176.094 176.559 176.808C177.38 177.486 177.969 178.04 178.326 178.468C178.719 178.861 178.951 179.2 179.023 179.486C179.13 179.736 179.183 180.075 179.183 180.504C179.183 180.932 179.112 181.45 178.969 182.057C178.826 182.664 178.576 183.396 178.219 184.253C177.898 185.11 177.434 186.128 176.827 187.306C176.255 188.449 175.523 189.788 174.63 191.324C174.095 192.252 173.559 193.198 173.024 194.162C172.524 195.091 172.059 196.037 171.631 197.001C171.238 197.966 170.917 198.93 170.667 199.894C170.417 200.858 170.292 201.786 170.292 202.679C170.292 203.358 170.381 203.911 170.56 204.34C170.774 204.732 171.042 205.036 171.363 205.25C171.684 205.464 172.024 205.607 172.381 205.679C172.774 205.75 173.148 205.786 173.506 205.786C174.684 205.786 175.845 205.447 176.987 204.768C178.166 204.054 179.308 203.143 180.415 202.036C181.558 200.929 182.647 199.68 183.683 198.287C184.754 196.859 185.772 195.412 186.736 193.948C187.7 192.484 188.593 191.091 189.414 189.77C190.235 188.413 190.967 187.235 191.61 186.235L193.592 187.735ZM215.66 158.703C215.66 159.417 215.482 160.167 215.125 160.953C214.768 161.703 214.303 162.381 213.732 162.988C213.196 163.595 212.589 164.095 211.911 164.488C211.232 164.881 210.554 165.077 209.875 165.077C209.268 165.077 208.804 164.863 208.483 164.434C208.161 163.97 208.001 163.417 208.001 162.774C208.001 162.203 208.108 161.524 208.322 160.739C208.536 159.953 208.858 159.221 209.286 158.542C209.715 157.828 210.233 157.221 210.84 156.721C211.447 156.221 212.143 155.971 212.929 155.971C213.679 155.971 214.321 156.257 214.857 156.828C215.393 157.4 215.66 158.025 215.66 158.703ZM205.644 170.594C205.18 171.523 204.519 172.755 203.662 174.29C202.841 175.79 201.948 177.451 200.984 179.272C200.02 181.057 199.038 182.95 198.038 184.949C197.038 186.913 196.127 188.842 195.306 190.734C194.52 192.591 193.878 194.341 193.378 195.984C192.878 197.626 192.628 199.019 192.628 200.162C192.628 201.197 192.842 201.911 193.271 202.304C193.699 202.661 194.306 202.84 195.092 202.84C196.556 202.84 197.984 202.358 199.377 201.394C200.77 200.429 202.144 199.18 203.501 197.644C204.894 196.073 206.251 194.287 207.572 192.288C208.893 190.288 210.215 188.27 211.536 186.235L213.464 187.735C212.429 189.592 211.25 191.574 209.929 193.68C208.644 195.787 207.197 197.751 205.59 199.572C203.983 201.358 202.216 202.84 200.288 204.018C198.359 205.197 196.252 205.786 193.967 205.786C191.824 205.786 190.182 205.143 189.039 203.858C187.896 202.572 187.325 200.912 187.325 198.876C187.325 196.484 187.879 193.984 188.986 191.377C190.093 188.77 191.467 186.199 193.11 183.664C194.788 181.093 196.592 178.629 198.52 176.272C200.484 173.915 202.287 171.773 203.93 169.844L205.644 170.594ZM271.26 135.831C270.867 136.403 270.224 137.349 269.331 138.67C268.439 139.991 267.403 141.563 266.225 143.384C265.046 145.205 263.761 147.223 262.368 149.437C261.011 151.651 259.636 153.936 258.244 156.293C256.887 158.65 255.548 161.042 254.226 163.47C252.941 165.863 251.798 168.166 250.798 170.38C249.227 173.808 247.924 176.879 246.888 179.593C245.888 182.271 245.085 184.664 244.478 186.771C243.906 188.877 243.496 190.717 243.246 192.288C243.032 193.823 242.924 195.144 242.924 196.251C242.924 198.287 243.228 199.697 243.835 200.483C244.478 201.269 245.335 201.661 246.406 201.661C247.513 201.661 248.566 201.376 249.566 200.804C250.602 200.233 251.584 199.501 252.512 198.608C253.477 197.716 254.369 196.698 255.191 195.555C256.048 194.412 256.833 193.27 257.547 192.127C258.297 190.984 258.976 189.895 259.583 188.86C260.19 187.824 260.726 186.949 261.19 186.235L263.118 187.735C262.725 188.378 262.225 189.235 261.618 190.306C261.047 191.341 260.386 192.484 259.636 193.734C258.886 194.984 258.029 196.251 257.065 197.537C256.101 198.787 255.03 199.93 253.851 200.965C252.709 202.001 251.423 202.858 249.995 203.536C248.602 204.179 247.085 204.5 245.442 204.5C244.656 204.5 243.817 204.393 242.924 204.179C242.067 203.965 241.264 203.59 240.514 203.054C239.764 202.518 239.104 201.786 238.532 200.858C237.961 199.894 237.586 198.68 237.407 197.216C234.729 200.108 232.122 202.304 229.587 203.804C227.052 205.268 224.659 206 222.409 206C221.267 206 219.999 205.804 218.606 205.411C217.249 205.018 215.964 204.34 214.75 203.375C213.536 202.411 212.518 201.144 211.697 199.572C210.875 197.966 210.465 195.984 210.465 193.627C210.465 190.984 210.875 188.467 211.697 186.074C212.518 183.682 213.625 181.468 215.018 179.432C216.41 177.361 217.999 175.504 219.785 173.862C221.606 172.183 223.499 170.773 225.463 169.63C227.427 168.452 229.391 167.541 231.355 166.898C233.354 166.256 235.229 165.934 236.979 165.934C239.3 165.934 241.121 166.22 242.442 166.791C243.764 167.363 244.763 167.934 245.442 168.505C245.942 167.505 246.62 166.238 247.477 164.702C248.334 163.131 249.334 161.399 250.477 159.507C251.62 157.578 252.887 155.543 254.28 153.4C255.673 151.222 257.155 149.044 258.726 146.866C260.297 144.652 261.94 142.473 263.654 140.331C265.403 138.188 267.171 136.188 268.956 134.332L271.26 135.831ZM237.354 193.198C237.532 190.556 238.139 187.449 239.175 183.878C240.246 180.272 241.871 176.129 244.049 171.451C243.549 170.701 242.835 170.13 241.907 169.737C241.014 169.309 239.996 169.095 238.854 169.095C237.104 169.095 235.318 169.452 233.497 170.166C231.712 170.88 229.98 171.844 228.301 173.058C226.659 174.272 225.105 175.719 223.641 177.397C222.177 179.04 220.892 180.807 219.785 182.7C218.714 184.592 217.857 186.574 217.214 188.645C216.607 190.681 216.303 192.698 216.303 194.698C216.303 197.376 216.857 199.465 217.964 200.965C219.106 202.465 220.624 203.215 222.517 203.215C223.409 203.215 224.391 203.036 225.463 202.679C226.534 202.322 227.694 201.751 228.944 200.965C230.23 200.144 231.569 199.108 232.962 197.858C234.354 196.573 235.818 195.019 237.354 193.198ZM303.827 170.594C303.362 171.523 302.702 172.737 301.845 174.237C301.023 175.736 300.131 177.397 299.167 179.218C298.202 181.004 297.22 182.878 296.221 184.842C295.256 186.806 294.364 188.735 293.542 190.627C292.757 192.484 292.096 194.252 291.56 195.93C291.061 197.573 290.811 198.965 290.811 200.108C290.811 201.251 291.025 202.001 291.453 202.358C291.918 202.679 292.507 202.84 293.221 202.84C294.257 202.84 295.31 202.536 296.381 201.929C297.488 201.322 298.559 200.537 299.595 199.572C300.666 198.608 301.702 197.519 302.702 196.305C303.702 195.091 304.63 193.877 305.487 192.663C306.38 191.413 307.183 190.234 307.897 189.127C308.612 187.985 309.219 187.021 309.719 186.235L311.647 187.735C311.04 188.877 310.326 190.109 309.504 191.431C308.683 192.752 307.772 194.091 306.773 195.448C305.808 196.769 304.755 198.055 303.612 199.305C302.47 200.554 301.256 201.661 299.97 202.626C298.72 203.59 297.399 204.357 296.006 204.929C294.614 205.5 293.185 205.786 291.721 205.786C289.579 205.786 288.007 205.143 287.008 203.858C286.008 202.572 285.508 200.912 285.508 198.876C285.508 198.733 285.508 198.43 285.508 197.966C285.543 197.466 285.597 197.073 285.668 196.787C283.883 199.037 282.169 200.894 280.526 202.358C278.919 203.822 277.348 204.982 275.813 205.839C274.313 206.696 272.849 207.286 271.42 207.607C270.028 207.964 268.689 208.143 267.403 208.143C266.046 208.143 264.761 207.911 263.547 207.446C262.368 207.018 261.333 206.375 260.44 205.518C259.511 204.661 258.797 203.608 258.297 202.358C257.762 201.108 257.494 199.662 257.494 198.019C257.494 195.984 257.958 193.663 258.886 191.056C259.779 188.413 261.386 185.574 263.707 182.539C265.671 179.932 267.707 177.736 269.814 175.951C271.956 174.165 274.045 172.737 276.08 171.666C278.152 170.559 280.116 169.773 281.973 169.309C283.829 168.845 285.49 168.612 286.954 168.612C290.239 168.612 292.721 169.166 294.399 170.273C296.078 171.344 297.095 173.005 297.453 175.254C298.167 174.362 298.917 173.469 299.702 172.576C300.488 171.683 301.291 170.773 302.113 169.844L303.827 170.594ZM287.382 190.949C287.847 190.199 288.418 189.252 289.097 188.11C289.775 186.931 290.489 185.735 291.239 184.521C291.989 183.271 292.721 182.075 293.435 180.932C294.149 179.789 294.774 178.825 295.31 178.04C295.31 177.718 295.256 177.201 295.149 176.486C295.078 175.772 294.846 175.058 294.453 174.344C294.06 173.594 293.435 172.951 292.578 172.416C291.721 171.88 290.525 171.612 288.989 171.612C287.882 171.612 286.633 171.791 285.24 172.148C283.883 172.469 282.419 173.04 280.848 173.862C279.312 174.647 277.723 175.701 276.08 177.022C274.438 178.343 272.795 179.986 271.153 181.95C268.689 184.914 266.778 187.895 265.421 190.895C264.1 193.859 263.439 196.537 263.439 198.93C263.439 200.965 263.904 202.536 264.832 203.643C265.761 204.75 267.082 205.304 268.796 205.304C270.76 205.304 272.599 204.875 274.313 204.018C276.027 203.126 277.634 201.983 279.134 200.59C280.633 199.197 282.062 197.662 283.419 195.984C284.776 194.27 286.097 192.591 287.382 190.949ZM317.057 185.271C318.949 182.7 320.913 180.343 322.949 178.2C324.984 176.022 327.038 174.147 329.109 172.576C331.18 171.005 333.215 169.791 335.215 168.934C337.25 168.041 339.214 167.595 341.107 167.595C342.393 167.595 343.446 167.791 344.267 168.184C345.124 168.577 345.785 169.095 346.249 169.737C346.749 170.344 347.088 171.023 347.267 171.773C347.481 172.523 347.588 173.273 347.588 174.022C347.588 175.308 347.32 176.701 346.785 178.2C346.249 179.665 345.571 181.2 344.749 182.807C343.964 184.414 343.107 186.056 342.178 187.735C341.25 189.413 340.375 191.056 339.554 192.663C338.768 194.27 338.108 195.841 337.572 197.376C337.036 198.876 336.768 200.287 336.768 201.608C336.768 202.429 336.947 203.197 337.304 203.911C337.697 204.59 338.375 204.929 339.339 204.929C340.482 204.929 341.75 204.357 343.143 203.215C344.535 202.036 345.946 200.554 347.374 198.769C348.838 196.948 350.284 194.93 351.713 192.716C353.177 190.502 354.534 188.342 355.784 186.235L357.712 187.735C357.319 188.27 356.783 189.145 356.105 190.359C355.427 191.538 354.623 192.877 353.695 194.377C352.802 195.841 351.784 197.358 350.641 198.93C349.534 200.501 348.338 201.947 347.053 203.268C345.803 204.554 344.482 205.607 343.089 206.429C341.696 207.286 340.286 207.714 338.857 207.714C337.929 207.714 337.001 207.607 336.072 207.393C335.144 207.179 334.304 206.786 333.555 206.214C332.805 205.643 332.198 204.875 331.733 203.911C331.269 202.911 331.037 201.661 331.037 200.162C331.037 198.412 331.323 196.644 331.894 194.859C332.501 193.038 333.233 191.252 334.09 189.502C334.983 187.717 335.947 186.003 336.983 184.36C338.018 182.682 338.965 181.111 339.822 179.647C340.714 178.183 341.446 176.861 342.018 175.683C342.625 174.469 342.928 173.451 342.928 172.63C342.928 171.166 342.214 170.434 340.786 170.434C338.75 170.434 336.59 171.112 334.304 172.469C332.055 173.79 329.787 175.522 327.502 177.665C325.216 179.807 322.967 182.218 320.753 184.896C318.539 187.538 316.468 190.181 314.539 192.823L306.398 208.143L301.523 206.214C306.058 196.323 310.415 186.556 314.593 176.915C318.807 167.238 323.127 157.685 327.555 148.258C328.234 146.794 329.019 145.205 329.912 143.491C330.841 141.777 331.823 140.063 332.858 138.349C333.93 136.635 335.072 134.992 336.286 133.421C337.5 131.85 338.75 130.457 340.036 129.243C341.321 128.029 342.643 127.065 344 126.351C345.392 125.601 346.785 125.226 348.178 125.226C349.749 125.226 350.963 125.672 351.82 126.565C352.713 127.422 353.159 128.654 353.159 130.261C353.159 131.939 352.713 133.849 351.82 135.992C350.927 138.099 349.731 140.331 348.231 142.688C346.731 145.044 344.982 147.473 342.982 149.972C341.018 152.472 338.929 154.954 336.715 157.418C334.537 159.882 332.323 162.274 330.073 164.595C327.823 166.881 325.663 169.005 323.592 170.969L317.057 185.271ZM348.445 128.065C346.838 128.065 345.356 128.689 344 129.939C342.678 131.153 341.232 133.171 339.661 135.992C338.09 138.813 336.286 142.491 334.251 147.026C332.215 151.561 329.734 157.132 326.806 163.738C330.734 159.917 334.162 156.221 337.09 152.65C340.054 149.044 342.518 145.759 344.482 142.795C346.446 139.831 347.91 137.26 348.874 135.081C349.874 132.867 350.374 131.225 350.374 130.154C350.374 129.511 350.195 129.011 349.838 128.654C349.481 128.261 349.017 128.065 348.445 128.065Z" fill="#202D58"/>
<path d="M136.279 248.912C133.958 250.233 131.779 251.858 129.744 253.786C131.958 254.75 133.993 255.947 135.85 257.375C137.743 258.803 139.368 260.464 140.725 262.356C142.117 264.249 143.188 266.392 143.938 268.784C144.724 271.141 145.117 273.748 145.117 276.604C145.117 279.033 144.688 281.336 143.831 283.514C143.01 285.657 141.849 287.603 140.35 289.353C138.885 291.067 137.118 292.531 135.047 293.745C133.011 294.923 130.779 295.745 128.351 296.209C129.53 297.816 130.476 299.601 131.19 301.565C131.94 303.494 132.315 305.6 132.315 307.886C132.315 308.814 132.19 309.921 131.94 311.207C131.69 312.457 131.369 313.778 130.976 315.171C130.619 316.563 130.208 317.974 129.744 319.402C129.315 320.795 128.905 322.098 128.512 323.312C128.155 324.526 127.851 325.598 127.601 326.526C127.351 327.455 127.226 328.133 127.226 328.561C127.226 329.597 127.512 330.401 128.083 330.972C128.69 331.579 129.512 331.882 130.547 331.882C132.44 331.882 134.225 331.472 135.904 330.65C137.582 329.865 139.153 328.794 140.617 327.437C142.117 326.115 143.528 324.58 144.849 322.83C146.17 321.045 147.42 319.188 148.598 317.26C149.813 315.331 150.955 313.403 152.026 311.475C153.133 309.511 154.205 307.654 155.24 305.904L157.222 307.404C154.973 311.403 152.848 315.081 150.848 318.438C148.884 321.759 146.866 324.616 144.795 327.008C142.724 329.436 140.528 331.329 138.207 332.686C135.886 334.043 133.243 334.721 130.28 334.721C127.53 334.721 125.387 333.954 123.852 332.418C122.352 330.918 121.602 328.776 121.602 325.99C121.602 324.062 121.888 322.223 122.459 320.473C123.031 318.724 123.655 317.01 124.334 315.331C125.048 313.653 125.691 311.975 126.262 310.296C126.834 308.618 127.119 306.868 127.119 305.047C127.119 303.44 126.851 301.94 126.316 300.548C125.816 299.155 125.102 297.834 124.173 296.584C123.066 296.584 121.799 296.53 120.37 296.423C118.978 296.316 117.638 296.102 116.353 295.78C115.103 295.459 114.05 294.995 113.193 294.388C112.336 293.781 111.907 292.977 111.907 291.977C111.907 291.085 112.264 290.37 112.978 289.835C113.693 289.263 114.746 288.978 116.139 288.978C117.746 288.978 119.299 289.353 120.799 290.103C122.299 290.817 123.78 291.763 125.245 292.941C127.316 292.477 129.244 291.638 131.029 290.424C132.815 289.21 134.35 287.764 135.636 286.085C136.957 284.371 137.975 282.479 138.689 280.408C139.439 278.336 139.814 276.212 139.814 274.033C139.814 271.784 139.51 269.73 138.903 267.874C138.296 265.981 137.439 264.285 136.332 262.785C135.225 261.285 133.922 259.982 132.422 258.875C130.922 257.732 129.28 256.786 127.494 256.036C124.78 259 122.299 262.41 120.049 266.267C117.799 270.088 115.639 274.141 113.568 278.426C111.532 282.675 109.55 287.032 107.622 291.495C105.694 295.923 103.676 300.244 101.569 304.458C99.4981 308.636 97.2663 312.582 94.8738 316.295C92.517 320.009 89.8923 323.259 86.9999 326.044C84.1431 328.829 80.9472 331.025 77.4119 332.632C73.9124 334.239 69.9666 335.043 65.5743 335.043C62.1462 335.043 58.9324 334.507 55.9328 333.436C52.9332 332.365 50.3086 330.775 48.0589 328.669C45.8092 326.597 44.0238 324.026 42.7025 320.955C41.417 317.884 40.7742 314.349 40.7742 310.35C40.7742 307.922 41.0599 305.208 41.6312 302.208C42.2383 299.208 43.1846 296.084 44.4701 292.834C45.7557 289.549 47.3983 286.246 49.398 282.925C51.4334 279.568 53.8617 276.319 56.6827 273.176C59.5394 270.034 62.8247 267.088 66.5385 264.338C70.2879 261.589 74.5016 259.196 79.1796 257.161C83.8932 255.09 89.1067 253.465 94.8202 252.286C100.534 251.108 106.801 250.519 113.621 250.519C115.942 250.519 118.246 250.715 120.531 251.108C122.816 251.465 125.03 252.001 127.173 252.715C128.423 251.751 129.726 250.84 131.083 249.983C132.44 249.09 133.868 248.251 135.368 247.466L136.279 248.912ZM64.2352 332.204C68.0918 332.204 71.5199 331.436 74.5195 329.901C77.5191 328.365 80.233 326.294 82.6612 323.687C85.0894 321.045 87.3034 317.956 89.3031 314.421C91.3386 310.85 93.3026 307.065 95.1952 303.065C97.1235 299.03 99.0518 294.852 100.98 290.531C102.944 286.175 105.069 281.889 107.354 277.676C109.64 273.462 112.175 269.409 114.96 265.517C117.746 261.624 120.942 258.089 124.548 254.911C121.263 253.947 117.817 253.465 114.21 253.465C107.568 253.465 101.248 254.358 95.2487 256.143C89.2853 257.929 83.7325 260.339 78.5903 263.374C73.4839 266.409 68.8596 269.927 64.7173 273.926C60.6107 277.926 57.0934 282.139 54.1652 286.567C51.2727 290.96 49.0409 295.459 47.4697 300.065C45.8985 304.636 45.1129 309.011 45.1129 313.189C45.1129 315.795 45.5593 318.259 46.452 320.58C47.3804 322.902 48.6838 324.919 50.3622 326.633C52.0405 328.347 54.0581 329.704 56.4149 330.704C58.7717 331.704 61.3785 332.204 64.2352 332.204ZM121.441 293.638C120.549 293.031 119.602 292.513 118.603 292.084C117.603 291.656 116.728 291.442 115.978 291.442C115.478 291.442 115.139 291.513 114.96 291.656C114.782 291.799 114.692 291.959 114.692 292.138C114.692 292.459 114.925 292.727 115.389 292.941C115.853 293.12 116.424 293.281 117.103 293.424C117.817 293.531 118.549 293.602 119.299 293.638C120.085 293.674 120.799 293.674 121.441 293.638ZM197.877 290.263C197.413 291.192 196.752 292.406 195.895 293.906C195.074 295.405 194.181 297.066 193.217 298.887C192.253 300.673 191.271 302.547 190.271 304.511C189.307 306.475 188.414 308.404 187.593 310.296C186.807 312.153 186.147 313.921 185.611 315.599C185.111 317.242 184.861 318.634 184.861 319.777C184.861 320.92 185.075 321.67 185.504 322.027C185.968 322.348 186.557 322.509 187.272 322.509C188.307 322.509 189.361 322.205 190.432 321.598C191.539 320.991 192.61 320.206 193.646 319.241C194.717 318.277 195.753 317.188 196.752 315.974C197.752 314.76 198.681 313.546 199.538 312.332C200.43 311.082 201.234 309.903 201.948 308.796C202.662 307.654 203.269 306.69 203.769 305.904L205.698 307.404C205.09 308.546 204.376 309.778 203.555 311.1C202.734 312.421 201.823 313.76 200.823 315.117C199.859 316.438 198.806 317.724 197.663 318.974C196.52 320.223 195.306 321.33 194.021 322.295C192.771 323.259 191.45 324.026 190.057 324.598C188.664 325.169 187.236 325.455 185.772 325.455C183.629 325.455 182.058 324.812 181.058 323.526C180.058 322.241 179.558 320.58 179.558 318.545C179.558 318.402 179.558 318.099 179.558 317.634C179.594 317.135 179.648 316.742 179.719 316.456C177.934 318.706 176.22 320.563 174.577 322.027C172.97 323.491 171.399 324.651 169.863 325.508C168.363 326.365 166.899 326.955 165.471 327.276C164.078 327.633 162.739 327.812 161.454 327.812C160.097 327.812 158.811 327.579 157.597 327.115C156.419 326.687 155.383 326.044 154.49 325.187C153.562 324.33 152.848 323.277 152.348 322.027C151.812 320.777 151.544 319.331 151.544 317.688C151.544 315.653 152.009 313.331 152.937 310.725C153.83 308.082 155.437 305.243 157.758 302.208C159.722 299.601 161.757 297.405 163.864 295.62C166.007 293.834 168.096 292.406 170.131 291.335C172.202 290.228 174.166 289.442 176.023 288.978C177.88 288.514 179.54 288.281 181.005 288.281C184.29 288.281 186.772 288.835 188.45 289.942C190.128 291.013 191.146 292.674 191.503 294.923C192.217 294.031 192.967 293.138 193.753 292.245C194.538 291.352 195.342 290.442 196.163 289.513L197.877 290.263ZM181.433 310.618C181.897 309.868 182.469 308.921 183.147 307.779C183.826 306.6 184.54 305.404 185.29 304.19C186.04 302.94 186.772 301.744 187.486 300.601C188.2 299.458 188.825 298.494 189.361 297.709C189.361 297.387 189.307 296.87 189.2 296.155C189.128 295.441 188.896 294.727 188.504 294.013C188.111 293.263 187.486 292.62 186.629 292.084C185.772 291.549 184.576 291.281 183.04 291.281C181.933 291.281 180.683 291.46 179.291 291.817C177.934 292.138 176.469 292.709 174.898 293.531C173.363 294.316 171.774 295.37 170.131 296.691C168.488 298.012 166.846 299.655 165.203 301.619C162.739 304.583 160.829 307.564 159.472 310.564C158.151 313.528 157.49 316.206 157.49 318.599C157.49 320.634 157.954 322.205 158.883 323.312C159.811 324.419 161.132 324.973 162.846 324.973C164.81 324.973 166.649 324.544 168.363 323.687C170.078 322.794 171.684 321.652 173.184 320.259C174.684 318.866 176.112 317.331 177.469 315.653C178.826 313.939 180.148 312.26 181.433 310.618ZM210.25 307.082C212.107 304.511 214.071 302.047 216.143 299.691C218.249 297.298 220.374 295.191 222.517 293.37C224.659 291.513 226.82 290.031 228.998 288.924C231.176 287.817 233.301 287.264 235.372 287.264C236.658 287.264 237.711 287.46 238.532 287.853C239.354 288.246 239.996 288.746 240.461 289.353C240.96 289.96 241.3 290.656 241.478 291.442C241.693 292.192 241.8 292.941 241.8 293.691C241.8 294.763 241.585 295.923 241.157 297.173C240.764 298.423 240.139 299.691 239.282 300.976C238.461 302.226 237.407 303.44 236.122 304.618C234.836 305.761 233.301 306.797 231.515 307.725C231.908 308.654 232.105 309.778 232.105 311.1C232.105 311.921 231.997 312.76 231.783 313.617C231.569 314.438 231.337 315.26 231.087 316.081C230.837 316.902 230.605 317.742 230.391 318.599C230.176 319.42 230.069 320.259 230.069 321.116C230.069 321.545 230.087 321.955 230.123 322.348C230.194 322.741 230.301 323.098 230.444 323.419C230.623 323.741 230.873 324.009 231.194 324.223C231.551 324.401 232.033 324.491 232.64 324.491C233.354 324.491 234.176 324.205 235.104 323.634C236.033 323.027 237.015 322.241 238.05 321.277C239.086 320.313 240.139 319.206 241.21 317.956C242.317 316.67 243.389 315.331 244.424 313.939C245.46 312.546 246.46 311.171 247.424 309.814C248.388 308.421 249.263 307.118 250.048 305.904L252.03 307.404C250.209 310.118 248.424 312.707 246.674 315.171C244.96 317.634 243.228 319.795 241.478 321.652C239.764 323.509 238.014 324.991 236.229 326.098C234.444 327.205 232.604 327.758 230.712 327.758C229.962 327.758 229.176 327.651 228.355 327.437C227.569 327.222 226.837 326.865 226.159 326.365C225.516 325.901 224.981 325.276 224.552 324.491C224.124 323.705 223.909 322.741 223.909 321.598C223.909 320.241 224.249 318.652 224.927 316.831C225.534 315.117 225.98 313.689 226.266 312.546C226.552 311.367 226.712 310.385 226.748 309.6C225.998 309.778 225.195 309.939 224.338 310.082C223.516 310.225 222.731 310.296 221.981 310.296C221.588 310.296 221.16 310.26 220.695 310.189C220.231 310.082 219.803 309.921 219.41 309.707C219.017 309.493 218.678 309.225 218.392 308.904C218.142 308.546 218.017 308.1 218.017 307.564C218.017 307.029 218.178 306.529 218.499 306.065C218.856 305.565 219.321 305.136 219.892 304.779C220.499 304.386 221.213 304.083 222.035 303.869C222.856 303.654 223.766 303.547 224.766 303.547C226.623 303.547 228.212 304.047 229.533 305.047C230.819 304.047 231.872 302.958 232.694 301.78C233.551 300.601 234.211 299.458 234.676 298.351C235.14 297.244 235.461 296.262 235.64 295.405C235.818 294.513 235.908 293.852 235.908 293.424C235.908 292.245 235.693 291.442 235.265 291.013C234.836 290.549 234.319 290.317 233.711 290.317C232.569 290.317 231.283 290.692 229.855 291.442C228.462 292.192 226.998 293.209 225.463 294.495C223.963 295.78 222.409 297.262 220.803 298.941C219.231 300.619 217.678 302.387 216.143 304.243C214.643 306.1 213.179 307.975 211.75 309.868C210.358 311.76 209.072 313.546 207.894 315.224C206.822 317.01 205.858 318.67 205.001 320.206C204.18 321.741 203.484 323.062 202.912 324.169C202.341 325.276 201.895 326.115 201.573 326.687C201.252 327.258 201.073 327.455 201.037 327.276L195.735 325.883C199.948 316.278 204.216 306.672 208.536 297.066C212.857 287.46 217.41 277.747 222.195 267.927C222.909 266.499 223.713 264.945 224.606 263.267C225.534 261.553 226.516 259.857 227.552 258.178C228.623 256.464 229.748 254.804 230.926 253.197C232.14 251.59 233.372 250.18 234.622 248.966C235.908 247.716 237.211 246.734 238.532 246.019C239.853 245.27 241.175 244.895 242.496 244.895C243.889 244.895 245.013 245.287 245.87 246.073C246.763 246.859 247.21 248.108 247.21 249.823C247.21 252.179 246.567 255.054 245.281 258.446C244.031 261.803 242.157 265.374 239.657 269.159C237.157 272.944 234.033 276.783 230.283 280.675C226.57 284.532 222.231 288.121 217.267 291.442L210.25 307.082ZM219.624 286.3C223.945 282.943 227.659 279.497 230.765 275.962C233.908 272.391 236.479 268.963 238.479 265.677C240.514 262.392 241.996 259.357 242.924 256.572C243.889 253.751 244.371 251.394 244.371 249.501C244.371 248.966 244.228 248.537 243.942 248.216C243.657 247.894 243.21 247.734 242.603 247.734C241.282 247.734 239.925 248.394 238.532 249.715C237.14 251.001 235.551 253.143 233.765 256.143C232.015 259.143 229.998 263.106 227.712 268.034C225.427 272.962 222.731 279.051 219.624 286.3ZM226.48 307.189C226.302 306.797 225.998 306.457 225.57 306.172C225.177 305.85 224.731 305.69 224.231 305.69C223.195 305.69 222.285 305.904 221.499 306.332C220.713 306.761 220.321 307.172 220.321 307.564C220.321 307.85 220.481 308.047 220.803 308.154C221.16 308.225 221.481 308.261 221.767 308.261C222.695 308.261 223.552 308.154 224.338 307.939C225.123 307.725 225.838 307.475 226.48 307.189ZM257.387 304.94C259.279 302.369 261.243 300.012 263.279 297.869C265.314 295.691 267.367 293.816 269.439 292.245C271.51 290.674 273.545 289.46 275.545 288.603C277.58 287.71 279.544 287.264 281.437 287.264C282.722 287.264 283.776 287.46 284.597 287.853C285.454 288.246 286.115 288.763 286.579 289.406C287.079 290.013 287.418 290.692 287.597 291.442C287.811 292.192 287.918 292.941 287.918 293.691C287.918 294.977 287.65 296.37 287.115 297.869C286.579 299.333 285.901 300.869 285.079 302.476C284.294 304.083 283.437 305.725 282.508 307.404C281.58 309.082 280.705 310.725 279.884 312.332C279.098 313.939 278.437 315.51 277.902 317.045C277.366 318.545 277.098 319.956 277.098 321.277C277.098 322.098 277.277 322.866 277.634 323.58C278.027 324.259 278.705 324.598 279.669 324.598C280.812 324.598 282.08 324.026 283.472 322.884C284.865 321.705 286.276 320.223 287.704 318.438C289.168 316.617 290.614 314.599 292.043 312.385C293.507 310.171 294.864 308.011 296.113 305.904L298.042 307.404C297.649 307.939 297.113 308.814 296.435 310.028C295.756 311.207 294.953 312.546 294.024 314.046C293.132 315.51 292.114 317.027 290.971 318.599C289.864 320.17 288.668 321.616 287.383 322.937C286.133 324.223 284.811 325.276 283.419 326.098C282.026 326.955 280.616 327.383 279.187 327.383C278.259 327.383 277.33 327.276 276.402 327.062C275.473 326.847 274.634 326.455 273.884 325.883C273.135 325.312 272.527 324.544 272.063 323.58C271.599 322.58 271.367 321.33 271.367 319.831C271.367 318.081 271.653 316.313 272.224 314.528C272.831 312.707 273.563 310.921 274.42 309.171C275.313 307.386 276.277 305.672 277.313 304.029C278.348 302.351 279.294 300.78 280.151 299.316C281.044 297.852 281.776 296.53 282.348 295.352C282.955 294.138 283.258 293.12 283.258 292.299C283.258 290.835 282.544 290.103 281.116 290.103C279.08 290.103 276.92 290.781 274.634 292.138C272.385 293.459 270.117 295.191 267.832 297.334C265.546 299.476 263.297 301.887 261.083 304.565C258.869 307.207 256.798 309.85 254.869 312.492L246.728 327.812L241.853 325.883C246.388 315.992 250.745 306.225 254.923 296.584C259.136 286.907 263.457 277.354 267.885 267.927C268.564 266.463 269.349 264.874 270.242 263.16C271.171 261.446 272.153 259.732 273.188 258.018C274.259 256.304 275.402 254.661 276.616 253.09C277.83 251.519 279.08 250.126 280.366 248.912C281.651 247.698 282.972 246.734 284.329 246.019C285.722 245.27 287.115 244.895 288.507 244.895C290.079 244.895 291.293 245.341 292.15 246.234C293.042 247.091 293.489 248.323 293.489 249.93C293.489 251.608 293.042 253.518 292.15 255.661C291.257 257.768 290.061 260 288.561 262.356C287.061 264.713 285.311 267.142 283.312 269.641C281.348 272.141 279.259 274.623 277.045 277.087C274.866 279.551 272.652 281.943 270.403 284.264C268.153 286.55 265.993 288.674 263.922 290.638L257.387 304.94ZM288.775 247.734C287.168 247.734 285.686 248.358 284.329 249.608C283.008 250.822 281.562 252.84 279.991 255.661C278.419 258.482 276.616 262.16 274.581 266.695C272.545 271.23 270.064 276.801 267.135 283.407C271.063 279.586 274.491 275.89 277.42 272.319C280.384 268.713 282.847 265.427 284.811 262.464C286.775 259.5 288.24 256.929 289.204 254.75C290.204 252.536 290.703 250.894 290.703 249.823C290.703 249.18 290.525 248.68 290.168 248.323C289.811 247.93 289.347 247.734 288.775 247.734ZM338.75 290.263C338.286 291.192 337.626 292.406 336.768 293.906C335.947 295.405 335.054 297.066 334.09 298.887C333.126 300.673 332.144 302.547 331.144 304.511C330.18 306.475 329.287 308.404 328.466 310.296C327.68 312.153 327.02 313.921 326.484 315.599C325.984 317.242 325.734 318.634 325.734 319.777C325.734 320.92 325.949 321.67 326.377 322.027C326.841 322.348 327.431 322.509 328.145 322.509C329.18 322.509 330.234 322.205 331.305 321.598C332.412 320.991 333.483 320.206 334.519 319.241C335.59 318.277 336.626 317.188 337.626 315.974C338.625 314.76 339.554 313.546 340.411 312.332C341.304 311.082 342.107 309.903 342.821 308.796C343.535 307.654 344.142 306.69 344.642 305.904L346.571 307.404C345.964 308.546 345.249 309.778 344.428 311.1C343.607 312.421 342.696 313.76 341.696 315.117C340.732 316.438 339.679 317.724 338.536 318.974C337.393 320.223 336.179 321.33 334.894 322.295C333.644 323.259 332.323 324.026 330.93 324.598C329.537 325.169 328.109 325.455 326.645 325.455C324.502 325.455 322.931 324.812 321.931 323.526C320.931 322.241 320.431 320.58 320.431 318.545C320.431 318.402 320.431 318.099 320.431 317.634C320.467 317.135 320.521 316.742 320.592 316.456C318.807 318.706 317.093 320.563 315.45 322.027C313.843 323.491 312.272 324.651 310.736 325.508C309.237 326.365 307.773 326.955 306.344 327.276C304.952 327.633 303.612 327.812 302.327 327.812C300.97 327.812 299.684 327.579 298.47 327.115C297.292 326.687 296.256 326.044 295.364 325.187C294.435 324.33 293.721 323.277 293.221 322.027C292.685 320.777 292.418 319.331 292.418 317.688C292.418 315.653 292.882 313.331 293.81 310.725C294.703 308.082 296.31 305.243 298.631 302.208C300.595 299.601 302.63 297.405 304.737 295.62C306.88 293.834 308.969 292.406 311.004 291.335C313.075 290.228 315.039 289.442 316.896 288.978C318.753 288.514 320.414 288.281 321.878 288.281C325.163 288.281 327.645 288.835 329.323 289.942C331.001 291.013 332.019 292.674 332.376 294.923C333.09 294.031 333.84 293.138 334.626 292.245C335.412 291.352 336.215 290.442 337.036 289.513L338.75 290.263ZM322.306 310.618C322.77 309.868 323.342 308.921 324.02 307.779C324.699 306.6 325.413 305.404 326.163 304.19C326.913 302.94 327.645 301.744 328.359 300.601C329.073 299.458 329.698 298.494 330.234 297.709C330.234 297.387 330.18 296.87 330.073 296.155C330.002 295.441 329.769 294.727 329.377 294.013C328.984 293.263 328.359 292.62 327.502 292.084C326.645 291.549 325.449 291.281 323.913 291.281C322.806 291.281 321.556 291.46 320.164 291.817C318.807 292.138 317.343 292.709 315.771 293.531C314.236 294.316 312.647 295.37 311.004 296.691C309.362 298.012 307.719 299.655 306.076 301.619C303.612 304.583 301.702 307.564 300.345 310.564C299.024 313.528 298.363 316.206 298.363 318.599C298.363 320.634 298.827 322.205 299.756 323.312C300.684 324.419 302.005 324.973 303.72 324.973C305.684 324.973 307.523 324.544 309.237 323.687C310.951 322.794 312.558 321.652 314.057 320.259C315.557 318.866 316.986 317.331 318.342 315.653C319.699 313.939 321.021 312.26 322.306 310.618Z" fill="#202D58"/>
<path d="M50.5758 362.095C51.2797 362.095 51.8236 362.271 52.2076 362.623C52.6235 362.975 52.8315 363.455 52.8315 364.063C52.8315 364.863 52.5595 365.503 52.0156 365.983C51.4717 366.431 50.7678 366.655 49.9039 366.655C49.232 366.655 48.6721 366.479 48.2242 366.127C47.8082 365.775 47.6002 365.295 47.6002 364.687C47.6002 363.919 47.8882 363.295 48.4641 362.815C49.04 362.335 49.7439 362.095 50.5758 362.095ZM52.2556 390.075C51.2317 391.131 50.2559 391.963 49.328 392.571C48.4321 393.147 47.6322 393.435 46.9283 393.435C46.3524 393.435 45.9045 393.259 45.5845 392.907C45.2646 392.523 45.1046 391.963 45.1046 391.227C45.1046 390.683 45.2006 389.772 45.3925 388.492C45.5845 387.18 45.7125 386.316 45.7765 385.9L46.3524 382.253C46.7684 379.469 46.9763 377.485 46.9763 376.301C46.9763 375.853 46.8164 375.534 46.4964 375.342C46.2084 375.15 45.8725 375.054 45.4885 375.054C45.2326 375.054 44.9766 375.086 44.7206 375.15L44.4807 373.758C46.4964 372.926 48.3201 372.51 49.9519 372.51C50.4318 372.51 50.7998 372.59 51.0558 372.75C51.3117 372.878 51.4397 373.15 51.4397 373.566C51.4397 373.822 51.2477 374.942 50.8638 376.925C50.2559 380.093 49.9359 381.757 49.9039 381.917C49.392 384.828 49.136 387.004 49.136 388.444C49.136 389.308 49.408 389.74 49.9519 389.74C50.4638 389.74 51.0398 389.532 51.6797 389.116L52.2556 390.075ZM68.5141 379.181C68.0341 379.181 67.6182 379.069 67.2662 378.845C66.9463 378.589 66.7863 378.285 66.7863 377.933C66.7863 377.517 66.8983 377.117 67.1223 376.733C67.3142 376.285 67.4102 375.901 67.4102 375.582C67.4102 374.974 67.1383 374.494 66.5943 374.142C66.0824 373.79 65.3625 373.614 64.4346 373.614C63.1548 373.614 62.099 373.966 61.2671 374.67C60.4672 375.342 60.0672 376.173 60.0672 377.165C60.0992 378.093 60.4672 378.861 61.1711 379.469C61.907 380.077 63.0108 380.749 64.4826 381.485C66.2104 382.349 67.5222 383.18 68.4181 383.98C69.3139 384.78 69.7619 385.836 69.7619 387.148C69.7619 389.132 68.93 390.683 67.2662 391.803C65.6025 392.891 63.5548 393.435 61.1231 393.435C59.0114 393.435 57.3156 393.019 56.0358 392.187C54.788 391.355 54.1641 390.315 54.1641 389.068C54.1641 388.268 54.388 387.628 54.836 387.148C55.3159 386.636 55.9238 386.38 56.6597 386.38C57.1716 386.38 57.6036 386.508 57.9555 386.764C58.3395 386.988 58.5315 387.276 58.5315 387.628C58.5315 387.98 58.4035 388.412 58.1475 388.924C57.9235 389.532 57.8116 389.947 57.8116 390.171C57.8116 390.779 58.0995 391.259 58.6754 391.611C59.2514 391.963 60.1152 392.139 61.2671 392.139C62.5469 392.139 63.6347 391.851 64.5306 391.275C65.4585 390.667 65.9224 389.772 65.9224 388.588C65.8904 387.724 65.5225 387.02 64.8186 386.476C64.1467 385.9 63.1068 385.276 61.699 384.604C59.9393 383.74 58.5954 382.892 57.6676 382.061C56.7397 381.229 56.2758 380.093 56.2758 378.653C56.2758 377.469 56.6437 376.397 57.3796 375.438C58.1475 374.446 59.1554 373.678 60.4032 373.134C61.683 372.59 63.0428 372.318 64.4826 372.318C66.4024 372.318 67.9701 372.734 69.186 373.566C70.4338 374.398 71.0577 375.406 71.0577 376.589C71.0577 377.357 70.8177 377.981 70.3378 378.461C69.8899 378.941 69.282 379.181 68.5141 379.181ZM102.555 368.718C103.259 368.718 103.755 368.91 104.043 369.294C104.363 369.646 104.523 370.062 104.523 370.542C104.523 371.022 104.331 371.486 103.947 371.934C103.595 372.382 103.163 372.606 102.651 372.606C102.267 372.606 101.979 372.558 101.787 372.462C101.627 372.334 101.467 372.142 101.307 371.886C101.147 371.63 100.955 371.502 100.731 371.502C100.443 371.502 99.9795 371.662 99.3396 371.982C98.6997 372.27 98.1398 372.638 97.6598 373.086C99.2916 374.014 100.108 375.534 100.108 377.645C100.108 379.245 99.6436 380.749 98.7157 382.157C97.8198 383.532 96.572 384.636 94.9722 385.468C93.4044 386.3 91.6927 386.716 89.8369 386.716C88.8771 386.716 88.0132 386.588 87.2453 386.332C86.6054 387.1 86.2854 387.692 86.2854 388.108C86.2854 388.652 86.6054 389.084 87.2453 389.404C87.8852 389.724 88.8931 390.075 90.2689 390.459C90.5568 390.555 90.8928 390.667 91.2767 390.795C91.6607 390.891 92.0766 391.019 92.5246 391.179C94.2843 391.787 95.6281 392.315 96.556 392.763C97.4839 393.179 98.2838 393.803 98.9557 394.635C99.6596 395.467 100.012 396.539 100.012 397.85C100.012 400.058 98.8597 401.754 96.556 402.938C94.2523 404.122 91.3887 404.713 87.9652 404.713C82.7819 404.713 80.1903 403.034 80.1903 399.674C80.1903 398.298 80.7342 397.035 81.8221 395.883C82.9099 394.731 84.3337 393.707 86.0935 392.811C85.1336 392.395 84.3977 391.931 83.8858 391.419C83.3738 390.875 83.1179 390.251 83.1179 389.548C83.1179 388.876 83.3419 388.284 83.7898 387.772C84.2697 387.228 84.9416 386.668 85.8055 386.092L86.1415 385.852C84.6377 384.956 83.8858 383.468 83.8858 381.389C83.8858 379.789 84.3337 378.301 85.2296 376.925C86.1255 375.518 87.3573 374.398 88.9251 373.566C90.4929 372.734 92.2046 372.318 94.0604 372.318C94.9562 372.318 95.8201 372.43 96.652 372.654C97.6119 371.598 98.6837 370.686 99.8675 369.918C101.051 369.118 101.947 368.718 102.555 368.718ZM95.2122 381.917C95.4682 381.277 95.6601 380.493 95.7881 379.565C95.9161 378.605 95.9801 377.725 95.9801 376.925C95.9801 375.869 95.7401 375.054 95.2602 374.478C94.8122 373.902 94.0923 373.614 93.1005 373.614C92.0766 373.614 91.2128 373.902 90.5088 374.478C89.8049 375.022 89.229 375.901 88.7811 377.117C88.5251 377.757 88.3332 378.557 88.2052 379.517C88.0772 380.445 88.0132 381.309 88.0132 382.109C88.0132 383.164 88.2372 383.98 88.6851 384.556C89.165 385.132 89.9009 385.42 90.8928 385.42C91.9167 385.42 92.7805 385.148 93.4844 384.604C94.1883 384.028 94.7643 383.132 95.2122 381.917ZM96.7 398.954C96.7 397.77 96.1721 396.843 95.1162 396.171C94.0604 395.499 92.5566 394.859 90.6048 394.251L87.6772 393.387C86.3654 393.899 85.1976 394.699 84.1737 395.787C83.1819 396.907 82.6859 398.17 82.6859 399.578C82.6859 402.17 84.4937 403.466 88.1092 403.466C90.5088 403.466 92.5406 403.05 94.2043 402.218C95.8681 401.386 96.7 400.298 96.7 398.954ZM121.164 377.021C121.164 378.141 120.716 379.213 119.82 380.237C118.924 381.261 117.484 382.141 115.501 382.876C113.549 383.58 111.053 384.044 108.014 384.268C107.982 384.556 107.966 384.988 107.966 385.564C107.966 387.164 108.302 388.444 108.974 389.404C109.677 390.331 110.573 390.795 111.661 390.795C113.101 390.795 115.213 389.916 117.996 388.156L119.052 388.924C117.772 390.235 116.38 391.307 114.877 392.139C113.405 392.971 111.933 393.387 110.461 393.387C108.51 393.387 106.894 392.699 105.614 391.323C104.334 389.947 103.694 388.14 103.694 385.9C103.694 383.756 104.222 381.629 105.278 379.517C106.366 377.405 107.79 375.677 109.549 374.334C111.309 372.99 113.165 372.318 115.117 372.318C116.844 372.318 118.284 372.782 119.436 373.71C120.588 374.606 121.164 375.709 121.164 377.021ZM115.021 373.758C112.909 373.758 111.165 375.054 109.789 377.645C108.958 379.277 108.43 380.973 108.206 382.733C111.245 382.509 113.597 381.853 115.261 380.765C116.924 379.645 117.756 378.301 117.756 376.733C117.756 375.901 117.516 375.198 117.036 374.622C116.588 374.046 115.917 373.758 115.021 373.758ZM130.11 380.765C129.439 384.732 129.103 387.34 129.103 388.588C129.103 389.868 129.551 390.507 130.446 390.507C131.438 390.507 132.718 389.724 134.286 388.156L135.342 388.924C134.286 390.331 133.198 391.435 132.078 392.235C130.958 393.003 129.71 393.387 128.335 393.387C127.151 393.387 126.287 393.099 125.743 392.523C125.199 391.947 124.927 391.179 124.927 390.219C124.927 389.452 125.199 387.388 125.743 384.028L126.031 382.109L127.279 374.286H123.679L124.975 372.798H127.519L128.335 367.807L132.654 367.039L131.55 372.798H136.686V373.518L135.294 374.286H131.262L130.11 380.765ZM145.577 380.765C144.905 384.732 144.569 387.34 144.569 388.588C144.569 389.868 145.017 390.507 145.913 390.507C146.905 390.507 148.185 389.724 149.752 388.156L150.808 388.924C149.752 390.331 148.665 391.435 147.545 392.235C146.425 393.003 145.177 393.387 143.801 393.387C142.617 393.387 141.754 393.099 141.21 392.523C140.666 391.947 140.394 391.179 140.394 390.219C140.394 389.452 140.666 387.388 141.21 384.028L141.498 382.109L142.745 374.286H139.146L140.442 372.798H142.985L143.801 367.807L148.121 367.039L147.017 372.798H152.152V373.518L150.76 374.286H146.729L145.577 380.765ZM161.092 362.095C161.795 362.095 162.339 362.271 162.723 362.623C163.139 362.975 163.347 363.455 163.347 364.063C163.347 364.863 163.075 365.503 162.531 365.983C161.987 366.431 161.284 366.655 160.42 366.655C159.748 366.655 159.188 366.479 158.74 366.127C158.324 365.775 158.116 365.295 158.116 364.687C158.116 363.919 158.404 363.295 158.98 362.815C159.556 362.335 160.26 362.095 161.092 362.095ZM162.771 390.075C161.747 391.131 160.772 391.963 159.844 392.571C158.948 393.147 158.148 393.435 157.444 393.435C156.868 393.435 156.42 393.259 156.1 392.907C155.78 392.523 155.62 391.963 155.62 391.227C155.62 390.683 155.716 389.772 155.908 388.492C156.1 387.18 156.228 386.316 156.292 385.9L156.868 382.253C157.284 379.469 157.492 377.485 157.492 376.301C157.492 375.853 157.332 375.534 157.012 375.342C156.724 375.15 156.388 375.054 156.004 375.054C155.748 375.054 155.492 375.086 155.236 375.15L154.996 373.758C157.012 372.926 158.836 372.51 160.468 372.51C160.948 372.51 161.316 372.59 161.572 372.75C161.827 372.878 161.955 373.15 161.955 373.566C161.955 373.822 161.763 374.942 161.38 376.925C160.772 380.093 160.452 381.757 160.42 381.917C159.908 384.828 159.652 387.004 159.652 388.444C159.652 389.308 159.924 389.74 160.468 389.74C160.98 389.74 161.556 389.532 162.195 389.116L162.771 390.075ZM187.621 390.075C186.629 391.099 185.605 391.915 184.549 392.523C183.525 393.131 182.661 393.435 181.957 393.435C181.509 393.435 181.142 393.243 180.854 392.859C180.566 392.475 180.422 391.947 180.422 391.275C180.422 390.731 180.534 389.868 180.758 388.684C180.982 387.5 181.222 386.268 181.477 384.988C182.309 381.213 182.725 378.685 182.725 377.405C182.725 376.669 182.533 376.077 182.149 375.63C181.797 375.182 181.302 374.958 180.662 374.958C179.702 374.958 178.63 375.614 177.446 376.925C176.262 378.205 175.158 379.821 174.135 381.773C173.111 383.724 172.359 385.628 171.879 387.484L171.207 392.955H167.463C167.495 392.731 167.575 392.283 167.703 391.611C168.343 387.772 168.839 384.62 169.191 382.157C169.543 379.661 169.719 377.805 169.719 376.589C169.719 375.566 169.255 375.054 168.327 375.054C168.071 375.054 167.815 375.086 167.559 375.15L167.319 373.758C168.247 373.374 169.095 373.07 169.863 372.846C170.663 372.622 171.463 372.51 172.263 372.51C173.447 372.51 174.039 372.814 174.039 373.422C174.039 373.806 173.799 375.374 173.319 378.125C172.839 380.909 172.599 382.301 172.599 382.301C173.751 379.517 175.158 377.165 176.822 375.246C178.486 373.294 180.342 372.318 182.389 372.318C183.701 372.318 184.741 372.718 185.509 373.518C186.277 374.318 186.661 375.358 186.661 376.637C186.661 377.341 186.549 378.221 186.325 379.277C186.133 380.301 185.925 381.309 185.701 382.301C185.477 383.26 185.333 383.884 185.269 384.172C184.661 386.668 184.357 388.156 184.357 388.636C184.357 388.892 184.421 389.148 184.549 389.404C184.677 389.628 184.917 389.74 185.269 389.74C185.813 389.74 186.405 389.532 187.045 389.116L187.621 390.075ZM209.837 368.718C210.541 368.718 211.037 368.91 211.325 369.294C211.645 369.646 211.805 370.062 211.805 370.542C211.805 371.022 211.613 371.486 211.229 371.934C210.877 372.382 210.445 372.606 209.933 372.606C209.549 372.606 209.261 372.558 209.069 372.462C208.909 372.334 208.749 372.142 208.589 371.886C208.429 371.63 208.237 371.502 208.013 371.502C207.725 371.502 207.261 371.662 206.621 371.982C205.982 372.27 205.422 372.638 204.942 373.086C206.573 374.014 207.389 375.534 207.389 377.645C207.389 379.245 206.925 380.749 205.998 382.157C205.102 383.532 203.854 384.636 202.254 385.468C200.686 386.3 198.975 386.716 197.119 386.716C196.159 386.716 195.295 386.588 194.527 386.332C193.887 387.1 193.567 387.692 193.567 388.108C193.567 388.652 193.887 389.084 194.527 389.404C195.167 389.724 196.175 390.075 197.551 390.459C197.839 390.555 198.175 390.667 198.559 390.795C198.943 390.891 199.358 391.019 199.806 391.179C201.566 391.787 202.91 392.315 203.838 392.763C204.766 393.179 205.566 393.803 206.238 394.635C206.941 395.467 207.293 396.539 207.293 397.85C207.293 400.058 206.142 401.754 203.838 402.938C201.534 404.122 198.671 404.713 195.247 404.713C190.064 404.713 187.472 403.034 187.472 399.674C187.472 398.298 188.016 397.035 189.104 395.883C190.192 394.731 191.616 393.707 193.375 392.811C192.415 392.395 191.68 391.931 191.168 391.419C190.656 390.875 190.4 390.251 190.4 389.548C190.4 388.876 190.624 388.284 191.072 387.772C191.552 387.228 192.223 386.668 193.087 386.092L193.423 385.852C191.92 384.956 191.168 383.468 191.168 381.389C191.168 379.789 191.616 378.301 192.511 376.925C193.407 375.518 194.639 374.398 196.207 373.566C197.775 372.734 199.486 372.318 201.342 372.318C202.238 372.318 203.102 372.43 203.934 372.654C204.894 371.598 205.966 370.686 207.149 369.918C208.333 369.118 209.229 368.718 209.837 368.718ZM202.494 381.917C202.75 381.277 202.942 380.493 203.07 379.565C203.198 378.605 203.262 377.725 203.262 376.925C203.262 375.869 203.022 375.054 202.542 374.478C202.094 373.902 201.374 373.614 200.382 373.614C199.358 373.614 198.495 373.902 197.791 374.478C197.087 375.022 196.511 375.901 196.063 377.117C195.807 377.757 195.615 378.557 195.487 379.517C195.359 380.445 195.295 381.309 195.295 382.109C195.295 383.164 195.519 383.98 195.967 384.556C196.447 385.132 197.183 385.42 198.175 385.42C199.198 385.42 200.062 385.148 200.766 384.604C201.47 384.028 202.046 383.132 202.494 381.917ZM203.982 398.954C203.982 397.77 203.454 396.843 202.398 396.171C201.342 395.499 199.838 394.859 197.887 394.251L194.959 393.387C193.647 393.899 192.479 394.699 191.456 395.787C190.464 396.907 189.968 398.17 189.968 399.578C189.968 402.17 191.776 403.466 195.391 403.466C197.791 403.466 199.822 403.05 201.486 402.218C203.15 401.386 203.982 400.298 203.982 398.954ZM255.213 390.075C254.221 391.099 253.197 391.915 252.141 392.523C251.117 393.131 250.253 393.435 249.55 393.435C249.038 393.435 248.654 393.243 248.398 392.859C248.142 392.475 248.014 391.947 248.014 391.275C248.014 390.731 248.126 389.868 248.35 388.684C248.574 387.5 248.814 386.268 249.07 384.988C249.902 381.213 250.317 378.685 250.317 377.405C250.317 376.669 250.125 376.077 249.742 375.63C249.39 375.182 248.894 374.958 248.254 374.958C247.294 374.958 246.238 375.614 245.086 376.925C243.934 378.205 242.863 379.837 241.871 381.821C240.911 383.772 240.207 385.676 239.759 387.532L239.087 392.955H235.344C236.015 388.956 236.543 385.66 236.927 383.068C237.343 380.445 237.551 378.493 237.551 377.213C237.551 376.509 237.391 375.965 237.071 375.582C236.783 375.166 236.367 374.958 235.823 374.958C234.896 374.958 233.856 375.566 232.704 376.781C231.584 377.965 230.512 379.485 229.488 381.341C228.497 383.196 227.729 385.036 227.185 386.86V386.956L226.465 392.955H222.721C222.753 392.731 222.833 392.283 222.961 391.611C223.601 387.772 224.097 384.62 224.449 382.157C224.801 379.661 224.977 377.805 224.977 376.589C224.977 375.566 224.513 375.054 223.585 375.054C223.329 375.054 223.073 375.086 222.817 375.15L222.577 373.758C223.505 373.374 224.353 373.07 225.121 372.846C225.921 372.622 226.721 372.51 227.521 372.51C228.704 372.51 229.296 372.814 229.296 373.422C229.296 373.774 229.056 375.246 228.577 377.837C228.481 378.573 228.369 379.277 228.241 379.949C228.113 380.621 228.001 381.277 227.905 381.917C229.088 379.197 230.48 376.925 232.08 375.102C233.712 373.246 235.536 372.318 237.551 372.318C238.671 372.318 239.599 372.718 240.335 373.518C241.071 374.318 241.439 375.358 241.439 376.637C241.439 377.597 241.247 379.037 240.863 380.957C243.582 375.198 246.622 372.318 249.982 372.318C251.293 372.318 252.333 372.718 253.101 373.518C253.869 374.318 254.253 375.358 254.253 376.637C254.253 377.341 254.141 378.221 253.917 379.277C253.725 380.301 253.517 381.309 253.293 382.301C253.069 383.26 252.925 383.884 252.861 384.172C252.253 386.668 251.949 388.156 251.949 388.636C251.949 388.892 252.013 389.148 252.141 389.404C252.269 389.628 252.509 389.74 252.861 389.74C253.405 389.74 253.997 389.532 254.637 389.116L255.213 390.075ZM275.502 389.74C276.077 389.74 276.685 389.532 277.325 389.116L277.901 390.075C276.941 391.227 275.917 392.075 274.83 392.619C273.774 393.163 272.846 393.435 272.046 393.435C271.598 393.435 271.294 393.259 271.134 392.907C270.974 392.555 270.894 391.995 270.894 391.227C270.894 390.299 271.23 387.884 271.902 383.98C270.078 387.436 268.447 389.884 267.007 391.323C265.567 392.731 264.079 393.435 262.543 393.435C261.136 393.435 260.048 392.923 259.28 391.899C258.512 390.843 258.128 389.404 258.128 387.58C258.128 385.34 258.672 383.036 259.76 380.669C260.88 378.269 262.351 376.285 264.175 374.718C266.031 373.118 267.967 372.318 269.982 372.318C270.75 372.318 271.454 372.478 272.094 372.798C272.766 373.118 273.31 373.55 273.726 374.094L274.014 373.038L278.045 372.366L276.893 377.117C276.317 379.677 275.838 382.077 275.454 384.316C275.07 386.556 274.878 388.092 274.878 388.924C274.878 389.468 275.086 389.74 275.502 389.74ZM264.271 390.795C265.199 390.795 266.367 389.932 267.775 388.204C269.214 386.476 270.462 384.46 271.518 382.157C272.574 379.853 273.102 377.917 273.102 376.349C273.102 375.614 272.814 375.006 272.238 374.526C271.662 374.014 270.942 373.758 270.078 373.758C268.351 373.758 266.879 374.526 265.663 376.061C264.479 377.565 263.615 379.485 263.071 381.821C262.623 383.484 262.399 385.228 262.399 387.052C262.399 388.268 262.575 389.196 262.927 389.836C263.279 390.475 263.727 390.795 264.271 390.795ZM293.874 372.318C294.834 372.318 295.618 372.67 296.226 373.374C296.834 374.046 297.138 374.846 297.138 375.773C297.138 376.509 296.93 377.181 296.514 377.789C296.098 378.365 295.474 378.653 294.642 378.653C294.13 378.653 293.73 378.541 293.442 378.317C293.154 378.061 293.01 377.725 293.01 377.309C293.01 377.021 293.106 376.701 293.298 376.349C293.49 375.965 293.586 375.693 293.586 375.534C293.586 375.31 293.506 375.118 293.346 374.958C293.186 374.798 292.978 374.718 292.723 374.718C291.987 374.718 291.155 375.438 290.227 376.877C289.299 378.285 288.435 380.061 287.635 382.205C286.867 384.316 286.291 386.364 285.907 388.348L285.332 392.955H281.588C281.62 392.731 281.7 392.283 281.828 391.611C282.468 387.772 282.964 384.62 283.316 382.157C283.668 379.661 283.844 377.805 283.844 376.589C283.844 375.566 283.38 375.054 282.452 375.054C282.196 375.054 281.94 375.086 281.684 375.15L281.444 373.758C282.372 373.374 283.22 373.07 283.988 372.846C284.788 372.622 285.588 372.51 286.387 372.51C287.571 372.51 288.163 372.814 288.163 373.422C288.163 373.934 287.907 375.502 287.395 378.125L286.963 380.717C287.923 378.253 288.963 376.237 290.083 374.67C291.203 373.102 292.467 372.318 293.874 372.318ZM311.544 372.318C312.504 372.318 313.288 372.67 313.895 373.374C314.503 374.046 314.807 374.846 314.807 375.773C314.807 376.509 314.599 377.181 314.183 377.789C313.767 378.365 313.144 378.653 312.312 378.653C311.8 378.653 311.4 378.541 311.112 378.317C310.824 378.061 310.68 377.725 310.68 377.309C310.68 377.021 310.776 376.701 310.968 376.349C311.16 375.965 311.256 375.693 311.256 375.534C311.256 375.31 311.176 375.118 311.016 374.958C310.856 374.798 310.648 374.718 310.392 374.718C309.656 374.718 308.824 375.438 307.896 376.877C306.968 378.285 306.105 380.061 305.305 382.205C304.537 384.316 303.961 386.364 303.577 388.348L303.001 392.955H299.257C299.289 392.731 299.369 392.283 299.497 391.611C300.137 387.772 300.633 384.62 300.985 382.157C301.337 379.661 301.513 377.805 301.513 376.589C301.513 375.566 301.049 375.054 300.121 375.054C299.865 375.054 299.609 375.086 299.353 375.15L299.113 373.758C300.041 373.374 300.889 373.07 301.657 372.846C302.457 372.622 303.257 372.51 304.057 372.51C305.241 372.51 305.833 372.814 305.833 373.422C305.833 373.934 305.577 375.502 305.065 378.125L304.633 380.717C305.593 378.253 306.632 376.237 307.752 374.67C308.872 373.102 310.136 372.318 311.544 372.318ZM323.022 362.095C323.726 362.095 324.27 362.271 324.654 362.623C325.07 362.975 325.278 363.455 325.278 364.063C325.278 364.863 325.006 365.503 324.462 365.983C323.918 366.431 323.214 366.655 322.35 366.655C321.678 366.655 321.118 366.479 320.67 366.127C320.254 365.775 320.046 365.295 320.046 364.687C320.046 363.919 320.334 363.295 320.91 362.815C321.486 362.335 322.19 362.095 323.022 362.095ZM324.702 390.075C323.678 391.131 322.702 391.963 321.774 392.571C320.878 393.147 320.078 393.435 319.375 393.435C318.799 393.435 318.351 393.259 318.031 392.907C317.711 392.523 317.551 391.963 317.551 391.227C317.551 390.683 317.647 389.772 317.839 388.492C318.031 387.18 318.159 386.316 318.223 385.9L318.799 382.253C319.215 379.469 319.423 377.485 319.423 376.301C319.423 375.853 319.263 375.534 318.943 375.342C318.655 375.15 318.319 375.054 317.935 375.054C317.679 375.054 317.423 375.086 317.167 375.15L316.927 373.758C318.943 372.926 320.766 372.51 322.398 372.51C322.878 372.51 323.246 372.59 323.502 372.75C323.758 372.878 323.886 373.15 323.886 373.566C323.886 373.822 323.694 374.942 323.31 376.925C322.702 380.093 322.382 381.757 322.35 381.917C321.838 384.828 321.582 387.004 321.582 388.444C321.582 389.308 321.854 389.74 322.398 389.74C322.91 389.74 323.486 389.532 324.126 389.116L324.702 390.075ZM345.664 377.021C345.664 378.141 345.216 379.213 344.32 380.237C343.424 381.261 341.984 382.141 340 382.876C338.049 383.58 335.553 384.044 332.513 384.268C332.481 384.556 332.465 384.988 332.465 385.564C332.465 387.164 332.801 388.444 333.473 389.404C334.177 390.331 335.073 390.795 336.161 390.795C337.601 390.795 339.712 389.916 342.496 388.156L343.552 388.924C342.272 390.235 340.88 391.307 339.376 392.139C337.905 392.971 336.433 393.387 334.961 393.387C333.009 393.387 331.394 392.699 330.114 391.323C328.834 389.947 328.194 388.14 328.194 385.9C328.194 383.756 328.722 381.629 329.778 379.517C330.866 377.405 332.289 375.677 334.049 374.334C335.809 372.99 337.665 372.318 339.616 372.318C341.344 372.318 342.784 372.782 343.936 373.71C345.088 374.606 345.664 375.709 345.664 377.021ZM339.52 373.758C337.409 373.758 335.665 375.054 334.289 377.645C333.457 379.277 332.929 380.973 332.705 382.733C335.745 382.509 338.097 381.853 339.76 380.765C341.424 379.645 342.256 378.301 342.256 376.733C342.256 375.901 342.016 375.198 341.536 374.622C341.088 374.046 340.416 373.758 339.52 373.758ZM368.672 358.976C368.672 359.456 368.56 360.368 368.336 361.711L368.048 363.343C367.088 369.006 366.289 374.062 365.649 378.509C365.009 382.956 364.689 386.268 364.689 388.444C364.689 389.308 364.961 389.74 365.505 389.74C366.049 389.74 366.641 389.532 367.28 389.116L367.856 390.075C366.769 391.227 365.697 392.075 364.641 392.619C363.617 393.163 362.737 393.435 362.001 393.435C361.457 393.435 361.073 393.227 360.849 392.811C360.657 392.395 360.561 391.819 360.561 391.083C360.561 389.132 360.801 386.78 361.281 384.028C359.873 387.26 358.37 389.644 356.77 391.179C355.17 392.683 353.586 393.435 352.019 393.435C350.547 393.435 349.379 392.875 348.515 391.755C347.651 390.603 347.219 389.084 347.219 387.196C347.219 384.924 347.715 382.637 348.707 380.333C349.699 377.997 351.043 376.077 352.738 374.574C354.434 373.07 356.274 372.318 358.258 372.318C359.25 372.318 360.129 372.494 360.897 372.846C361.665 373.198 362.273 373.646 362.721 374.19C363.009 372.622 363.329 370.238 363.681 367.039C364.065 363.839 364.257 362.063 364.257 361.711C364.257 360.944 363.697 360.56 362.577 360.56C362.097 360.56 361.713 360.592 361.425 360.656L361.137 359.456C362.961 358.432 364.865 357.92 366.849 357.92C367.488 357.92 367.952 358 368.24 358.16C368.528 358.288 368.672 358.56 368.672 358.976ZM353.746 390.795C354.642 390.795 355.762 389.995 357.106 388.396C358.45 386.796 359.618 384.924 360.609 382.781C361.633 380.637 362.145 378.813 362.145 377.309C362.145 375.965 361.745 375.038 360.945 374.526C360.177 374.014 359.346 373.758 358.45 373.758C356.882 373.758 355.554 374.478 354.466 375.917C353.378 377.325 352.579 379.085 352.067 381.197C351.651 382.86 351.443 384.476 351.443 386.044C351.443 387.516 351.667 388.684 352.115 389.548C352.563 390.379 353.106 390.795 353.746 390.795ZM378.539 362.383C379.243 362.383 379.771 362.559 380.123 362.911C380.507 363.231 380.699 363.695 380.699 364.303C380.699 364.719 380.619 365.263 380.459 365.935C380.331 366.575 380.171 367.263 379.979 367.999L378.779 372.414C377.627 376.765 376.907 380.141 376.619 382.541C376.587 383.052 376.379 383.308 375.995 383.308C375.643 383.308 375.467 383.164 375.467 382.876C375.499 382.429 375.563 381.501 375.659 380.093C375.787 378.685 375.867 377.597 375.899 376.829L375.851 372.414L375.803 367.999C375.771 366.783 375.803 365.695 375.899 364.735C375.995 363.999 376.267 363.423 376.715 363.007C377.195 362.591 377.803 362.383 378.539 362.383ZM371.964 390.939C371.964 390.107 372.316 389.404 373.02 388.828C373.724 388.22 374.556 387.916 375.515 387.916C376.283 387.916 376.907 388.156 377.387 388.636C377.899 389.116 378.155 389.708 378.155 390.411C378.155 391.211 377.787 391.915 377.051 392.523C376.347 393.131 375.563 393.435 374.7 393.435C373.964 393.435 373.324 393.195 372.78 392.715C372.236 392.235 371.964 391.643 371.964 390.939Z" fill="#202D58"/>
</svg>
