<svg width="422" height="513" viewBox="0 0 422 513" fill="none" xmlns="http://www.w3.org/2000/svg">
<path d="M230.737 131.977C230.737 137.24 229.491 142.088 226.998 146.52C224.781 150.675 221.596 154.277 217.441 157.324C213.285 160.094 208.438 162.31 202.897 163.972C197.357 165.357 191.54 166.05 185.446 166.05C174.365 166.05 162.592 163.834 150.126 159.401C149.018 163.557 148.464 168.681 148.464 174.776C148.464 182.809 149.434 189.596 151.373 195.136C163.285 190.427 174.919 188.072 186.277 188.072C196.803 188.072 205.114 190.15 211.208 194.305C217.302 198.46 220.349 204.832 220.349 213.419C220.349 221.729 217.025 228.239 210.377 232.948C203.728 237.381 195.695 239.597 186.277 239.597C168.548 239.597 154.42 232.671 143.894 218.821C124.503 234.887 114.807 256.771 114.807 284.473C114.807 295.276 116.469 305.387 119.793 314.806C123.395 323.947 128.658 331.842 135.583 338.49C142.786 345.139 151.511 350.402 161.761 354.28C172.01 358.158 184.061 360.097 197.911 360.097C214.532 360.097 228.521 356.358 239.879 348.878C251.513 341.122 260.932 330.873 268.134 318.13C275.613 305.387 281.015 290.983 284.339 274.916C287.94 258.572 290.157 241.674 290.988 224.222C280.461 219.79 271.597 217.574 264.394 217.574C259.962 217.574 255.668 218.544 251.513 220.483C247.635 222.422 245.696 225.469 245.696 229.624C248.743 229.624 251.929 231.425 255.253 235.026C258.854 238.627 260.655 243.198 260.655 248.738C260.655 254.278 259.131 258.434 256.084 261.204C253.037 263.974 249.297 265.359 244.865 265.359C239.602 265.359 234.892 263.281 230.737 259.126C226.582 254.971 224.504 249.569 224.504 242.921C224.504 237.104 225.751 231.702 228.244 226.716C231.014 221.452 234.477 216.882 238.632 213.003C243.064 209.125 247.912 206.078 253.175 203.862C258.716 201.646 264.394 200.538 270.212 200.538C281.846 200.538 296.389 205.94 313.841 216.743C331.293 227.547 347.221 232.948 361.626 232.948C373.26 232.948 382.956 230.04 390.712 224.222C398.746 218.405 402.762 209.125 402.762 196.383C402.762 185.579 399.992 176.438 394.452 168.958C389.189 161.202 381.432 157.324 371.183 157.324C363.15 157.324 356.64 159.678 351.653 164.388C346.667 169.097 344.174 175.191 344.174 182.67C344.174 185.441 344.313 187.241 344.59 188.072C349.022 184.471 354.839 182.67 362.041 182.67C372.291 182.67 377.416 187.518 377.416 197.214C377.416 201.923 375.754 206.078 372.429 209.679C369.105 213.28 364.258 215.081 357.886 215.081C350.13 215.081 343.066 212.449 336.695 207.186C330.323 201.923 327.138 194.305 327.138 184.333C327.138 171.867 331.293 161.756 339.603 154C348.191 146.243 358.302 142.365 369.936 142.365C376.862 142.365 383.51 143.889 389.881 146.936C396.253 149.706 401.654 153.584 406.087 158.57C410.796 163.557 414.535 169.374 417.306 176.022C420.076 182.393 421.461 189.18 421.461 196.383C421.461 214.111 416.059 227.824 405.255 237.519C394.452 247.215 381.155 252.062 365.366 252.062C351.792 252.062 333.232 245.829 309.686 233.364L306.362 231.702C306.085 253.309 303.592 273.115 298.882 291.121C294.45 309.127 287.663 324.64 278.522 337.659C269.658 350.402 258.439 360.374 244.865 367.577C231.291 374.779 215.363 378.38 197.08 378.38C180.736 378.38 166.055 376.026 153.035 371.316C140.292 366.607 129.489 360.236 120.624 352.203C111.76 343.892 104.973 334.197 100.264 323.116C95.5548 312.036 93.2002 300.124 93.2002 287.381C93.2002 270.761 96.8014 254.971 104.004 240.012C111.483 225.053 121.871 213.003 135.168 203.862C131.29 194.721 129.35 185.025 129.35 174.776C129.35 167.019 130.458 159.54 132.675 152.338C120.209 147.905 108.574 145.689 97.7709 145.689C86.1364 145.689 75.6099 147.074 66.1914 149.844C56.773 152.338 48.6011 156.216 41.6758 161.479C34.7504 166.742 29.3487 173.391 25.4705 181.424C21.8693 189.18 20.0687 198.183 20.0687 208.433C20.0687 215.635 21.4538 221.729 24.2239 226.716C27.2711 231.702 31.7033 234.195 37.5206 234.195H38.3516C35.3045 230.317 33.7809 225.885 33.7809 220.898C33.7809 215.081 35.5815 210.233 39.1826 206.355C42.7838 202.2 47.216 200.122 52.4793 200.122C57.7425 200.122 62.1747 202.2 65.7759 206.355C69.3771 210.233 71.1777 215.081 71.1777 220.898C71.1777 229.209 67.8535 236.273 61.2052 242.09C54.8339 247.63 47.3545 250.4 38.7671 250.4C27.9636 250.4 18.8222 246.661 11.3428 239.181C4.14048 231.702 0.539307 220.344 0.539307 205.109C0.539307 194.028 3.17093 183.779 8.43418 174.36C13.6974 164.942 20.7613 156.908 29.6257 150.26C38.4901 143.335 48.6011 137.933 59.9586 134.055C71.5932 130.176 83.7818 128.237 96.5244 128.237C108.713 128.237 123.118 131.285 139.738 137.379C152.758 116.603 170.902 106.215 194.171 106.215C205.529 106.215 214.393 108.708 220.765 113.694C227.413 118.68 230.737 124.775 230.737 131.977ZM213.701 132.808C213.701 124.775 208.022 120.758 196.665 120.758C179.213 120.758 165.916 128.376 156.775 143.612C168.132 147.213 177.689 149.013 185.446 149.013C204.282 149.013 213.701 143.612 213.701 132.808ZM184.199 204.278C175.335 204.278 166.886 206.078 158.852 209.679C165.224 217.99 174.365 222.145 186.277 222.145C189.878 222.145 193.756 221.314 197.911 219.652C202.343 217.713 204.559 215.358 204.559 212.588C203.451 207.048 196.665 204.278 184.199 204.278Z" fill="white" fill-opacity="0.4"/>
<path d="M116.246 142.795C116.21 142.795 115.549 143.437 114.264 144.723C112.978 145.973 111.264 147.901 109.122 150.508C106.979 153.079 104.497 156.346 101.676 160.31C98.891 164.238 95.9629 168.88 92.8919 174.237L90.8029 177.879C91.9813 177.593 93.1775 177.326 94.3917 177.076C95.6058 176.826 96.8377 176.594 98.0876 176.379L100.498 175.897C101.641 173.826 102.676 172.13 103.605 170.809C104.569 169.487 105.444 168.452 106.229 167.702C107.051 166.916 107.8 166.381 108.479 166.095C109.157 165.809 109.765 165.666 110.3 165.666C110.979 165.666 111.639 165.899 112.282 166.363C112.925 166.827 113.246 167.666 113.246 168.88C113.246 169.844 113.014 170.773 112.55 171.666C112.086 172.558 111.425 173.398 110.568 174.183C109.711 174.969 108.693 175.665 107.515 176.272C106.336 176.879 105.033 177.361 103.605 177.718C102.926 179.111 102.23 180.575 101.516 182.111C100.801 183.61 100.052 185.128 99.266 186.664C98.4804 188.199 97.6769 189.717 96.8556 191.216C96.0343 192.681 95.1773 194.073 94.2845 195.394L90.4815 191.806C90.8029 191.413 91.2849 190.788 91.9277 189.931C92.6062 189.074 93.3204 188.11 94.0703 187.038C94.8559 185.967 95.6236 184.842 96.3735 183.664C97.1234 182.45 97.7662 181.307 98.3018 180.236L99.0517 178.629C97.4091 178.986 95.7486 179.361 94.0703 179.754C92.4276 180.111 90.7315 180.522 88.9817 180.986C86.2321 185.699 83.536 189.984 80.8935 193.841C78.2868 197.662 75.5014 200.947 72.5376 203.697C69.5737 206.411 66.3242 208.5 62.7889 209.964C59.2537 211.464 55.1829 212.214 50.5764 212.214C47.5768 212.214 44.5415 211.785 41.4705 210.928C38.4352 210.107 35.6856 208.893 33.2216 207.286C30.7934 205.679 28.7937 203.715 27.2225 201.394C25.687 199.072 24.9192 196.43 24.9192 193.466C24.9192 191.145 25.3835 189.092 26.3119 187.306C27.2046 185.485 28.4366 183.967 30.0078 182.753C31.579 181.504 33.4002 180.575 35.4713 179.968C37.5782 179.325 39.7922 179.004 42.1133 179.004C44.0416 179.004 45.9699 179.236 47.8982 179.7C49.8622 180.164 51.7548 180.825 53.5759 181.682C55.3971 182.539 57.1112 183.593 58.7181 184.842C60.3607 186.056 61.8248 187.431 63.1103 188.967L61.0749 190.52C60.0036 189.449 58.8074 188.503 57.4861 187.681C56.1649 186.824 54.7543 186.11 53.2546 185.539C51.7548 184.932 50.2193 184.485 48.6481 184.2C47.0769 183.878 45.5235 183.718 43.988 183.718C42.3097 183.718 40.667 183.932 39.0601 184.36C37.4532 184.789 36.0248 185.485 34.775 186.449C33.5252 187.378 32.5075 188.592 31.7219 190.092C30.9363 191.556 30.5435 193.359 30.5435 195.502C30.5435 197.43 31.0255 199.233 31.9897 200.912C32.9538 202.59 34.2572 204.054 35.8998 205.304C37.5782 206.518 39.5243 207.482 41.7383 208.196C43.988 208.91 46.3805 209.267 48.9159 209.267C52.5225 209.267 55.7721 208.589 58.6645 207.232C61.557 205.911 64.2173 204.09 66.6455 201.769C69.1095 199.447 71.4127 196.734 73.5553 193.627C75.7336 190.484 77.894 187.146 80.0365 183.61C79.0367 183.932 78.0189 184.271 76.9834 184.628C75.9478 184.985 74.9122 185.36 73.8767 185.753L72.859 183.128C74.5016 182.593 76.0728 182.093 77.5726 181.629C79.0724 181.164 80.5722 180.7 82.072 180.236C84.1074 176.843 86.2142 173.38 88.3925 169.844C90.6065 166.274 93.0168 162.792 95.6236 159.399C98.2304 155.971 101.087 152.704 104.194 149.597C107.336 146.491 110.836 143.67 114.692 141.134L116.246 142.795ZM80.0901 171.933C76.8048 173.433 73.5374 174.522 70.2879 175.201C67.0383 175.879 63.9852 176.219 61.1285 176.219C57.8075 176.219 54.7722 175.772 52.0226 174.879C49.273 173.987 46.8983 172.737 44.8986 171.13C42.8989 169.523 41.3455 167.595 40.2385 165.345C39.1315 163.095 38.578 160.614 38.578 157.9C38.578 154.507 39.1494 151.49 40.2921 148.847C41.4705 146.205 43.0596 143.884 45.0593 141.884C47.059 139.849 49.4158 138.135 52.1297 136.742C54.8436 135.349 57.7539 134.207 60.8606 133.314C63.9673 132.421 67.199 131.778 70.5557 131.386C73.9124 130.993 77.2333 130.796 80.5186 130.796C84.3038 130.796 87.9818 131.028 91.5528 131.493C95.1237 131.957 98.5875 132.475 101.944 133.046C105.337 133.582 108.622 134.082 111.8 134.546C114.978 135.01 118.085 135.242 121.12 135.242C124.584 135.242 127.78 134.974 130.708 134.439C133.636 133.903 136.154 133.314 138.261 132.671C140.367 131.993 142.01 131.386 143.188 130.85C144.403 130.279 145.027 129.993 145.063 129.993L146.402 132.457C146.295 132.528 145.599 132.867 144.313 133.475C143.028 134.046 141.278 134.689 139.064 135.403C136.886 136.081 134.279 136.706 131.244 137.278C128.208 137.813 124.87 138.081 121.227 138.081C117.835 138.081 114.567 137.867 111.425 137.438C108.283 136.974 105.104 136.474 101.891 135.938C98.7125 135.403 95.4094 134.921 91.9813 134.492C88.5532 134.028 84.8573 133.796 80.8935 133.796C75.0372 133.796 69.8594 134.367 65.36 135.51C60.8963 136.617 57.1469 138.224 54.1116 140.331C51.112 142.402 48.8445 144.937 47.309 147.937C45.7735 150.901 45.0057 154.222 45.0057 157.9C45.0057 160.435 45.4878 162.649 46.4519 164.542C47.4518 166.434 48.773 168.005 50.4157 169.255C52.094 170.505 54.0045 171.451 56.147 172.094C58.3253 172.701 60.5928 173.005 62.9496 173.005C65.0208 173.005 67.0205 172.826 68.9488 172.469C70.8771 172.112 72.5733 171.719 74.0374 171.291C75.5014 170.826 76.6798 170.416 77.5726 170.059C78.4653 169.666 78.9295 169.47 78.9652 169.47L80.0901 171.933ZM109.765 168.452C109.157 168.452 108.461 169.023 107.676 170.166C106.926 171.273 106.086 172.737 105.158 174.558C106.265 174.13 107.158 173.683 107.836 173.219C108.515 172.755 109.05 172.291 109.443 171.826C109.836 171.362 110.104 170.898 110.247 170.434C110.389 169.969 110.461 169.523 110.461 169.095C110.461 168.845 110.389 168.684 110.247 168.612C110.104 168.505 109.943 168.452 109.765 168.452ZM153.848 170.594C153.383 171.523 152.723 172.737 151.866 174.237C151.044 175.736 150.152 177.397 149.188 179.218C148.223 181.004 147.241 182.878 146.242 184.842C145.277 186.806 144.385 188.735 143.563 190.627C142.778 192.484 142.117 194.252 141.581 195.93C141.082 197.573 140.832 198.965 140.832 200.108C140.832 201.251 141.046 202.001 141.474 202.358C141.939 202.679 142.528 202.84 143.242 202.84C144.278 202.84 145.331 202.536 146.402 201.929C147.509 201.322 148.58 200.537 149.616 199.572C150.687 198.608 151.723 197.519 152.723 196.305C153.723 195.091 154.651 193.877 155.508 192.663C156.401 191.413 157.204 190.234 157.918 189.127C158.633 187.985 159.24 187.021 159.74 186.235L161.668 187.735C161.061 188.877 160.347 190.109 159.525 191.431C158.704 192.752 157.793 194.091 156.794 195.448C155.829 196.769 154.776 198.055 153.633 199.305C152.491 200.554 151.277 201.661 149.991 202.626C148.741 203.59 147.42 204.357 146.027 204.929C144.635 205.5 143.206 205.786 141.742 205.786C139.6 205.786 138.028 205.143 137.029 203.858C136.029 202.572 135.529 200.912 135.529 198.876C135.529 198.733 135.529 198.43 135.529 197.966C135.564 197.466 135.618 197.073 135.689 196.787C133.904 199.037 132.19 200.894 130.547 202.358C128.94 203.822 127.369 204.982 125.834 205.839C124.334 206.696 122.87 207.286 121.441 207.607C120.049 207.964 118.71 208.143 117.424 208.143C116.067 208.143 114.782 207.911 113.568 207.446C112.389 207.018 111.354 206.375 110.461 205.518C109.532 204.661 108.818 203.608 108.318 202.358C107.783 201.108 107.515 199.662 107.515 198.019C107.515 195.984 107.979 193.663 108.907 191.056C109.8 188.413 111.407 185.574 113.728 182.539C115.692 179.932 117.728 177.736 119.835 175.951C121.977 174.165 124.066 172.737 126.101 171.666C128.173 170.559 130.137 169.773 131.994 169.309C133.85 168.845 135.511 168.612 136.975 168.612C140.26 168.612 142.742 169.166 144.42 170.273C146.099 171.344 147.116 173.005 147.474 175.254C148.188 174.362 148.938 173.469 149.723 172.576C150.509 171.683 151.312 170.773 152.134 169.844L153.848 170.594ZM137.403 190.949C137.868 190.199 138.439 189.252 139.118 188.11C139.796 186.931 140.51 185.735 141.26 184.521C142.01 183.271 142.742 182.075 143.456 180.932C144.17 179.789 144.795 178.825 145.331 178.04C145.331 177.718 145.277 177.201 145.17 176.486C145.099 175.772 144.867 175.058 144.474 174.344C144.081 173.594 143.456 172.951 142.599 172.416C141.742 171.88 140.546 171.612 139.01 171.612C137.903 171.612 136.654 171.791 135.261 172.148C133.904 172.469 132.44 173.04 130.869 173.862C129.333 174.647 127.744 175.701 126.101 177.022C124.459 178.343 122.816 179.986 121.174 181.95C118.71 184.914 116.799 187.895 115.442 190.895C114.121 193.859 113.46 196.537 113.46 198.93C113.46 200.965 113.925 202.536 114.853 203.643C115.782 204.75 117.103 205.304 118.817 205.304C120.781 205.304 122.62 204.875 124.334 204.018C126.048 203.126 127.655 201.983 129.155 200.59C130.654 199.197 132.083 197.662 133.44 195.984C134.797 194.27 136.118 192.591 137.403 190.949ZM193.592 187.735C193.056 188.52 192.414 189.592 191.664 190.949C190.95 192.27 190.11 193.716 189.146 195.287C188.182 196.823 187.111 198.394 185.932 200.001C184.79 201.608 183.522 203.054 182.129 204.34C180.772 205.625 179.29 206.679 177.684 207.5C176.077 208.321 174.363 208.732 172.541 208.732C171.542 208.732 170.595 208.571 169.703 208.25C168.81 207.964 168.024 207.5 167.346 206.857C166.667 206.214 166.132 205.429 165.739 204.5C165.346 203.536 165.15 202.411 165.15 201.126C165.15 199.376 165.489 197.555 166.167 195.662C166.882 193.734 167.703 191.877 168.631 190.092C169.56 188.306 170.488 186.681 171.417 185.217C172.345 183.718 173.024 182.521 173.452 181.629C173.881 180.736 174.095 179.968 174.095 179.325C174.095 178.861 173.934 178.45 173.613 178.093C173.327 177.736 172.952 177.397 172.488 177.076C172.059 176.718 171.595 176.361 171.095 176.004C170.631 175.611 170.238 175.147 169.917 174.612C169.024 176.04 168.113 177.486 167.185 178.95C166.364 180.2 165.471 181.611 164.507 183.182C163.543 184.717 162.614 186.235 161.722 187.735L159.793 186.235L171.256 168.291L172.809 169.095C172.738 169.309 172.613 169.648 172.434 170.112C172.291 170.576 172.22 171.076 172.22 171.612C172.22 172.005 172.274 172.398 172.381 172.79C172.524 173.148 172.791 173.487 173.184 173.808C174.613 175.094 175.737 176.094 176.559 176.808C177.38 177.486 177.969 178.04 178.326 178.468C178.719 178.861 178.951 179.2 179.023 179.486C179.13 179.736 179.183 180.075 179.183 180.504C179.183 180.932 179.112 181.45 178.969 182.057C178.826 182.664 178.576 183.396 178.219 184.253C177.898 185.11 177.434 186.128 176.827 187.306C176.255 188.449 175.523 189.788 174.63 191.324C174.095 192.252 173.559 193.198 173.024 194.162C172.524 195.091 172.059 196.037 171.631 197.001C171.238 197.966 170.917 198.93 170.667 199.894C170.417 200.858 170.292 201.786 170.292 202.679C170.292 203.358 170.381 203.911 170.56 204.34C170.774 204.732 171.042 205.036 171.363 205.25C171.684 205.464 172.024 205.607 172.381 205.679C172.774 205.75 173.148 205.786 173.506 205.786C174.684 205.786 175.845 205.447 176.987 204.768C178.166 204.054 179.308 203.143 180.415 202.036C181.558 200.929 182.647 199.68 183.683 198.287C184.754 196.859 185.772 195.412 186.736 193.948C187.7 192.484 188.593 191.091 189.414 189.77C190.235 188.413 190.967 187.235 191.61 186.235L193.592 187.735ZM215.66 158.703C215.66 159.417 215.482 160.167 215.125 160.953C214.768 161.703 214.303 162.381 213.732 162.988C213.196 163.595 212.589 164.095 211.911 164.488C211.232 164.881 210.554 165.077 209.875 165.077C209.268 165.077 208.804 164.863 208.483 164.434C208.161 163.97 208.001 163.417 208.001 162.774C208.001 162.203 208.108 161.524 208.322 160.739C208.536 159.953 208.858 159.221 209.286 158.542C209.715 157.828 210.233 157.221 210.84 156.721C211.447 156.221 212.143 155.971 212.929 155.971C213.679 155.971 214.321 156.257 214.857 156.828C215.393 157.4 215.66 158.025 215.66 158.703ZM205.644 170.594C205.18 171.523 204.519 172.755 203.662 174.29C202.841 175.79 201.948 177.451 200.984 179.272C200.02 181.057 199.038 182.95 198.038 184.949C197.038 186.913 196.127 188.842 195.306 190.734C194.52 192.591 193.878 194.341 193.378 195.984C192.878 197.626 192.628 199.019 192.628 200.162C192.628 201.197 192.842 201.911 193.271 202.304C193.699 202.661 194.306 202.84 195.092 202.84C196.556 202.84 197.984 202.358 199.377 201.394C200.77 200.429 202.144 199.18 203.501 197.644C204.894 196.073 206.251 194.287 207.572 192.288C208.893 190.288 210.215 188.27 211.536 186.235L213.464 187.735C212.429 189.592 211.25 191.574 209.929 193.68C208.644 195.787 207.197 197.751 205.59 199.572C203.983 201.358 202.216 202.84 200.288 204.018C198.359 205.197 196.252 205.786 193.967 205.786C191.824 205.786 190.182 205.143 189.039 203.858C187.896 202.572 187.325 200.912 187.325 198.876C187.325 196.484 187.879 193.984 188.986 191.377C190.093 188.77 191.467 186.199 193.11 183.664C194.788 181.093 196.592 178.629 198.52 176.272C200.484 173.915 202.287 171.773 203.93 169.844L205.644 170.594ZM271.26 135.831C270.867 136.403 270.224 137.349 269.331 138.67C268.439 139.991 267.403 141.563 266.225 143.384C265.046 145.205 263.761 147.223 262.368 149.437C261.011 151.651 259.636 153.936 258.244 156.293C256.887 158.65 255.548 161.042 254.226 163.47C252.941 165.863 251.798 168.166 250.798 170.38C249.227 173.808 247.924 176.879 246.888 179.593C245.888 182.271 245.085 184.664 244.478 186.771C243.906 188.877 243.496 190.717 243.246 192.288C243.032 193.823 242.924 195.144 242.924 196.251C242.924 198.287 243.228 199.697 243.835 200.483C244.478 201.269 245.335 201.661 246.406 201.661C247.513 201.661 248.566 201.376 249.566 200.804C250.602 200.233 251.584 199.501 252.512 198.608C253.477 197.716 254.369 196.698 255.191 195.555C256.048 194.412 256.833 193.27 257.547 192.127C258.297 190.984 258.976 189.895 259.583 188.86C260.19 187.824 260.726 186.949 261.19 186.235L263.118 187.735C262.725 188.378 262.225 189.235 261.618 190.306C261.047 191.341 260.386 192.484 259.636 193.734C258.886 194.984 258.029 196.251 257.065 197.537C256.101 198.787 255.03 199.93 253.851 200.965C252.709 202.001 251.423 202.858 249.995 203.536C248.602 204.179 247.085 204.5 245.442 204.5C244.656 204.5 243.817 204.393 242.924 204.179C242.067 203.965 241.264 203.59 240.514 203.054C239.764 202.518 239.104 201.786 238.532 200.858C237.961 199.894 237.586 198.68 237.407 197.216C234.729 200.108 232.122 202.304 229.587 203.804C227.052 205.268 224.659 206 222.409 206C221.267 206 219.999 205.804 218.606 205.411C217.249 205.018 215.964 204.34 214.75 203.375C213.536 202.411 212.518 201.144 211.697 199.572C210.875 197.966 210.465 195.984 210.465 193.627C210.465 190.984 210.875 188.467 211.697 186.074C212.518 183.682 213.625 181.468 215.018 179.432C216.41 177.361 217.999 175.504 219.785 173.862C221.606 172.183 223.499 170.773 225.463 169.63C227.427 168.452 229.391 167.541 231.355 166.898C233.354 166.256 235.229 165.934 236.979 165.934C239.3 165.934 241.121 166.22 242.442 166.791C243.764 167.363 244.763 167.934 245.442 168.505C245.942 167.505 246.62 166.238 247.477 164.702C248.334 163.131 249.334 161.399 250.477 159.507C251.62 157.578 252.887 155.543 254.28 153.4C255.673 151.222 257.155 149.044 258.726 146.866C260.297 144.652 261.94 142.473 263.654 140.331C265.403 138.188 267.171 136.188 268.956 134.332L271.26 135.831ZM237.354 193.198C237.532 190.556 238.139 187.449 239.175 183.878C240.246 180.272 241.871 176.129 244.049 171.451C243.549 170.701 242.835 170.13 241.907 169.737C241.014 169.309 239.996 169.095 238.854 169.095C237.104 169.095 235.318 169.452 233.497 170.166C231.712 170.88 229.98 171.844 228.301 173.058C226.659 174.272 225.105 175.719 223.641 177.397C222.177 179.04 220.892 180.807 219.785 182.7C218.714 184.592 217.857 186.574 217.214 188.645C216.607 190.681 216.303 192.698 216.303 194.698C216.303 197.376 216.857 199.465 217.964 200.965C219.106 202.465 220.624 203.215 222.517 203.215C223.409 203.215 224.391 203.036 225.463 202.679C226.534 202.322 227.694 201.751 228.944 200.965C230.23 200.144 231.569 199.108 232.962 197.858C234.354 196.573 235.818 195.019 237.354 193.198ZM303.827 170.594C303.362 171.523 302.702 172.737 301.845 174.237C301.023 175.736 300.131 177.397 299.167 179.218C298.202 181.004 297.22 182.878 296.221 184.842C295.256 186.806 294.364 188.735 293.542 190.627C292.757 192.484 292.096 194.252 291.56 195.93C291.061 197.573 290.811 198.965 290.811 200.108C290.811 201.251 291.025 202.001 291.453 202.358C291.918 202.679 292.507 202.84 293.221 202.84C294.257 202.84 295.31 202.536 296.381 201.929C297.488 201.322 298.559 200.537 299.595 199.572C300.666 198.608 301.702 197.519 302.702 196.305C303.702 195.091 304.63 193.877 305.487 192.663C306.38 191.413 307.183 190.234 307.897 189.127C308.612 187.985 309.219 187.021 309.719 186.235L311.647 187.735C311.04 188.877 310.326 190.109 309.504 191.431C308.683 192.752 307.772 194.091 306.773 195.448C305.808 196.769 304.755 198.055 303.612 199.305C302.47 200.554 301.256 201.661 299.97 202.626C298.72 203.59 297.399 204.357 296.006 204.929C294.614 205.5 293.185 205.786 291.721 205.786C289.579 205.786 288.007 205.143 287.008 203.858C286.008 202.572 285.508 200.912 285.508 198.876C285.508 198.733 285.508 198.43 285.508 197.966C285.543 197.466 285.597 197.073 285.668 196.787C283.883 199.037 282.169 200.894 280.526 202.358C278.919 203.822 277.348 204.982 275.813 205.839C274.313 206.696 272.849 207.286 271.42 207.607C270.028 207.964 268.689 208.143 267.403 208.143C266.046 208.143 264.761 207.911 263.547 207.446C262.368 207.018 261.333 206.375 260.44 205.518C259.511 204.661 258.797 203.608 258.297 202.358C257.762 201.108 257.494 199.662 257.494 198.019C257.494 195.984 257.958 193.663 258.886 191.056C259.779 188.413 261.386 185.574 263.707 182.539C265.671 179.932 267.707 177.736 269.814 175.951C271.956 174.165 274.045 172.737 276.08 171.666C278.152 170.559 280.116 169.773 281.973 169.309C283.829 168.845 285.49 168.612 286.954 168.612C290.239 168.612 292.721 169.166 294.399 170.273C296.078 171.344 297.095 173.005 297.453 175.254C298.167 174.362 298.917 173.469 299.702 172.576C300.488 171.683 301.291 170.773 302.113 169.844L303.827 170.594ZM287.382 190.949C287.847 190.199 288.418 189.252 289.097 188.11C289.775 186.931 290.489 185.735 291.239 184.521C291.989 183.271 292.721 182.075 293.435 180.932C294.149 179.789 294.774 178.825 295.31 178.04C295.31 177.718 295.256 177.201 295.149 176.486C295.078 175.772 294.846 175.058 294.453 174.344C294.06 173.594 293.435 172.951 292.578 172.416C291.721 171.88 290.525 171.612 288.989 171.612C287.882 171.612 286.633 171.791 285.24 172.148C283.883 172.469 282.419 173.04 280.848 173.862C279.312 174.647 277.723 175.701 276.08 177.022C274.438 178.343 272.795 179.986 271.153 181.95C268.689 184.914 266.778 187.895 265.421 190.895C264.1 193.859 263.439 196.537 263.439 198.93C263.439 200.965 263.904 202.536 264.832 203.643C265.761 204.75 267.082 205.304 268.796 205.304C270.76 205.304 272.599 204.875 274.313 204.018C276.027 203.126 277.634 201.983 279.134 200.59C280.633 199.197 282.062 197.662 283.419 195.984C284.776 194.27 286.097 192.591 287.382 190.949ZM317.057 185.271C318.949 182.7 320.913 180.343 322.949 178.2C324.984 176.022 327.038 174.147 329.109 172.576C331.18 171.005 333.215 169.791 335.215 168.934C337.25 168.041 339.214 167.595 341.107 167.595C342.393 167.595 343.446 167.791 344.267 168.184C345.124 168.577 345.785 169.095 346.249 169.737C346.749 170.344 347.088 171.023 347.267 171.773C347.481 172.523 347.588 173.273 347.588 174.022C347.588 175.308 347.32 176.701 346.785 178.2C346.249 179.665 345.571 181.2 344.749 182.807C343.964 184.414 343.107 186.056 342.178 187.735C341.25 189.413 340.375 191.056 339.554 192.663C338.768 194.27 338.108 195.841 337.572 197.376C337.036 198.876 336.768 200.287 336.768 201.608C336.768 202.429 336.947 203.197 337.304 203.911C337.697 204.59 338.375 204.929 339.339 204.929C340.482 204.929 341.75 204.357 343.143 203.215C344.535 202.036 345.946 200.554 347.374 198.769C348.838 196.948 350.284 194.93 351.713 192.716C353.177 190.502 354.534 188.342 355.784 186.235L357.712 187.735C357.319 188.27 356.783 189.145 356.105 190.359C355.427 191.538 354.623 192.877 353.695 194.377C352.802 195.841 351.784 197.358 350.641 198.93C349.534 200.501 348.338 201.947 347.053 203.268C345.803 204.554 344.482 205.607 343.089 206.429C341.696 207.286 340.286 207.714 338.857 207.714C337.929 207.714 337.001 207.607 336.072 207.393C335.144 207.179 334.304 206.786 333.555 206.214C332.805 205.643 332.198 204.875 331.733 203.911C331.269 202.911 331.037 201.661 331.037 200.162C331.037 198.412 331.323 196.644 331.894 194.859C332.501 193.038 333.233 191.252 334.09 189.502C334.983 187.717 335.947 186.003 336.983 184.36C338.018 182.682 338.965 181.111 339.822 179.647C340.714 178.183 341.446 176.861 342.018 175.683C342.625 174.469 342.928 173.451 342.928 172.63C342.928 171.166 342.214 170.434 340.786 170.434C338.75 170.434 336.59 171.112 334.304 172.469C332.055 173.79 329.787 175.522 327.502 177.665C325.216 179.807 322.967 182.218 320.753 184.896C318.539 187.538 316.468 190.181 314.539 192.823L306.398 208.143L301.523 206.214C306.058 196.323 310.415 186.556 314.593 176.915C318.807 167.238 323.127 157.685 327.555 148.258C328.234 146.794 329.019 145.205 329.912 143.491C330.841 141.777 331.823 140.063 332.858 138.349C333.93 136.635 335.072 134.992 336.286 133.421C337.5 131.85 338.75 130.457 340.036 129.243C341.321 128.029 342.643 127.065 344 126.351C345.392 125.601 346.785 125.226 348.178 125.226C349.749 125.226 350.963 125.672 351.82 126.565C352.713 127.422 353.159 128.654 353.159 130.261C353.159 131.939 352.713 133.849 351.82 135.992C350.927 138.099 349.731 140.331 348.231 142.688C346.731 145.044 344.982 147.473 342.982 149.972C341.018 152.472 338.929 154.954 336.715 157.418C334.537 159.882 332.323 162.274 330.073 164.595C327.823 166.881 325.663 169.005 323.592 170.969L317.057 185.271ZM348.445 128.065C346.838 128.065 345.356 128.689 344 129.939C342.678 131.153 341.232 133.171 339.661 135.992C338.09 138.813 336.286 142.491 334.251 147.026C332.215 151.561 329.734 157.132 326.806 163.738C330.734 159.917 334.162 156.221 337.09 152.65C340.054 149.044 342.518 145.759 344.482 142.795C346.446 139.831 347.91 137.26 348.874 135.081C349.874 132.867 350.374 131.225 350.374 130.154C350.374 129.511 350.195 129.011 349.838 128.654C349.481 128.261 349.017 128.065 348.445 128.065Z" fill="#202D58"/>
<path d="M136.279 248.912C133.958 250.233 131.779 251.858 129.744 253.786C131.958 254.75 133.993 255.947 135.85 257.375C137.743 258.803 139.368 260.464 140.725 262.356C142.117 264.249 143.188 266.392 143.938 268.784C144.724 271.141 145.117 273.748 145.117 276.604C145.117 279.033 144.688 281.336 143.831 283.514C143.01 285.657 141.849 287.603 140.35 289.353C138.885 291.067 137.118 292.531 135.047 293.745C133.011 294.923 130.779 295.745 128.351 296.209C129.53 297.816 130.476 299.601 131.19 301.565C131.94 303.494 132.315 305.6 132.315 307.886C132.315 308.814 132.19 309.921 131.94 311.207C131.69 312.457 131.369 313.778 130.976 315.171C130.619 316.563 130.208 317.974 129.744 319.402C129.315 320.795 128.905 322.098 128.512 323.312C128.155 324.526 127.851 325.598 127.601 326.526C127.351 327.455 127.226 328.133 127.226 328.561C127.226 329.597 127.512 330.401 128.083 330.972C128.69 331.579 129.512 331.882 130.547 331.882C132.44 331.882 134.225 331.472 135.904 330.65C137.582 329.865 139.153 328.794 140.617 327.437C142.117 326.115 143.528 324.58 144.849 322.83C146.17 321.045 147.42 319.188 148.598 317.26C149.813 315.331 150.955 313.403 152.026 311.475C153.133 309.511 154.205 307.654 155.24 305.904L157.222 307.404C154.973 311.403 152.848 315.081 150.848 318.438C148.884 321.759 146.866 324.616 144.795 327.008C142.724 329.436 140.528 331.329 138.207 332.686C135.886 334.043 133.243 334.721 130.28 334.721C127.53 334.721 125.387 333.954 123.852 332.418C122.352 330.918 121.602 328.776 121.602 325.99C121.602 324.062 121.888 322.223 122.459 320.473C123.031 318.724 123.655 317.01 124.334 315.331C125.048 313.653 125.691 311.975 126.262 310.296C126.834 308.618 127.119 306.868 127.119 305.047C127.119 303.44 126.851 301.94 126.316 300.548C125.816 299.155 125.102 297.834 124.173 296.584C123.066 296.584 121.799 296.53 120.37 296.423C118.978 296.316 117.638 296.102 116.353 295.78C115.103 295.459 114.05 294.995 113.193 294.388C112.336 293.781 111.907 292.977 111.907 291.977C111.907 291.085 112.264 290.37 112.978 289.835C113.693 289.263 114.746 288.978 116.139 288.978C117.746 288.978 119.299 289.353 120.799 290.103C122.299 290.817 123.78 291.763 125.245 292.941C127.316 292.477 129.244 291.638 131.029 290.424C132.815 289.21 134.35 287.764 135.636 286.085C136.957 284.371 137.975 282.479 138.689 280.408C139.439 278.336 139.814 276.212 139.814 274.033C139.814 271.784 139.51 269.73 138.903 267.874C138.296 265.981 137.439 264.285 136.332 262.785C135.225 261.285 133.922 259.982 132.422 258.875C130.922 257.732 129.28 256.786 127.494 256.036C124.78 259 122.299 262.41 120.049 266.267C117.799 270.088 115.639 274.141 113.568 278.426C111.532 282.675 109.55 287.032 107.622 291.495C105.694 295.923 103.676 300.244 101.569 304.458C99.4981 308.636 97.2663 312.582 94.8738 316.295C92.517 320.009 89.8923 323.259 86.9999 326.044C84.1431 328.829 80.9472 331.025 77.4119 332.632C73.9124 334.239 69.9666 335.043 65.5743 335.043C62.1462 335.043 58.9324 334.507 55.9328 333.436C52.9332 332.365 50.3086 330.775 48.0589 328.669C45.8092 326.597 44.0238 324.026 42.7025 320.955C41.417 317.884 40.7742 314.349 40.7742 310.35C40.7742 307.922 41.0599 305.208 41.6312 302.208C42.2383 299.208 43.1846 296.084 44.4701 292.834C45.7557 289.549 47.3983 286.246 49.398 282.925C51.4334 279.568 53.8617 276.319 56.6827 273.176C59.5394 270.034 62.8247 267.088 66.5385 264.338C70.2879 261.589 74.5016 259.196 79.1796 257.161C83.8932 255.09 89.1067 253.465 94.8202 252.286C100.534 251.108 106.801 250.519 113.621 250.519C115.942 250.519 118.246 250.715 120.531 251.108C122.816 251.465 125.03 252.001 127.173 252.715C128.423 251.751 129.726 250.84 131.083 249.983C132.44 249.09 133.868 248.251 135.368 247.466L136.279 248.912ZM64.2352 332.204C68.0918 332.204 71.5199 331.436 74.5195 329.901C77.5191 328.365 80.233 326.294 82.6612 323.687C85.0894 321.045 87.3034 317.956 89.3031 314.421C91.3386 310.85 93.3026 307.065 95.1952 303.065C97.1235 299.03 99.0518 294.852 100.98 290.531C102.944 286.175 105.069 281.889 107.354 277.676C109.64 273.462 112.175 269.409 114.96 265.517C117.746 261.624 120.942 258.089 124.548 254.911C121.263 253.947 117.817 253.465 114.21 253.465C107.568 253.465 101.248 254.358 95.2487 256.143C89.2853 257.929 83.7325 260.339 78.5903 263.374C73.4839 266.409 68.8596 269.927 64.7173 273.926C60.6107 277.926 57.0934 282.139 54.1652 286.567C51.2727 290.96 49.0409 295.459 47.4697 300.065C45.8985 304.636 45.1129 309.011 45.1129 313.189C45.1129 315.795 45.5593 318.259 46.452 320.58C47.3804 322.902 48.6838 324.919 50.3622 326.633C52.0405 328.347 54.0581 329.704 56.4149 330.704C58.7717 331.704 61.3785 332.204 64.2352 332.204ZM121.441 293.638C120.549 293.031 119.602 292.513 118.603 292.084C117.603 291.656 116.728 291.442 115.978 291.442C115.478 291.442 115.139 291.513 114.96 291.656C114.782 291.799 114.692 291.959 114.692 292.138C114.692 292.459 114.925 292.727 115.389 292.941C115.853 293.12 116.424 293.281 117.103 293.424C117.817 293.531 118.549 293.602 119.299 293.638C120.085 293.674 120.799 293.674 121.441 293.638ZM197.877 290.263C197.413 291.192 196.752 292.406 195.895 293.906C195.074 295.405 194.181 297.066 193.217 298.887C192.253 300.673 191.271 302.547 190.271 304.511C189.307 306.475 188.414 308.404 187.593 310.296C186.807 312.153 186.147 313.921 185.611 315.599C185.111 317.242 184.861 318.634 184.861 319.777C184.861 320.92 185.075 321.67 185.504 322.027C185.968 322.348 186.557 322.509 187.272 322.509C188.307 322.509 189.361 322.205 190.432 321.598C191.539 320.991 192.61 320.206 193.646 319.241C194.717 318.277 195.753 317.188 196.752 315.974C197.752 314.76 198.681 313.546 199.538 312.332C200.43 311.082 201.234 309.903 201.948 308.796C202.662 307.654 203.269 306.69 203.769 305.904L205.698 307.404C205.09 308.546 204.376 309.778 203.555 311.1C202.734 312.421 201.823 313.76 200.823 315.117C199.859 316.438 198.806 317.724 197.663 318.974C196.52 320.223 195.306 321.33 194.021 322.295C192.771 323.259 191.45 324.026 190.057 324.598C188.664 325.169 187.236 325.455 185.772 325.455C183.629 325.455 182.058 324.812 181.058 323.526C180.058 322.241 179.558 320.58 179.558 318.545C179.558 318.402 179.558 318.099 179.558 317.634C179.594 317.135 179.648 316.742 179.719 316.456C177.934 318.706 176.22 320.563 174.577 322.027C172.97 323.491 171.399 324.651 169.863 325.508C168.363 326.365 166.899 326.955 165.471 327.276C164.078 327.633 162.739 327.812 161.454 327.812C160.097 327.812 158.811 327.579 157.597 327.115C156.419 326.687 155.383 326.044 154.49 325.187C153.562 324.33 152.848 323.277 152.348 322.027C151.812 320.777 151.544 319.331 151.544 317.688C151.544 315.653 152.009 313.331 152.937 310.725C153.83 308.082 155.437 305.243 157.758 302.208C159.722 299.601 161.757 297.405 163.864 295.62C166.007 293.834 168.096 292.406 170.131 291.335C172.202 290.228 174.166 289.442 176.023 288.978C177.88 288.514 179.54 288.281 181.005 288.281C184.29 288.281 186.772 288.835 188.45 289.942C190.128 291.013 191.146 292.674 191.503 294.923C192.217 294.031 192.967 293.138 193.753 292.245C194.538 291.352 195.342 290.442 196.163 289.513L197.877 290.263ZM181.433 310.618C181.897 309.868 182.469 308.921 183.147 307.779C183.826 306.6 184.54 305.404 185.29 304.19C186.04 302.94 186.772 301.744 187.486 300.601C188.2 299.458 188.825 298.494 189.361 297.709C189.361 297.387 189.307 296.87 189.2 296.155C189.128 295.441 188.896 294.727 188.504 294.013C188.111 293.263 187.486 292.62 186.629 292.084C185.772 291.549 184.576 291.281 183.04 291.281C181.933 291.281 180.683 291.46 179.291 291.817C177.934 292.138 176.469 292.709 174.898 293.531C173.363 294.316 171.774 295.37 170.131 296.691C168.488 298.012 166.846 299.655 165.203 301.619C162.739 304.583 160.829 307.564 159.472 310.564C158.151 313.528 157.49 316.206 157.49 318.599C157.49 320.634 157.954 322.205 158.883 323.312C159.811 324.419 161.132 324.973 162.846 324.973C164.81 324.973 166.649 324.544 168.363 323.687C170.078 322.794 171.684 321.652 173.184 320.259C174.684 318.866 176.112 317.331 177.469 315.653C178.826 313.939 180.148 312.26 181.433 310.618ZM210.25 307.082C212.107 304.511 214.071 302.047 216.143 299.691C218.249 297.298 220.374 295.191 222.517 293.37C224.659 291.513 226.82 290.031 228.998 288.924C231.176 287.817 233.301 287.264 235.372 287.264C236.658 287.264 237.711 287.46 238.532 287.853C239.354 288.246 239.996 288.746 240.461 289.353C240.96 289.96 241.3 290.656 241.478 291.442C241.693 292.192 241.8 292.941 241.8 293.691C241.8 294.763 241.585 295.923 241.157 297.173C240.764 298.423 240.139 299.691 239.282 300.976C238.461 302.226 237.407 303.44 236.122 304.618C234.836 305.761 233.301 306.797 231.515 307.725C231.908 308.654 232.105 309.778 232.105 311.1C232.105 311.921 231.997 312.76 231.783 313.617C231.569 314.438 231.337 315.26 231.087 316.081C230.837 316.902 230.605 317.742 230.391 318.599C230.176 319.42 230.069 320.259 230.069 321.116C230.069 321.545 230.087 321.955 230.123 322.348C230.194 322.741 230.301 323.098 230.444 323.419C230.623 323.741 230.873 324.009 231.194 324.223C231.551 324.401 232.033 324.491 232.64 324.491C233.354 324.491 234.176 324.205 235.104 323.634C236.033 323.027 237.015 322.241 238.05 321.277C239.086 320.313 240.139 319.206 241.21 317.956C242.317 316.67 243.389 315.331 244.424 313.939C245.46 312.546 246.46 311.171 247.424 309.814C248.388 308.421 249.263 307.118 250.048 305.904L252.03 307.404C250.209 310.118 248.424 312.707 246.674 315.171C244.96 317.634 243.228 319.795 241.478 321.652C239.764 323.509 238.014 324.991 236.229 326.098C234.444 327.205 232.604 327.758 230.712 327.758C229.962 327.758 229.176 327.651 228.355 327.437C227.569 327.222 226.837 326.865 226.159 326.365C225.516 325.901 224.981 325.276 224.552 324.491C224.124 323.705 223.909 322.741 223.909 321.598C223.909 320.241 224.249 318.652 224.927 316.831C225.534 315.117 225.98 313.689 226.266 312.546C226.552 311.367 226.712 310.385 226.748 309.6C225.998 309.778 225.195 309.939 224.338 310.082C223.516 310.225 222.731 310.296 221.981 310.296C221.588 310.296 221.16 310.26 220.695 310.189C220.231 310.082 219.803 309.921 219.41 309.707C219.017 309.493 218.678 309.225 218.392 308.904C218.142 308.546 218.017 308.1 218.017 307.564C218.017 307.029 218.178 306.529 218.499 306.065C218.856 305.565 219.321 305.136 219.892 304.779C220.499 304.386 221.213 304.083 222.035 303.869C222.856 303.654 223.766 303.547 224.766 303.547C226.623 303.547 228.212 304.047 229.533 305.047C230.819 304.047 231.872 302.958 232.694 301.78C233.551 300.601 234.211 299.458 234.676 298.351C235.14 297.244 235.461 296.262 235.64 295.405C235.818 294.513 235.908 293.852 235.908 293.424C235.908 292.245 235.693 291.442 235.265 291.013C234.836 290.549 234.319 290.317 233.711 290.317C232.569 290.317 231.283 290.692 229.855 291.442C228.462 292.192 226.998 293.209 225.463 294.495C223.963 295.78 222.409 297.262 220.803 298.941C219.231 300.619 217.678 302.387 216.143 304.243C214.643 306.1 213.179 307.975 211.75 309.868C210.358 311.76 209.072 313.546 207.894 315.224C206.822 317.01 205.858 318.67 205.001 320.206C204.18 321.741 203.484 323.062 202.912 324.169C202.341 325.276 201.895 326.115 201.573 326.687C201.252 327.258 201.073 327.455 201.037 327.276L195.735 325.883C199.948 316.278 204.216 306.672 208.536 297.066C212.857 287.46 217.41 277.747 222.195 267.927C222.909 266.499 223.713 264.945 224.606 263.267C225.534 261.553 226.516 259.857 227.552 258.178C228.623 256.464 229.748 254.804 230.926 253.197C232.14 251.59 233.372 250.18 234.622 248.966C235.908 247.716 237.211 246.734 238.532 246.019C239.853 245.27 241.175 244.895 242.496 244.895C243.889 244.895 245.013 245.287 245.87 246.073C246.763 246.859 247.21 248.108 247.21 249.823C247.21 252.179 246.567 255.054 245.281 258.446C244.031 261.803 242.157 265.374 239.657 269.159C237.157 272.944 234.033 276.783 230.283 280.675C226.57 284.532 222.231 288.121 217.267 291.442L210.25 307.082ZM219.624 286.3C223.945 282.943 227.659 279.497 230.765 275.962C233.908 272.391 236.479 268.963 238.479 265.677C240.514 262.392 241.996 259.357 242.924 256.572C243.889 253.751 244.371 251.394 244.371 249.501C244.371 248.966 244.228 248.537 243.942 248.216C243.657 247.894 243.21 247.734 242.603 247.734C241.282 247.734 239.925 248.394 238.532 249.715C237.14 251.001 235.551 253.143 233.765 256.143C232.015 259.143 229.998 263.106 227.712 268.034C225.427 272.962 222.731 279.051 219.624 286.3ZM226.48 307.189C226.302 306.797 225.998 306.457 225.57 306.172C225.177 305.85 224.731 305.69 224.231 305.69C223.195 305.69 222.285 305.904 221.499 306.332C220.713 306.761 220.321 307.172 220.321 307.564C220.321 307.85 220.481 308.047 220.803 308.154C221.16 308.225 221.481 308.261 221.767 308.261C222.695 308.261 223.552 308.154 224.338 307.939C225.123 307.725 225.838 307.475 226.48 307.189ZM257.387 304.94C259.279 302.369 261.243 300.012 263.279 297.869C265.314 295.691 267.367 293.816 269.439 292.245C271.51 290.674 273.545 289.46 275.545 288.603C277.58 287.71 279.544 287.264 281.437 287.264C282.722 287.264 283.776 287.46 284.597 287.853C285.454 288.246 286.115 288.763 286.579 289.406C287.079 290.013 287.418 290.692 287.597 291.442C287.811 292.192 287.918 292.941 287.918 293.691C287.918 294.977 287.65 296.37 287.115 297.869C286.579 299.333 285.901 300.869 285.079 302.476C284.294 304.083 283.437 305.725 282.508 307.404C281.58 309.082 280.705 310.725 279.884 312.332C279.098 313.939 278.437 315.51 277.902 317.045C277.366 318.545 277.098 319.956 277.098 321.277C277.098 322.098 277.277 322.866 277.634 323.58C278.027 324.259 278.705 324.598 279.669 324.598C280.812 324.598 282.08 324.026 283.472 322.884C284.865 321.705 286.276 320.223 287.704 318.438C289.168 316.617 290.614 314.599 292.043 312.385C293.507 310.171 294.864 308.011 296.113 305.904L298.042 307.404C297.649 307.939 297.113 308.814 296.435 310.028C295.756 311.207 294.953 312.546 294.024 314.046C293.132 315.51 292.114 317.027 290.971 318.599C289.864 320.17 288.668 321.616 287.383 322.937C286.133 324.223 284.811 325.276 283.419 326.098C282.026 326.955 280.616 327.383 279.187 327.383C278.259 327.383 277.33 327.276 276.402 327.062C275.473 326.847 274.634 326.455 273.884 325.883C273.135 325.312 272.527 324.544 272.063 323.58C271.599 322.58 271.367 321.33 271.367 319.831C271.367 318.081 271.653 316.313 272.224 314.528C272.831 312.707 273.563 310.921 274.42 309.171C275.313 307.386 276.277 305.672 277.313 304.029C278.348 302.351 279.294 300.78 280.151 299.316C281.044 297.852 281.776 296.53 282.348 295.352C282.955 294.138 283.258 293.12 283.258 292.299C283.258 290.835 282.544 290.103 281.116 290.103C279.08 290.103 276.92 290.781 274.634 292.138C272.385 293.459 270.117 295.191 267.832 297.334C265.546 299.476 263.297 301.887 261.083 304.565C258.869 307.207 256.798 309.85 254.869 312.492L246.728 327.812L241.853 325.883C246.388 315.992 250.745 306.225 254.923 296.584C259.136 286.907 263.457 277.354 267.885 267.927C268.564 266.463 269.349 264.874 270.242 263.16C271.171 261.446 272.153 259.732 273.188 258.018C274.259 256.304 275.402 254.661 276.616 253.09C277.83 251.519 279.08 250.126 280.366 248.912C281.651 247.698 282.972 246.734 284.329 246.019C285.722 245.27 287.115 244.895 288.507 244.895C290.079 244.895 291.293 245.341 292.15 246.234C293.042 247.091 293.489 248.323 293.489 249.93C293.489 251.608 293.042 253.518 292.15 255.661C291.257 257.768 290.061 260 288.561 262.356C287.061 264.713 285.311 267.142 283.312 269.641C281.348 272.141 279.259 274.623 277.045 277.087C274.866 279.551 272.652 281.943 270.403 284.264C268.153 286.55 265.993 288.674 263.922 290.638L257.387 304.94ZM288.775 247.734C287.168 247.734 285.686 248.358 284.329 249.608C283.008 250.822 281.562 252.84 279.991 255.661C278.419 258.482 276.616 262.16 274.581 266.695C272.545 271.23 270.064 276.801 267.135 283.407C271.063 279.586 274.491 275.89 277.42 272.319C280.384 268.713 282.847 265.427 284.811 262.464C286.775 259.5 288.24 256.929 289.204 254.75C290.204 252.536 290.703 250.894 290.703 249.823C290.703 249.18 290.525 248.68 290.168 248.323C289.811 247.93 289.347 247.734 288.775 247.734ZM338.75 290.263C338.286 291.192 337.626 292.406 336.768 293.906C335.947 295.405 335.054 297.066 334.09 298.887C333.126 300.673 332.144 302.547 331.144 304.511C330.18 306.475 329.287 308.404 328.466 310.296C327.68 312.153 327.02 313.921 326.484 315.599C325.984 317.242 325.734 318.634 325.734 319.777C325.734 320.92 325.949 321.67 326.377 322.027C326.841 322.348 327.431 322.509 328.145 322.509C329.18 322.509 330.234 322.205 331.305 321.598C332.412 320.991 333.483 320.206 334.519 319.241C335.59 318.277 336.626 317.188 337.626 315.974C338.625 314.76 339.554 313.546 340.411 312.332C341.304 311.082 342.107 309.903 342.821 308.796C343.535 307.654 344.142 306.69 344.642 305.904L346.571 307.404C345.964 308.546 345.249 309.778 344.428 311.1C343.607 312.421 342.696 313.76 341.696 315.117C340.732 316.438 339.679 317.724 338.536 318.974C337.393 320.223 336.179 321.33 334.894 322.295C333.644 323.259 332.323 324.026 330.93 324.598C329.537 325.169 328.109 325.455 326.645 325.455C324.502 325.455 322.931 324.812 321.931 323.526C320.931 322.241 320.431 320.58 320.431 318.545C320.431 318.402 320.431 318.099 320.431 317.634C320.467 317.135 320.521 316.742 320.592 316.456C318.807 318.706 317.093 320.563 315.45 322.027C313.843 323.491 312.272 324.651 310.736 325.508C309.237 326.365 307.773 326.955 306.344 327.276C304.952 327.633 303.612 327.812 302.327 327.812C300.97 327.812 299.684 327.579 298.47 327.115C297.292 326.687 296.256 326.044 295.364 325.187C294.435 324.33 293.721 323.277 293.221 322.027C292.685 320.777 292.418 319.331 292.418 317.688C292.418 315.653 292.882 313.331 293.81 310.725C294.703 308.082 296.31 305.243 298.631 302.208C300.595 299.601 302.63 297.405 304.737 295.62C306.88 293.834 308.969 292.406 311.004 291.335C313.075 290.228 315.039 289.442 316.896 288.978C318.753 288.514 320.414 288.281 321.878 288.281C325.163 288.281 327.645 288.835 329.323 289.942C331.001 291.013 332.019 292.674 332.376 294.923C333.09 294.031 333.84 293.138 334.626 292.245C335.412 291.352 336.215 290.442 337.036 289.513L338.75 290.263ZM322.306 310.618C322.77 309.868 323.342 308.921 324.02 307.779C324.699 306.6 325.413 305.404 326.163 304.19C326.913 302.94 327.645 301.744 328.359 300.601C329.073 299.458 329.698 298.494 330.234 297.709C330.234 297.387 330.18 296.87 330.073 296.155C330.002 295.441 329.769 294.727 329.377 294.013C328.984 293.263 328.359 292.62 327.502 292.084C326.645 291.549 325.449 291.281 323.913 291.281C322.806 291.281 321.556 291.46 320.164 291.817C318.807 292.138 317.343 292.709 315.771 293.531C314.236 294.316 312.647 295.37 311.004 296.691C309.362 298.012 307.719 299.655 306.076 301.619C303.612 304.583 301.702 307.564 300.345 310.564C299.024 313.528 298.363 316.206 298.363 318.599C298.363 320.634 298.827 322.205 299.756 323.312C300.684 324.419 302.005 324.973 303.72 324.973C305.684 324.973 307.523 324.544 309.237 323.687C310.951 322.794 312.558 321.652 314.057 320.259C315.557 318.866 316.986 317.331 318.342 315.653C319.699 313.939 321.021 312.26 322.306 310.618Z" fill="#202D58"/>
<path d="M71.9047 363.648C71.6469 363.918 71.3539 364.141 71.0258 364.316C70.6977 364.48 70.352 364.586 69.9887 364.633C69.6254 364.668 69.2797 364.609 68.9516 364.457C68.6352 364.305 68.3598 364.088 68.1254 363.807C67.6215 363.221 67.3696 362.629 67.3696 362.031C67.3696 361.434 67.4633 360.988 67.6508 360.695C67.85 360.391 68.0961 360.145 68.3891 359.957C68.9516 359.594 69.4789 359.412 69.9711 359.412C70.475 359.412 70.8617 359.447 71.1313 359.518C71.4125 359.588 71.6703 359.705 71.9047 359.869C72.4789 360.256 72.766 360.73 72.766 361.293C72.766 361.844 72.684 362.307 72.5199 362.682C72.3676 363.045 72.1625 363.367 71.9047 363.648ZM68.3012 382.668C68.6059 382.668 68.7582 382.867 68.7582 383.266C68.7582 383.793 68.518 384.338 68.0375 384.9C67.3344 385.721 66.391 386.131 65.2074 386.131C63.8481 386.131 62.9164 385.58 62.4125 384.479C62.225 384.092 62.1313 383.623 62.1313 383.072C62.1313 382.521 62.225 381.912 62.4125 381.244C62.6117 380.564 62.852 379.855 63.1332 379.117C63.4262 378.367 63.7426 377.611 64.0824 376.85L65.0141 374.635C65.6938 372.982 66.0336 371.893 66.0336 371.365C66.0336 370.838 65.975 370.492 65.8578 370.328C65.7524 370.152 65.6352 370.018 65.5063 369.924L65.1547 369.678C65.0375 369.596 64.9789 369.455 64.9789 369.256C64.9789 369.045 65.0551 368.846 65.2074 368.658C65.3715 368.471 65.5824 368.307 65.8403 368.166C66.3676 367.896 66.9828 367.762 67.686 367.762C69.4086 367.762 70.2699 368.213 70.2699 369.115C70.2699 370.17 69.9946 371.377 69.4438 372.736C68.893 374.084 68.4242 375.174 68.0375 376.006L66.9828 378.432C66.2094 380.213 65.8227 381.496 65.8227 382.281C65.8227 382.797 66.0805 383.055 66.5961 383.055C67.1 383.055 67.4809 382.99 67.7387 382.861C67.9965 382.732 68.184 382.668 68.3012 382.668ZM71.8696 382.861C71.8696 382.498 71.9457 382.164 72.0981 381.859C72.2621 381.543 72.4613 381.279 72.6957 381.068C73.1879 380.611 73.7035 380.383 74.2426 380.383C74.7113 380.383 74.9457 380.623 74.9457 381.104C74.9457 382.322 75.35 383.172 76.1586 383.652C76.4516 383.828 76.7563 383.916 77.0727 383.916C77.3891 383.916 77.6586 383.881 77.8813 383.811C78.1039 383.74 78.309 383.629 78.4965 383.477C78.9184 383.137 79.1293 382.732 79.1293 382.264C79.1293 381.795 79.0238 381.367 78.8129 380.98C78.602 380.582 78.3383 380.166 78.0219 379.732L77.0199 378.326C75.6137 376.451 74.9106 374.723 74.9106 373.141C74.9106 371.828 75.4672 370.639 76.5805 369.572C77.8461 368.365 79.4692 367.762 81.4496 367.762C83.184 367.762 84.5375 368.189 85.5102 369.045C86.3071 369.736 86.7055 370.527 86.7055 371.418C86.7055 372.344 86.3539 373.082 85.6508 373.633C85.018 374.125 84.3852 374.307 83.7524 374.178C83.4711 374.119 83.2543 373.979 83.102 373.756C82.9496 373.521 82.9203 373.258 83.0141 372.965C83.1078 372.672 83.1547 372.367 83.1547 372.051C83.1547 371.734 83.0961 371.441 82.9789 371.172C82.8617 370.902 82.7035 370.674 82.5043 370.486C82.0942 370.1 81.6606 369.906 81.2035 369.906C80.7582 369.906 80.3891 369.959 80.0961 370.064C79.8031 370.158 79.5453 370.299 79.3227 370.486C78.8656 370.908 78.6371 371.43 78.6371 372.051C78.6371 372.66 78.7426 373.188 78.9535 373.633C79.1645 374.078 79.4223 374.523 79.727 374.969C80.0434 375.414 80.3832 375.865 80.7465 376.322C81.1098 376.779 81.4438 377.26 81.7485 377.764C82.4867 378.947 82.8559 379.99 82.8559 380.893C82.8559 381.783 82.6684 382.533 82.2934 383.143C81.9184 383.74 81.4321 384.256 80.8344 384.689C79.5571 385.639 78.1274 386.113 76.5453 386.113C75.0336 386.113 73.8383 385.75 72.9594 385.023C72.2328 384.414 71.8696 383.693 71.8696 382.861ZM109.346 382.123C107.565 384.795 105.59 386.131 103.422 386.131C101.465 386.131 100.147 385.088 99.4672 383.002C99.2328 382.287 99.1156 381.408 99.1156 380.365C99.1156 379.322 99.2621 378.279 99.5551 377.236C99.8598 376.182 100.27 375.186 100.786 374.248C101.301 373.311 101.905 372.449 102.596 371.664C103.299 370.867 104.049 370.182 104.846 369.607C106.51 368.377 108.163 367.762 109.803 367.762C111.444 367.762 112.616 368.529 113.319 370.064C113.459 369.912 113.588 369.76 113.705 369.607C113.823 369.443 113.952 369.291 114.092 369.15C114.397 368.846 114.661 368.693 114.883 368.693C115.118 368.693 115.358 368.734 115.604 368.816C115.862 368.898 116.108 369.01 116.342 369.15C116.916 369.49 117.133 369.807 116.993 370.1C116.348 371.494 115.809 372.865 115.375 374.213L112.774 382.51C110.723 388.803 108.122 392.869 104.969 394.709C104.137 395.201 103.416 395.482 102.807 395.553C102.198 395.635 101.758 395.641 101.489 395.57C101.219 395.5 100.979 395.4 100.768 395.271C100.311 394.979 100.082 394.715 100.082 394.48C100.082 394.07 100.352 393.818 100.891 393.725C101.442 393.631 102.016 393.408 102.614 393.057C103.211 392.717 103.78 392.301 104.319 391.809C106.534 389.758 108.209 386.529 109.346 382.123ZM104.073 376.023C103.768 376.867 103.528 377.734 103.352 378.625C103.176 379.504 103.088 380.225 103.088 380.787C103.088 381.35 103.106 381.777 103.141 382.07C103.176 382.363 103.247 382.621 103.352 382.844C103.586 383.336 103.932 383.582 104.389 383.582C104.846 383.582 105.297 383.424 105.743 383.107C106.188 382.779 106.657 382.334 107.149 381.771C107.641 381.209 108.133 380.547 108.625 379.785C109.118 379.023 109.586 378.203 110.032 377.324C111.016 375.379 111.707 373.521 112.106 371.752C112.047 371.424 111.848 371.09 111.508 370.75C110.84 370.105 110.237 369.783 109.698 369.783C109.159 369.783 108.62 369.953 108.08 370.293C107.541 370.621 107.026 371.072 106.534 371.646C106.053 372.209 105.602 372.871 105.18 373.633C104.758 374.383 104.389 375.18 104.073 376.023ZM118.205 379.803C118.252 378.783 118.422 377.811 118.715 376.885C119.008 375.947 119.401 375.045 119.893 374.178C120.385 373.299 120.959 372.473 121.616 371.699C122.284 370.914 123.004 370.229 123.778 369.643C125.454 368.389 127.147 367.762 128.858 367.762C130.862 367.762 132.198 368.588 132.866 370.24C133.1 370.803 133.211 371.471 133.2 372.244C133.188 373.006 133.041 373.715 132.76 374.371C132.479 375.016 132.086 375.607 131.582 376.146C131.09 376.674 130.498 377.148 129.807 377.57C129.127 377.992 128.383 378.35 127.575 378.643C125.911 379.229 124.129 379.533 122.231 379.557C122.184 379.721 122.155 379.967 122.143 380.295C122.131 380.623 122.166 380.992 122.248 381.402C122.33 381.801 122.471 382.158 122.67 382.475C123.092 383.178 123.702 383.529 124.498 383.529C125.858 383.529 127.182 383.131 128.471 382.334C128.928 382.064 129.297 381.789 129.579 381.508C129.872 381.215 130.123 381.068 130.334 381.068C130.545 381.068 130.727 381.197 130.879 381.455C131.043 381.701 131.125 381.982 131.125 382.299C131.125 382.92 130.95 383.459 130.598 383.916C129.122 385.393 126.924 386.131 124.006 386.131C122.284 386.131 120.901 385.615 119.858 384.584C118.686 383.412 118.135 381.818 118.205 379.803ZM128.471 370.1C127.241 370.1 126.057 370.943 124.92 372.631C123.959 374.084 123.186 375.807 122.6 377.799C124.557 377.6 126.256 376.826 127.698 375.479C129.022 374.213 129.684 373 129.684 371.84C129.684 370.68 129.28 370.1 128.471 370.1ZM145.241 381.35C145.58 381.35 145.75 381.578 145.75 382.035C145.75 382.422 145.633 382.797 145.399 383.16C145.082 383.84 144.45 384.484 143.5 385.094C142.422 385.785 141.338 386.131 140.248 386.131C138.362 386.131 137.166 385.287 136.663 383.6C136.065 381.596 136.961 377.348 139.352 370.855C138.004 370.738 137.272 370.504 137.155 370.152C137.12 370.047 137.102 369.936 137.102 369.818C137.102 369.689 137.155 369.543 137.26 369.379C137.377 369.215 137.524 369.057 137.7 368.904C138.11 368.564 138.526 368.395 138.948 368.395H140.336C141.602 365.43 142.504 363.742 143.043 363.332C143.301 363.145 143.588 363.051 143.905 363.051C144.221 363.051 144.485 363.092 144.696 363.174C144.907 363.256 145.094 363.373 145.258 363.525C145.633 363.877 145.821 364.27 145.821 364.703C145.821 364.938 145.75 365.207 145.61 365.512L144.309 368.342H144.731C145.457 368.342 146.043 368.336 146.489 368.324C146.489 368.324 146.823 368.318 147.491 368.307C147.713 368.295 147.989 368.289 148.317 368.289C148.657 368.289 148.827 368.412 148.827 368.658C148.827 370.205 146.998 370.979 143.342 370.979H143.202L142.006 374.072C140.659 377.729 139.985 380.289 139.985 381.754C139.985 382.164 140.079 382.486 140.266 382.721C140.454 382.943 140.805 383.055 141.321 383.055C141.836 383.055 142.305 382.967 142.727 382.791C143.149 382.615 143.518 382.422 143.834 382.211C144.151 381.988 144.42 381.789 144.643 381.613C144.877 381.438 145.077 381.35 145.241 381.35ZM158.178 381.35C158.518 381.35 158.688 381.578 158.688 382.035C158.688 382.422 158.571 382.797 158.336 383.16C158.02 383.84 157.387 384.484 156.438 385.094C155.36 385.785 154.276 386.131 153.186 386.131C151.299 386.131 150.104 385.287 149.6 383.6C149.002 381.596 149.899 377.348 152.289 370.855C150.942 370.738 150.209 370.504 150.092 370.152C150.057 370.047 150.039 369.936 150.039 369.818C150.039 369.689 150.092 369.543 150.198 369.379C150.315 369.215 150.461 369.057 150.637 368.904C151.047 368.564 151.463 368.395 151.885 368.395H153.274C154.539 365.43 155.442 363.742 155.981 363.332C156.239 363.145 156.526 363.051 156.842 363.051C157.159 363.051 157.422 363.092 157.633 363.174C157.844 363.256 158.032 363.373 158.196 363.525C158.571 363.877 158.758 364.27 158.758 364.703C158.758 364.938 158.688 365.207 158.547 365.512L157.247 368.342H157.668C158.395 368.342 158.981 368.336 159.426 368.324C159.426 368.324 159.76 368.318 160.428 368.307C160.651 368.295 160.926 368.289 161.254 368.289C161.594 368.289 161.764 368.412 161.764 368.658C161.764 370.205 159.936 370.979 156.28 370.979H156.139L154.944 374.072C153.596 377.729 152.922 380.289 152.922 381.754C152.922 382.164 153.016 382.486 153.204 382.721C153.391 382.943 153.743 383.055 154.258 383.055C154.774 383.055 155.243 382.967 155.664 382.791C156.086 382.615 156.455 382.422 156.772 382.211C157.088 381.988 157.358 381.789 157.58 381.613C157.815 381.438 158.014 381.35 158.178 381.35ZM170.377 363.648C170.12 363.918 169.827 364.141 169.498 364.316C169.17 364.48 168.825 364.586 168.461 364.633C168.098 364.668 167.752 364.609 167.424 364.457C167.108 364.305 166.832 364.088 166.598 363.807C166.094 363.221 165.842 362.629 165.842 362.031C165.842 361.434 165.936 360.988 166.123 360.695C166.323 360.391 166.569 360.145 166.862 359.957C167.424 359.594 167.952 359.412 168.444 359.412C168.948 359.412 169.334 359.447 169.604 359.518C169.885 359.588 170.143 359.705 170.377 359.869C170.952 360.256 171.239 360.73 171.239 361.293C171.239 361.844 171.157 362.307 170.993 362.682C170.84 363.045 170.635 363.367 170.377 363.648ZM166.774 382.668C167.079 382.668 167.231 382.867 167.231 383.266C167.231 383.793 166.991 384.338 166.51 384.9C165.807 385.721 164.864 386.131 163.68 386.131C162.321 386.131 161.389 385.58 160.885 384.479C160.698 384.092 160.604 383.623 160.604 383.072C160.604 382.521 160.698 381.912 160.885 381.244C161.084 380.564 161.325 379.855 161.606 379.117C161.899 378.367 162.215 377.611 162.555 376.85L163.487 374.635C164.166 372.982 164.506 371.893 164.506 371.365C164.506 370.838 164.448 370.492 164.33 370.328C164.225 370.152 164.108 370.018 163.979 369.924L163.627 369.678C163.51 369.596 163.452 369.455 163.452 369.256C163.452 369.045 163.528 368.846 163.68 368.658C163.844 368.471 164.055 368.307 164.313 368.166C164.84 367.896 165.455 367.762 166.159 367.762C167.881 367.762 168.743 368.213 168.743 369.115C168.743 370.17 168.467 371.377 167.916 372.736C167.366 374.084 166.897 375.174 166.51 376.006L165.455 378.432C164.682 380.213 164.295 381.496 164.295 382.281C164.295 382.797 164.553 383.055 165.069 383.055C165.573 383.055 165.954 382.99 166.211 382.861C166.469 382.732 166.657 382.668 166.774 382.668ZM183.86 371.084C183.497 371.084 182.981 371.436 182.313 372.139C181.645 372.83 181.065 373.463 180.573 374.037L179.079 375.83L176.196 379.504C175.516 380.793 174.983 381.865 174.596 382.721L173.647 384.76C173.401 385.264 173.184 385.621 172.997 385.832C172.821 386.031 172.575 386.131 172.258 386.131C171.954 386.131 171.655 386.072 171.362 385.955C171.08 385.85 170.834 385.709 170.623 385.533C170.178 385.158 169.955 384.748 169.955 384.303C169.955 384.127 170.084 383.781 170.342 383.266L171.01 381.842C171.221 381.42 171.467 380.881 171.748 380.225L172.733 377.816C174.116 374.359 174.807 372.127 174.807 371.119C174.807 370.58 174.631 370.182 174.28 369.924L173.928 369.678C173.811 369.596 173.752 369.455 173.752 369.256C173.752 369.045 173.829 368.846 173.981 368.658C174.145 368.471 174.356 368.307 174.614 368.166C175.141 367.896 175.668 367.762 176.196 367.762C176.735 367.762 177.151 367.82 177.444 367.938C177.737 368.055 177.983 368.213 178.182 368.412C178.616 368.822 178.832 369.25 178.832 369.695C178.832 370.141 178.774 370.592 178.657 371.049C178.551 371.494 178.411 371.951 178.235 372.42C178.071 372.877 177.895 373.328 177.707 373.773C177.52 374.219 177.35 374.605 177.198 374.934L176.846 375.689C176.752 375.877 176.729 375.936 176.776 375.865C178.077 374.061 178.932 372.9 179.342 372.385L180.573 370.908C181.475 369.854 182.184 369.156 182.7 368.816C183.743 368.113 184.563 367.762 185.161 367.762C185.758 367.762 186.262 367.838 186.672 367.99C187.082 368.143 187.44 368.359 187.745 368.641C188.389 369.238 188.711 370 188.711 370.926C188.711 371.852 188.5 372.818 188.079 373.826C187.657 374.834 187.288 375.654 186.971 376.287C186.666 376.908 186.373 377.541 186.092 378.186C185.213 380.143 184.774 381.566 184.774 382.457C184.774 382.855 185.09 383.055 185.723 383.055C186.215 383.055 186.661 382.949 187.059 382.738C187.469 382.527 187.733 382.422 187.85 382.422C188.096 382.422 188.219 382.545 188.219 382.791C188.219 383.834 187.686 384.707 186.62 385.41C185.905 385.891 185.248 386.131 184.651 386.131C184.053 386.131 183.555 386.066 183.157 385.938C182.77 385.809 182.424 385.604 182.12 385.322C181.428 384.701 181.082 383.834 181.082 382.721C181.082 381.361 181.51 379.662 182.366 377.623C182.987 376.229 183.426 375.273 183.684 374.758L184.282 373.51C184.645 372.76 184.827 372.168 184.827 371.734C184.827 371.301 184.504 371.084 183.86 371.084ZM201.702 382.123C199.92 384.795 197.946 386.131 195.778 386.131C193.821 386.131 192.502 385.088 191.823 383.002C191.588 382.287 191.471 381.408 191.471 380.365C191.471 379.322 191.618 378.279 191.911 377.236C192.215 376.182 192.625 375.186 193.141 374.248C193.657 373.311 194.26 372.449 194.952 371.664C195.655 370.867 196.405 370.182 197.202 369.607C198.866 368.377 200.518 367.762 202.159 367.762C203.799 367.762 204.971 368.529 205.674 370.064C205.815 369.912 205.944 369.76 206.061 369.607C206.178 369.443 206.307 369.291 206.448 369.15C206.752 368.846 207.016 368.693 207.239 368.693C207.473 368.693 207.713 368.734 207.959 368.816C208.217 368.898 208.463 369.01 208.698 369.15C209.272 369.49 209.489 369.807 209.348 370.1C208.704 371.494 208.164 372.865 207.731 374.213L205.129 382.51C203.079 388.803 200.477 392.869 197.325 394.709C196.493 395.201 195.772 395.482 195.163 395.553C194.553 395.635 194.114 395.641 193.844 395.57C193.575 395.5 193.334 395.4 193.123 395.271C192.666 394.979 192.438 394.715 192.438 394.48C192.438 394.07 192.707 393.818 193.247 393.725C193.797 393.631 194.372 393.408 194.969 393.057C195.567 392.717 196.135 392.301 196.674 391.809C198.889 389.758 200.565 386.529 201.702 382.123ZM196.428 376.023C196.123 376.867 195.883 377.734 195.707 378.625C195.532 379.504 195.444 380.225 195.444 380.787C195.444 381.35 195.461 381.777 195.497 382.07C195.532 382.363 195.602 382.621 195.707 382.844C195.942 383.336 196.288 383.582 196.745 383.582C197.202 383.582 197.653 383.424 198.098 383.107C198.543 382.779 199.012 382.334 199.504 381.771C199.997 381.209 200.489 380.547 200.981 379.785C201.473 379.023 201.942 378.203 202.387 377.324C203.372 375.379 204.063 373.521 204.461 371.752C204.403 371.424 204.204 371.09 203.864 370.75C203.196 370.105 202.592 369.783 202.053 369.783C201.514 369.783 200.975 369.953 200.436 370.293C199.897 370.621 199.381 371.072 198.889 371.646C198.409 372.209 197.957 372.871 197.536 373.633C197.114 374.383 196.745 375.18 196.428 376.023ZM234.713 371.084C234.034 371.084 232.791 372.068 230.987 374.037C229.639 375.572 228.661 376.727 228.051 377.5L226.469 379.504C225.789 380.793 225.256 381.865 224.87 382.721L223.92 384.76C223.674 385.264 223.457 385.621 223.27 385.832C223.094 386.031 222.848 386.131 222.532 386.131C222.227 386.131 221.928 386.072 221.635 385.955C221.354 385.85 221.108 385.709 220.897 385.533C220.452 385.158 220.229 384.748 220.229 384.303C220.229 384.127 220.358 383.781 220.616 383.266L221.284 381.842C221.495 381.42 221.741 380.881 222.022 380.225L223.006 377.816C224.389 374.359 225.08 372.127 225.08 371.119C225.08 370.58 224.905 370.182 224.553 369.924L224.202 369.678C224.084 369.596 224.026 369.455 224.026 369.256C224.026 369.045 224.102 368.846 224.254 368.658C224.418 368.471 224.629 368.307 224.887 368.166C225.414 367.896 225.942 367.762 226.469 367.762C227.008 367.762 227.43 367.82 227.735 367.938C228.039 368.055 228.303 368.213 228.526 368.412C228.971 368.822 229.194 369.25 229.194 369.695C229.194 370.141 229.135 370.592 229.018 371.049C228.901 371.494 228.754 371.951 228.579 372.42C228.403 372.877 228.215 373.322 228.016 373.756C227.547 374.764 227.254 375.385 227.137 375.619C227.032 375.842 227.002 375.924 227.049 375.865C229.194 373.088 230.483 371.447 230.916 370.943C231.819 369.9 232.522 369.186 233.026 368.799C233.952 368.107 234.825 367.762 235.645 367.762C236.477 367.762 237.139 368.02 237.631 368.535C238.123 369.051 238.37 369.73 238.37 370.574C238.37 371.312 238.182 372.18 237.807 373.176C237.432 374.172 237.18 374.869 237.051 375.268L239.635 371.857L241.077 370.135C241.944 369.162 242.705 368.523 243.362 368.219C244.018 367.914 244.551 367.762 244.961 367.762C245.383 367.762 245.793 367.838 246.192 367.99C246.602 368.143 246.948 368.359 247.229 368.641C247.827 369.215 248.125 369.977 248.125 370.926C248.125 371.84 247.914 372.777 247.493 373.738C247.071 374.699 246.702 375.49 246.385 376.111C246.069 376.721 245.764 377.336 245.471 377.957C244.616 379.82 244.188 381.203 244.188 382.105C244.188 382.738 244.446 383.055 244.961 383.055C245.454 383.055 245.899 382.949 246.297 382.738C246.707 382.527 246.971 382.422 247.088 382.422C247.334 382.422 247.457 382.545 247.457 382.791C247.457 383.834 246.924 384.707 245.858 385.41C245.143 385.891 244.487 386.131 243.889 386.131C243.303 386.131 242.829 386.061 242.465 385.92C242.102 385.779 241.774 385.557 241.481 385.252C240.825 384.572 240.497 383.723 240.497 382.703C240.497 381.684 240.625 380.746 240.883 379.891C241.141 379.035 241.446 378.209 241.797 377.412C242.149 376.604 242.5 375.865 242.852 375.197C243.215 374.518 243.491 373.979 243.678 373.58C244.053 372.76 244.241 372.156 244.241 371.77C244.241 371.312 244 371.084 243.52 371.084C242.887 371.084 241.75 372.133 240.11 374.23C238.868 375.859 238.006 377.031 237.526 377.746L236.313 379.504C235.633 380.793 235.112 381.865 234.748 382.721L233.852 384.76C233.629 385.264 233.436 385.621 233.272 385.832C233.108 386.031 232.879 386.131 232.586 386.131C232.293 386.131 232.006 386.084 231.725 385.99C231.455 385.896 231.221 385.773 231.022 385.621C230.565 385.281 230.336 384.924 230.336 384.549C230.336 384.162 230.459 383.641 230.705 382.984C230.963 382.316 231.28 381.572 231.655 380.752L234.116 375.549C234.995 373.615 235.434 372.391 235.434 371.875C235.434 371.348 235.194 371.084 234.713 371.084ZM236.454 376.041C236.465 376.041 236.471 376.035 236.471 376.023L236.489 375.988C236.465 376.012 236.454 376.029 236.454 376.041ZM264.385 381.279C264.385 382.357 264.766 382.896 265.528 382.896C266.055 382.896 266.489 382.814 266.829 382.65C267.18 382.486 267.414 382.404 267.532 382.404C267.778 382.404 267.901 382.533 267.901 382.791C267.901 383.799 267.373 384.666 266.319 385.393C265.205 386.154 264.069 386.342 262.909 385.955C262.147 385.686 261.584 385.105 261.221 384.215C261.045 383.758 260.957 383.342 260.957 382.967C260.957 382.357 261.016 381.713 261.133 381.033C260.043 383.26 258.69 384.795 257.073 385.639C256.428 385.967 255.743 386.131 255.016 386.131C254.289 386.131 253.657 385.984 253.118 385.691C252.59 385.387 252.139 384.971 251.764 384.443C251.002 383.342 250.657 381.959 250.727 380.295C250.797 378.209 251.413 376.164 252.573 374.16C253.639 372.285 254.987 370.756 256.616 369.572C258.245 368.365 259.768 367.762 261.186 367.762C262.604 367.762 263.747 368.412 264.614 369.713C265.422 368.412 266.137 367.762 266.758 367.762C267.426 367.762 267.93 367.885 268.27 368.131C268.914 368.6 269.143 369.01 268.955 369.361C266.014 375.385 264.502 379.135 264.42 380.611C264.397 380.822 264.385 381.045 264.385 381.279ZM254.629 381.35C254.629 382.756 255.08 383.459 255.983 383.459C256.674 383.459 257.524 382.873 258.532 381.701C260.008 379.979 261.315 377.658 262.452 374.74C262.815 373.826 263.12 372.912 263.366 371.998C263.319 371.201 262.985 370.615 262.364 370.24C262.153 370.111 261.836 370.047 261.414 370.047C261.004 370.047 260.518 370.199 259.955 370.504C259.405 370.809 258.866 371.225 258.338 371.752C257.823 372.279 257.336 372.906 256.879 373.633C256.434 374.348 256.041 375.127 255.702 375.971C254.987 377.775 254.629 379.568 254.629 381.35ZM270.397 385.533C270.163 385.357 269.975 385.164 269.834 384.953C269.694 384.73 269.618 384.543 269.606 384.391C269.594 384.227 269.623 384.033 269.694 383.811C269.776 383.576 269.881 383.295 270.01 382.967C272.401 377.084 273.596 373.135 273.596 371.119C273.561 370.557 273.368 370.158 273.016 369.924L272.664 369.678C272.559 369.596 272.5 369.455 272.489 369.256C272.489 369.045 272.565 368.846 272.717 368.658C272.87 368.471 273.069 368.307 273.315 368.166C273.819 367.896 274.334 367.762 274.862 367.762C275.401 367.762 275.817 367.82 276.11 367.938C276.414 368.055 276.672 368.213 276.883 368.412C277.329 368.834 277.551 369.279 277.551 369.748C277.563 370.217 277.51 370.691 277.393 371.172C277.288 371.652 277.159 372.127 277.006 372.596C276.854 373.053 276.702 373.492 276.549 373.914C276.397 374.324 276.297 374.629 276.25 374.828C276.157 375.238 276.122 375.496 276.145 375.602C276.426 375.355 276.596 375.115 276.655 374.881L277.34 373.58C278.864 370.838 280.352 369.021 281.805 368.131C282.227 367.885 282.731 367.762 283.317 367.762C283.914 367.762 284.395 367.973 284.758 368.395C285.122 368.805 285.309 369.262 285.321 369.766C285.344 370.27 285.309 370.691 285.215 371.031C285.133 371.359 285.004 371.67 284.829 371.963C284.442 372.619 283.973 372.947 283.422 372.947C283.27 372.947 283.129 372.895 283 372.789L282.614 372.455C282.227 372.115 281.852 371.945 281.489 371.945C281.137 371.945 280.704 372.18 280.188 372.648C279.684 373.117 279.157 373.721 278.606 374.459C276.754 376.908 275.243 379.65 274.071 382.686L273.297 384.725C273.098 385.229 272.922 385.592 272.77 385.814C272.618 386.025 272.389 386.131 272.084 386.131C271.791 386.131 271.493 386.072 271.188 385.955C270.895 385.85 270.631 385.709 270.397 385.533ZM285.092 385.533C284.858 385.357 284.67 385.164 284.53 384.953C284.389 384.73 284.313 384.543 284.301 384.391C284.289 384.227 284.319 384.033 284.389 383.811C284.471 383.576 284.577 383.295 284.705 382.967C287.096 377.084 288.291 373.135 288.291 371.119C288.256 370.557 288.063 370.158 287.711 369.924L287.36 369.678C287.254 369.596 287.196 369.455 287.184 369.256C287.184 369.045 287.26 368.846 287.413 368.658C287.565 368.471 287.764 368.307 288.01 368.166C288.514 367.896 289.03 367.762 289.557 367.762C290.096 367.762 290.512 367.82 290.805 367.938C291.11 368.055 291.368 368.213 291.579 368.412C292.024 368.834 292.247 369.279 292.247 369.748C292.258 370.217 292.205 370.691 292.088 371.172C291.983 371.652 291.854 372.127 291.702 372.596C291.549 373.053 291.397 373.492 291.245 373.914C291.092 374.324 290.993 374.629 290.946 374.828C290.852 375.238 290.817 375.496 290.84 375.602C291.122 375.355 291.291 375.115 291.35 374.881L292.036 373.58C293.559 370.838 295.047 369.021 296.5 368.131C296.922 367.885 297.426 367.762 298.012 367.762C298.61 367.762 299.09 367.973 299.454 368.395C299.817 368.805 300.004 369.262 300.016 369.766C300.039 370.27 300.004 370.691 299.911 371.031C299.829 371.359 299.7 371.67 299.524 371.963C299.137 372.619 298.668 372.947 298.118 372.947C297.965 372.947 297.825 372.895 297.696 372.789L297.309 372.455C296.922 372.115 296.547 371.945 296.184 371.945C295.832 371.945 295.399 372.18 294.883 372.648C294.379 373.117 293.852 373.721 293.301 374.459C291.45 376.908 289.938 379.65 288.766 382.686L287.993 384.725C287.793 385.229 287.618 385.592 287.465 385.814C287.313 386.025 287.084 386.131 286.78 386.131C286.487 386.131 286.188 386.072 285.883 385.955C285.59 385.85 285.327 385.709 285.092 385.533ZM309.209 363.648C308.952 363.918 308.659 364.141 308.331 364.316C308.002 364.48 307.657 364.586 307.293 364.633C306.93 364.668 306.584 364.609 306.256 364.457C305.94 364.305 305.664 364.088 305.43 363.807C304.926 363.221 304.674 362.629 304.674 362.031C304.674 361.434 304.768 360.988 304.956 360.695C305.155 360.391 305.401 360.145 305.694 359.957C306.256 359.594 306.784 359.412 307.276 359.412C307.78 359.412 308.166 359.447 308.436 359.518C308.717 359.588 308.975 359.705 309.209 359.869C309.784 360.256 310.071 360.73 310.071 361.293C310.071 361.844 309.989 362.307 309.825 362.682C309.672 363.045 309.467 363.367 309.209 363.648ZM305.606 382.668C305.911 382.668 306.063 382.867 306.063 383.266C306.063 383.793 305.823 384.338 305.342 384.9C304.639 385.721 303.696 386.131 302.512 386.131C301.153 386.131 300.221 385.58 299.717 384.479C299.53 384.092 299.436 383.623 299.436 383.072C299.436 382.521 299.53 381.912 299.717 381.244C299.916 380.564 300.157 379.855 300.438 379.117C300.731 378.367 301.047 377.611 301.387 376.85L302.319 374.635C302.998 372.982 303.338 371.893 303.338 371.365C303.338 370.838 303.28 370.492 303.163 370.328C303.057 370.152 302.94 370.018 302.811 369.924L302.459 369.678C302.342 369.596 302.284 369.455 302.284 369.256C302.284 369.045 302.36 368.846 302.512 368.658C302.676 368.471 302.887 368.307 303.145 368.166C303.672 367.896 304.288 367.762 304.991 367.762C306.713 367.762 307.575 368.213 307.575 369.115C307.575 370.17 307.299 371.377 306.748 372.736C306.198 374.084 305.729 375.174 305.342 376.006L304.288 378.432C303.514 380.213 303.127 381.496 303.127 382.281C303.127 382.797 303.385 383.055 303.901 383.055C304.405 383.055 304.786 382.99 305.043 382.861C305.301 382.732 305.489 382.668 305.606 382.668ZM310.194 379.803C310.241 378.783 310.411 377.811 310.704 376.885C310.997 375.947 311.389 375.045 311.881 374.178C312.373 373.299 312.948 372.473 313.604 371.699C314.272 370.914 314.993 370.229 315.766 369.643C317.442 368.389 319.135 367.762 320.846 367.762C322.85 367.762 324.186 368.588 324.854 370.24C325.088 370.803 325.2 371.471 325.188 372.244C325.176 373.006 325.03 373.715 324.748 374.371C324.467 375.016 324.075 375.607 323.571 376.146C323.079 376.674 322.487 377.148 321.795 377.57C321.116 377.992 320.372 378.35 319.563 378.643C317.899 379.229 316.118 379.533 314.219 379.557C314.172 379.721 314.143 379.967 314.131 380.295C314.12 380.623 314.155 380.992 314.237 381.402C314.319 381.801 314.459 382.158 314.659 382.475C315.081 383.178 315.69 383.529 316.487 383.529C317.846 383.529 319.17 383.131 320.459 382.334C320.916 382.064 321.286 381.789 321.567 381.508C321.86 381.215 322.112 381.068 322.323 381.068C322.534 381.068 322.715 381.197 322.868 381.455C323.032 381.701 323.114 381.982 323.114 382.299C323.114 382.92 322.938 383.459 322.586 383.916C321.11 385.393 318.913 386.131 315.995 386.131C314.272 386.131 312.889 385.615 311.846 384.584C310.674 383.412 310.123 381.818 310.194 379.803ZM320.459 370.1C319.229 370.1 318.045 370.943 316.909 372.631C315.948 374.084 315.174 375.807 314.588 377.799C316.545 377.6 318.245 376.826 319.686 375.479C321.01 374.213 321.672 373 321.672 371.84C321.672 370.68 321.268 370.1 320.459 370.1ZM344.559 382.404C344.805 382.404 344.928 382.533 344.928 382.791C344.928 383.799 344.407 384.666 343.364 385.393C342.672 385.885 342.016 386.131 341.395 386.131C340.786 386.131 340.299 386.061 339.936 385.92C339.573 385.779 339.245 385.557 338.952 385.252C338.295 384.549 337.967 383.582 337.967 382.352C337.967 382.105 338.014 381.713 338.108 381.174C337.159 382.639 336.344 383.67 335.664 384.268C334.293 385.51 332.952 386.131 331.639 386.131C329.565 386.131 328.206 385.193 327.561 383.318C327.327 382.627 327.209 381.76 327.209 380.717C327.209 379.674 327.368 378.619 327.684 377.553C328 376.486 328.428 375.473 328.967 374.512C329.518 373.551 330.151 372.66 330.866 371.84C331.592 371.008 332.354 370.287 333.151 369.678C334.862 368.4 336.409 367.762 337.791 367.762C339.174 367.762 340.282 368.324 341.114 369.449C343.153 362.465 344.688 358.346 345.719 357.092C346.153 356.576 346.61 356.318 347.09 356.318C347.887 356.318 348.491 356.547 348.901 357.004C349.03 357.156 349.094 357.309 349.094 357.461C349.094 357.613 349 357.895 348.813 358.305C348.625 358.715 348.35 359.377 347.987 360.291C346.944 363.045 346.211 365.061 345.789 366.338C344.711 369.607 343.985 371.857 343.61 373.088L342.643 376.34C341.811 379.234 341.395 381.074 341.395 381.859C341.395 382.645 341.682 383.037 342.256 383.037C342.784 383.037 343.206 382.967 343.522 382.826L344.19 382.51C344.319 382.439 344.442 382.404 344.559 382.404ZM332.483 383.494C333.69 383.494 335.073 382.316 336.631 379.961C338.26 377.523 339.397 374.869 340.041 371.998C339.995 371.201 339.661 370.615 339.039 370.24C338.829 370.111 338.506 370.047 338.073 370.047C337.651 370.047 337.153 370.205 336.579 370.521C336.016 370.826 335.465 371.242 334.926 371.77C334.399 372.297 333.901 372.918 333.432 373.633C332.975 374.336 332.577 375.086 332.237 375.883C331.498 377.617 331.129 379.322 331.129 380.998C331.129 382.662 331.581 383.494 332.483 383.494ZM352.434 379.17C351.86 379.17 351.573 378.355 351.573 376.727C351.573 374.477 352.164 371.588 353.348 368.061C354.403 364.908 355.598 362.412 356.934 360.572C357.661 359.576 358.381 358.979 359.096 358.779C359.471 358.686 359.817 358.639 360.133 358.639C360.461 358.639 360.748 358.662 360.995 358.709C361.241 358.756 361.457 358.826 361.645 358.92C362.055 359.107 362.26 359.348 362.26 359.641C362.26 359.934 362.143 360.244 361.909 360.572C361.674 360.9 361.299 361.463 360.784 362.26C360.268 363.057 359.664 364.1 358.973 365.389C357.309 368.482 355.686 372.139 354.104 376.357C353.94 376.779 353.799 377.166 353.682 377.518C353.577 377.857 353.465 378.15 353.348 378.396C353.102 378.912 352.797 379.17 352.434 379.17ZM349.498 385.357C349.241 385.1 349.036 384.807 348.883 384.479C348.731 384.139 348.655 383.752 348.655 383.318C348.655 382.873 348.737 382.48 348.901 382.141C349.077 381.789 349.293 381.508 349.551 381.297C350.008 380.922 350.489 380.734 350.993 380.734C351.508 380.734 351.942 380.77 352.293 380.84C352.657 380.91 352.991 381.021 353.295 381.174C354.034 381.549 354.403 382.088 354.403 382.791C354.403 383.67 354.116 384.438 353.541 385.094C353.002 385.703 352.44 386.037 351.854 386.096C351.28 386.154 350.811 386.107 350.448 385.955C350.084 385.814 349.768 385.615 349.498 385.357Z" fill="#202D58"/>
</svg>
