<svg width="66" height="54" viewBox="0 0 66 54" fill="none" xmlns="http://www.w3.org/2000/svg">
<path d="M60.0208 0.276367H5.85417C4.41758 0.276367 3.03983 0.847051 2.024 1.86287C1.00818 2.87869 0.4375 4.25645 0.4375 5.69303V47.9972C0.4375 49.4338 1.00818 50.8115 2.024 51.8274C3.03983 52.8432 4.41758 53.4139 5.85417 53.4139C7.22931 53.406 8.54999 52.8754 9.54833 51.9297L16.9258 44.9747C17.1256 44.7876 17.3888 44.6831 17.6625 44.6822H60.0208C61.4574 44.6822 62.8352 44.1115 63.851 43.0957C64.8668 42.0799 65.4375 40.7021 65.4375 39.2655V5.6822C65.4346 4.24749 64.8627 2.87252 63.8472 1.85904C62.8317 0.845561 61.4555 0.276364 60.0208 0.276367V0.276367ZM61.1042 39.2764C61.1042 39.5637 60.99 39.8392 60.7869 40.0424C60.5837 40.2456 60.3082 40.3597 60.0208 40.3597H17.6842C16.303 40.3591 14.9738 40.8862 13.9683 41.833L6.60167 48.788C6.44777 48.9348 6.25409 49.0329 6.04477 49.0704C5.83546 49.1078 5.61976 49.0828 5.42456 48.9984C5.22936 48.9141 5.06329 48.7742 4.94704 48.5962C4.8308 48.4181 4.76951 48.2098 4.77083 47.9972V5.69303C4.77083 5.40572 4.88497 5.13017 5.08813 4.927C5.2913 4.72384 5.56685 4.6097 5.85417 4.6097H60.0208C60.3082 4.6097 60.5837 4.72384 60.7869 4.927C60.99 5.13017 61.1042 5.40572 61.1042 5.69303V39.2764Z" fill="#202D58"/>
<path d="M39.8708 20.9473H26.0042C25.4295 20.9473 24.8784 21.1755 24.4721 21.5819C24.0658 21.9882 23.8375 22.5393 23.8375 23.1139C23.8375 23.6886 24.0658 24.2397 24.4721 24.646C24.8784 25.0523 25.4295 25.2806 26.0042 25.2806H39.8708C40.4455 25.2806 40.9966 25.0523 41.4029 24.646C41.8092 24.2397 42.0375 23.6886 42.0375 23.1139C42.0375 22.5393 41.8092 21.9882 41.4029 21.5819C40.9966 21.1755 40.4455 20.9473 39.8708 20.9473Z" fill="#202D58"/>
</svg>
