<svg width="67" height="61" viewBox="0 0 67 61" fill="none" xmlns="http://www.w3.org/2000/svg">
<path d="M3.36206 42.5919C0.162063 35.3919 -0.0379372 27.2919 2.76206 19.8919C4.26206 15.9919 6.56206 12.4919 9.46206 9.59193C11.9621 7.09193 15.0621 4.99193 18.3621 3.49193C29.4621 -1.50807 42.7621 0.991934 51.4621 9.59193L48.6621 12.3919C41.1621 4.89193 29.6621 2.79193 20.0621 7.09193C13.7621 9.89193 8.96206 14.8919 6.56206 21.2919C4.06206 27.6919 4.26206 34.6919 7.06206 40.8919C12.8621 53.7919 28.0621 59.6919 40.9621 53.8919C53.0621 48.4919 58.9621 34.8919 54.9621 22.5919L52.6621 28.5919L48.9621 27.1919L53.8621 14.4919L66.6621 19.3919L65.2621 23.0919L58.5621 20.4919C63.7621 34.9919 56.9621 51.2919 42.7621 57.6919C27.5621 64.2919 10.0621 57.5919 3.36206 42.5919Z" fill="#202D58"/>
</svg>
