<svg width="377" height="376" viewBox="0 0 377 376" fill="none" xmlns="http://www.w3.org/2000/svg">
<path d="M376.052 187.937C376.065 291.666 291.987 375.766 188.258 375.779C84.5285 375.793 0.428622 291.714 0.41545 187.985C0.402279 84.2557 84.4808 0.155826 188.21 0.142655C291.939 0.129484 376.039 84.208 376.052 187.937Z" fill="#CCDBED"/>
<path d="M311.469 155.903C311.478 223.964 256.311 279.145 188.249 279.154C120.188 279.163 65.007 223.995 64.9983 155.934C64.9897 87.8732 120.157 32.6917 188.218 32.6831C256.279 32.6744 311.461 87.8419 311.469 155.903Z" fill="#CCDBED"/>
<path d="M110.518 329.431H133.788C137.368 329.431 139.904 328.685 141.395 327.193C142.887 325.701 143.633 323.166 143.633 319.585V148.639H110.518V136.109H143.633V105.231C143.633 85.2425 146.915 68.6849 153.478 55.5581C160.34 42.4313 168.991 32.8846 179.433 26.9178C189.875 20.9511 200.764 17.9678 212.101 17.9678C224.929 17.9678 235.819 21.9953 244.769 30.0504C253.719 37.8071 258.194 48.9947 258.194 63.6132C258.194 71.3699 256.255 77.4858 252.376 81.9608C248.796 86.4359 243.725 88.6734 237.161 88.6734C231.791 88.6734 227.316 87.0326 223.736 83.7509C220.454 80.1708 218.814 75.5466 218.814 69.8782C218.814 66.8949 219.559 63.9115 221.051 60.9282C222.543 57.9448 224.482 55.5581 226.869 53.7681C231.642 51.0831 234.029 47.503 234.029 43.028C234.029 37.9563 231.642 34.3762 226.869 32.2879C222.394 29.9012 217.173 28.7079 211.206 28.7079C201.361 28.7079 193.008 33.4812 186.146 43.028C179.284 52.5747 175.853 69.1324 175.853 92.7009V136.109V148.639V319.585C175.853 323.166 176.599 325.701 178.091 327.193C179.582 328.685 182.118 329.431 185.698 329.431H217.919V340.171H110.518V329.431Z" fill="#202D58"/>
<path d="M171.073 329.431H189.868C193.448 329.431 195.984 328.685 197.476 327.193C198.968 325.701 199.714 323.166 199.714 319.585V158.484C199.714 154.904 198.968 152.368 197.476 150.876C195.984 149.385 193.448 148.639 189.868 148.639H171.073V136.109H231.934V180.859L233.724 181.307C239.989 165.793 248.044 153.561 257.889 144.611C268.032 135.363 278.773 130.739 290.109 130.739C301.446 130.739 310.695 134.02 317.855 140.584C325.015 147.147 328.595 156.097 328.595 167.434C328.595 173.998 326.208 180.412 321.435 186.677C316.96 192.942 311.142 196.074 303.982 196.074C298.314 196.074 293.54 194.583 289.662 191.599C285.783 188.616 283.844 184.439 283.844 179.069C283.844 172.804 286.828 167.434 292.794 162.959C295.479 161.169 297.419 159.528 298.612 158.037C300.104 156.545 300.849 154.606 300.849 152.219C300.849 149.534 299.507 147.446 296.822 145.954C294.435 144.164 291.004 143.269 286.529 143.269C277.281 143.269 268.331 147.744 259.679 156.694C251.326 165.644 244.613 177.279 239.541 191.599C234.47 205.919 231.934 220.836 231.934 236.35V319.585C231.934 323.166 232.68 325.701 234.171 327.193C235.663 328.685 238.199 329.431 241.779 329.431H260.574V340.171H171.073V329.431Z" fill="#202D58"/>
</svg>
