<svg width="264" height="323" viewBox="0 0 264 323" fill="none" xmlns="http://www.w3.org/2000/svg">
<path d="M246.681 138.434C246.689 206.495 191.522 261.677 123.461 261.685C55.3997 261.694 0.21826 206.527 0.209618 138.465C0.200976 70.4044 55.3684 15.223 123.429 15.2143C191.491 15.2057 246.672 70.3731 246.681 138.434Z" fill="#CCDBED"/>
<path d="M45.7289 311.962H68.9991C72.5791 311.962 75.115 311.216 76.6067 309.724C78.0983 308.233 78.8442 305.697 78.8442 302.117V131.17H45.7289V118.64H78.8442V87.7623C78.8442 67.7738 82.1259 51.2161 88.6893 38.0894C95.551 24.9626 104.203 15.4158 114.645 9.44909C125.086 3.48238 135.976 0.499023 147.312 0.499023C160.141 0.499023 171.03 4.52656 179.98 12.5816C188.93 20.3384 193.405 31.526 193.405 46.1444C193.405 53.9012 191.466 60.0171 187.588 64.4921C184.008 68.9671 178.936 71.2047 172.373 71.2047C167.003 71.2047 162.527 69.5638 158.947 66.2821C155.666 62.7021 154.025 58.0779 154.025 52.4095C154.025 49.4261 154.771 46.4428 156.262 43.4594C157.754 40.4761 159.693 38.0894 162.08 36.2993C166.853 33.6143 169.24 30.0343 169.24 25.5592C169.24 20.4875 166.853 16.9075 162.08 14.8192C157.605 12.4325 152.384 11.2391 146.417 11.2391C136.572 11.2391 128.219 16.0125 121.357 25.5592C114.495 35.106 111.064 51.6637 111.064 75.2322V118.64V131.17V302.117C111.064 305.697 111.81 308.233 113.302 309.724C114.794 311.216 117.33 311.962 120.91 311.962H153.13V322.702H45.7289V311.962Z" fill="#202D58"/>
<path d="M106.285 311.962H125.08C128.66 311.962 131.196 311.216 132.687 309.724C134.179 308.233 134.925 305.697 134.925 302.117V141.015C134.925 137.435 134.179 134.899 132.687 133.408C131.196 131.916 128.66 131.17 125.08 131.17H106.285V118.64H167.145V163.391L168.935 163.838C175.2 148.325 183.255 136.093 193.1 127.143C203.244 117.894 213.984 113.27 225.321 113.27C236.657 113.27 245.906 116.552 253.066 123.115C260.226 129.679 263.806 138.629 263.806 149.965C263.806 156.529 261.419 162.943 256.646 169.208C252.171 175.473 246.353 178.606 239.193 178.606C233.525 178.606 228.752 177.114 224.873 174.131C220.995 171.147 219.056 166.971 219.056 161.6C219.056 155.335 222.039 149.965 228.006 145.49C230.691 143.7 232.63 142.059 233.823 140.568C235.315 139.076 236.061 137.137 236.061 134.75C236.061 132.065 234.718 129.977 232.033 128.485C229.647 126.695 226.216 125.8 221.741 125.8C212.492 125.8 203.542 130.275 194.89 139.225C186.537 148.175 179.824 159.81 174.753 174.131C169.681 188.451 167.145 203.368 167.145 218.881V302.117C167.145 305.697 167.891 308.233 169.383 309.724C170.874 311.216 173.41 311.962 176.99 311.962H195.785V322.702H106.285V311.962Z" fill="#202D58"/>
</svg>
