<svg width="322" height="323" viewBox="0 0 322 323" fill="none" xmlns="http://www.w3.org/2000/svg">
<path d="M322 0H0V323H322V0Z" fill="white"/>
<path d="M43.0814 34.4531H34.3467V43.215H43.0814V34.4531Z" fill="black"/>
<path d="M51.8161 34.4531H43.0814V43.215H51.8161V34.4531Z" fill="black"/>
<path d="M60.5508 34.4531H51.8161V43.215H60.5508V34.4531Z" fill="black"/>
<path d="M69.2855 34.4531H60.5508V43.215H69.2855V34.4531Z" fill="black"/>
<path d="M78.0202 34.4531H69.2855V43.215H78.0202V34.4531Z" fill="black"/>
<path d="M86.755 34.4531H78.0202V43.215H86.755V34.4531Z" fill="black"/>
<path d="M95.4897 34.4531H86.755V43.215H95.4897V34.4531Z" fill="black"/>
<path d="M112.959 34.4531H104.224V43.215H112.959V34.4531Z" fill="black"/>
<path d="M139.163 34.4531H130.429V43.215H139.163V34.4531Z" fill="black"/>
<path d="M147.898 34.4531H139.163V43.215H147.898V34.4531Z" fill="black"/>
<path d="M156.633 34.4531H147.898V43.215H156.633V34.4531Z" fill="black"/>
<path d="M174.102 34.4531H165.367V43.215H174.102V34.4531Z" fill="black"/>
<path d="M200.306 34.4531H191.572V43.215H200.306V34.4531Z" fill="black"/>
<path d="M235.245 34.4531H226.51V43.215H235.245V34.4531Z" fill="black"/>
<path d="M243.98 34.4531H235.245V43.215H243.98V34.4531Z" fill="black"/>
<path d="M252.714 34.4531H243.98V43.215H252.714V34.4531Z" fill="black"/>
<path d="M261.449 34.4531H252.714V43.215H261.449V34.4531Z" fill="black"/>
<path d="M270.184 34.4531H261.449V43.215H270.184V34.4531Z" fill="black"/>
<path d="M278.919 34.4531H270.184V43.215H278.919V34.4531Z" fill="black"/>
<path d="M287.653 34.4531H278.919V43.215H287.653V34.4531Z" fill="black"/>
<path d="M43.0814 43.215H34.3467V51.9768H43.0814V43.215Z" fill="black"/>
<path d="M95.4897 43.215H86.755V51.9768H95.4897V43.215Z" fill="black"/>
<path d="M121.694 43.215H112.959V51.9768H121.694V43.215Z" fill="black"/>
<path d="M130.429 43.215H121.694V51.9768H130.429V43.215Z" fill="black"/>
<path d="M139.163 43.215H130.429V51.9768H139.163V43.215Z" fill="black"/>
<path d="M165.367 43.215H156.633V51.9768H165.367V43.215Z" fill="black"/>
<path d="M182.837 43.215H174.102V51.9768H182.837V43.215Z" fill="black"/>
<path d="M191.572 43.215H182.837V51.9768H191.572V43.215Z" fill="black"/>
<path d="M217.776 43.215H209.041V51.9768H217.776V43.215Z" fill="black"/>
<path d="M235.245 43.215H226.51V51.9768H235.245V43.215Z" fill="black"/>
<path d="M287.653 43.215H278.919V51.9768H287.653V43.215Z" fill="black"/>
<path d="M43.0814 51.9768H34.3467V60.7386H43.0814V51.9768Z" fill="black"/>
<path d="M60.5508 51.9768H51.8161V60.7386H60.5508V51.9768Z" fill="black"/>
<path d="M69.2855 51.9768H60.5508V60.7386H69.2855V51.9768Z" fill="black"/>
<path d="M78.0202 51.9768H69.2855V60.7386H78.0202V51.9768Z" fill="black"/>
<path d="M95.4897 51.9768H86.755V60.7386H95.4897V51.9768Z" fill="black"/>
<path d="M112.959 51.9768H104.224V60.7386H112.959V51.9768Z" fill="black"/>
<path d="M139.163 51.9768H130.429V60.7386H139.163V51.9768Z" fill="black"/>
<path d="M200.306 51.9768H191.572V60.7386H200.306V51.9768Z" fill="black"/>
<path d="M217.776 51.9768H209.041V60.7386H217.776V51.9768Z" fill="black"/>
<path d="M235.245 51.9768H226.51V60.7386H235.245V51.9768Z" fill="black"/>
<path d="M252.714 51.9768H243.98V60.7386H252.714V51.9768Z" fill="black"/>
<path d="M261.449 51.9768H252.714V60.7386H261.449V51.9768Z" fill="black"/>
<path d="M270.184 51.9768H261.449V60.7386H270.184V51.9768Z" fill="black"/>
<path d="M287.653 51.9768H278.919V60.7386H287.653V51.9768Z" fill="black"/>
<path d="M43.0814 60.7386H34.3467V69.5005H43.0814V60.7386Z" fill="black"/>
<path d="M60.5508 60.7386H51.8161V69.5005H60.5508V60.7386Z" fill="black"/>
<path d="M69.2855 60.7386H60.5508V69.5005H69.2855V60.7386Z" fill="black"/>
<path d="M78.0202 60.7386H69.2855V69.5005H78.0202V60.7386Z" fill="black"/>
<path d="M95.4897 60.7386H86.755V69.5005H95.4897V60.7386Z" fill="black"/>
<path d="M112.959 60.7386H104.224V69.5005H112.959V60.7386Z" fill="black"/>
<path d="M165.367 60.7386H156.633V69.5005H165.367V60.7386Z" fill="black"/>
<path d="M174.102 60.7386H165.367V69.5005H174.102V60.7386Z" fill="black"/>
<path d="M191.572 60.7386H182.837V69.5005H191.572V60.7386Z" fill="black"/>
<path d="M235.245 60.7386H226.51V69.5005H235.245V60.7386Z" fill="black"/>
<path d="M252.714 60.7386H243.98V69.5005H252.714V60.7386Z" fill="black"/>
<path d="M261.449 60.7386H252.714V69.5005H261.449V60.7386Z" fill="black"/>
<path d="M270.184 60.7386H261.449V69.5005H270.184V60.7386Z" fill="black"/>
<path d="M287.653 60.7386H278.919V69.5005H287.653V60.7386Z" fill="black"/>
<path d="M43.0814 69.5005H34.3467V78.2623H43.0814V69.5005Z" fill="black"/>
<path d="M60.5508 69.5005H51.8161V78.2623H60.5508V69.5005Z" fill="black"/>
<path d="M69.2855 69.5005H60.5508V78.2623H69.2855V69.5005Z" fill="black"/>
<path d="M78.0202 69.5005H69.2855V78.2623H78.0202V69.5005Z" fill="black"/>
<path d="M95.4897 69.5005H86.755V78.2623H95.4897V69.5005Z" fill="black"/>
<path d="M121.694 69.5005H112.959V78.2623H121.694V69.5005Z" fill="black"/>
<path d="M130.429 69.5005H121.694V78.2623H130.429V69.5005Z" fill="black"/>
<path d="M147.898 69.5005H139.163V78.2623H147.898V69.5005Z" fill="black"/>
<path d="M156.633 69.5005H147.898V78.2623H156.633V69.5005Z" fill="black"/>
<path d="M165.367 69.5005H156.633V78.2623H165.367V69.5005Z" fill="black"/>
<path d="M174.102 69.5005H165.367V78.2623H174.102V69.5005Z" fill="black"/>
<path d="M182.837 69.5005H174.102V78.2623H182.837V69.5005Z" fill="black"/>
<path d="M235.245 69.5005H226.51V78.2623H235.245V69.5005Z" fill="black"/>
<path d="M252.714 69.5005H243.98V78.2623H252.714V69.5005Z" fill="black"/>
<path d="M261.449 69.5005H252.714V78.2623H261.449V69.5005Z" fill="black"/>
<path d="M270.184 69.5005H261.449V78.2623H270.184V69.5005Z" fill="black"/>
<path d="M287.653 69.5005H278.919V78.2623H287.653V69.5005Z" fill="black"/>
<path d="M43.0814 78.2623H34.3467V87.0242H43.0814V78.2623Z" fill="black"/>
<path d="M95.4897 78.2623H86.755V87.0242H95.4897V78.2623Z" fill="black"/>
<path d="M112.959 78.2623H104.224V87.0242H112.959V78.2623Z" fill="black"/>
<path d="M121.694 78.2623H112.959V87.0242H121.694V78.2623Z" fill="black"/>
<path d="M130.429 78.2623H121.694V87.0242H130.429V78.2623Z" fill="black"/>
<path d="M139.163 78.2623H130.429V87.0242H139.163V78.2623Z" fill="black"/>
<path d="M156.633 78.2623H147.898V87.0242H156.633V78.2623Z" fill="black"/>
<path d="M182.837 78.2623H174.102V87.0242H182.837V78.2623Z" fill="black"/>
<path d="M191.572 78.2623H182.837V87.0242H191.572V78.2623Z" fill="black"/>
<path d="M209.041 78.2623H200.306V87.0242H209.041V78.2623Z" fill="black"/>
<path d="M235.245 78.2623H226.51V87.0242H235.245V78.2623Z" fill="black"/>
<path d="M287.653 78.2623H278.919V87.0242H287.653V78.2623Z" fill="black"/>
<path d="M43.0814 87.0242H34.3467V95.786H43.0814V87.0242Z" fill="black"/>
<path d="M51.8161 87.0242H43.0814V95.786H51.8161V87.0242Z" fill="black"/>
<path d="M60.5508 87.0242H51.8161V95.786H60.5508V87.0242Z" fill="black"/>
<path d="M69.2855 87.0242H60.5508V95.786H69.2855V87.0242Z" fill="black"/>
<path d="M78.0202 87.0242H69.2855V95.786H78.0202V87.0242Z" fill="black"/>
<path d="M86.755 87.0242H78.0202V95.786H86.755V87.0242Z" fill="black"/>
<path d="M95.4897 87.0242H86.755V95.786H95.4897V87.0242Z" fill="black"/>
<path d="M112.959 87.0242H104.224V95.786H112.959V87.0242Z" fill="black"/>
<path d="M130.429 87.0242H121.694V95.786H130.429V87.0242Z" fill="black"/>
<path d="M147.898 87.0242H139.163V95.786H147.898V87.0242Z" fill="black"/>
<path d="M165.367 87.0242H156.633V95.786H165.367V87.0242Z" fill="black"/>
<path d="M182.837 87.0242H174.102V95.786H182.837V87.0242Z" fill="black"/>
<path d="M200.306 87.0242H191.572V95.786H200.306V87.0242Z" fill="black"/>
<path d="M217.776 87.0242H209.041V95.786H217.776V87.0242Z" fill="black"/>
<path d="M235.245 87.0242H226.51V95.786H235.245V87.0242Z" fill="black"/>
<path d="M243.98 87.0242H235.245V95.786H243.98V87.0242Z" fill="black"/>
<path d="M252.714 87.0242H243.98V95.786H252.714V87.0242Z" fill="black"/>
<path d="M261.449 87.0242H252.714V95.786H261.449V87.0242Z" fill="black"/>
<path d="M270.184 87.0242H261.449V95.786H270.184V87.0242Z" fill="black"/>
<path d="M278.919 87.0242H270.184V95.786H278.919V87.0242Z" fill="black"/>
<path d="M287.653 87.0242H278.919V95.786H287.653V87.0242Z" fill="black"/>
<path d="M112.959 95.786H104.224V104.548H112.959V95.786Z" fill="black"/>
<path d="M139.163 95.786H130.429V104.548H139.163V95.786Z" fill="black"/>
<path d="M147.898 95.786H139.163V104.548H147.898V95.786Z" fill="black"/>
<path d="M156.633 95.786H147.898V104.548H156.633V95.786Z" fill="black"/>
<path d="M165.367 95.786H156.633V104.548H165.367V95.786Z" fill="black"/>
<path d="M174.102 95.786H165.367V104.548H174.102V95.786Z" fill="black"/>
<path d="M182.837 95.786H174.102V104.548H182.837V95.786Z" fill="black"/>
<path d="M217.776 95.786H209.041V104.548H217.776V95.786Z" fill="black"/>
<path d="M43.0814 104.548H34.3467V113.31H43.0814V104.548Z" fill="black"/>
<path d="M51.8161 104.548H43.0814V113.31H51.8161V104.548Z" fill="black"/>
<path d="M69.2855 104.548H60.5508V113.31H69.2855V104.548Z" fill="black"/>
<path d="M95.4897 104.548H86.755V113.31H95.4897V104.548Z" fill="black"/>
<path d="M104.224 104.548H95.4897V113.31H104.224V104.548Z" fill="black"/>
<path d="M121.694 104.548H112.959V113.31H121.694V104.548Z" fill="black"/>
<path d="M147.898 104.548H139.163V113.31H147.898V104.548Z" fill="black"/>
<path d="M156.633 104.548H147.898V113.31H156.633V104.548Z" fill="black"/>
<path d="M217.776 104.548H209.041V113.31H217.776V104.548Z" fill="black"/>
<path d="M226.51 104.548H217.776V113.31H226.51V104.548Z" fill="black"/>
<path d="M235.245 104.548H226.51V113.31H235.245V104.548Z" fill="black"/>
<path d="M243.98 104.548H235.245V113.31H243.98V104.548Z" fill="black"/>
<path d="M261.449 104.548H252.714V113.31H261.449V104.548Z" fill="black"/>
<path d="M270.184 104.548H261.449V113.31H270.184V104.548Z" fill="black"/>
<path d="M287.653 104.548H278.919V113.31H287.653V104.548Z" fill="black"/>
<path d="M51.8161 113.31H43.0814V122.072H51.8161V113.31Z" fill="black"/>
<path d="M69.2855 113.31H60.5508V122.072H69.2855V113.31Z" fill="black"/>
<path d="M112.959 113.31H104.224V122.072H112.959V113.31Z" fill="black"/>
<path d="M121.694 113.31H112.959V122.072H121.694V113.31Z" fill="black"/>
<path d="M130.429 113.31H121.694V122.072H130.429V113.31Z" fill="black"/>
<path d="M139.163 113.31H130.429V122.072H139.163V113.31Z" fill="black"/>
<path d="M147.898 113.31H139.163V122.072H147.898V113.31Z" fill="black"/>
<path d="M156.633 113.31H147.898V122.072H156.633V113.31Z" fill="black"/>
<path d="M165.367 113.31H156.633V122.072H165.367V113.31Z" fill="black"/>
<path d="M174.102 113.31H165.367V122.072H174.102V113.31Z" fill="black"/>
<path d="M191.572 113.31H182.837V122.072H191.572V113.31Z" fill="black"/>
<path d="M200.306 113.31H191.572V122.072H200.306V113.31Z" fill="black"/>
<path d="M209.041 113.31H200.306V122.072H209.041V113.31Z" fill="black"/>
<path d="M217.776 113.31H209.041V122.072H217.776V113.31Z" fill="black"/>
<path d="M226.51 113.31H217.776V122.072H226.51V113.31Z" fill="black"/>
<path d="M235.245 113.31H226.51V122.072H235.245V113.31Z" fill="black"/>
<path d="M243.98 113.31H235.245V122.072H243.98V113.31Z" fill="black"/>
<path d="M261.449 113.31H252.714V122.072H261.449V113.31Z" fill="black"/>
<path d="M270.184 113.31H261.449V122.072H270.184V113.31Z" fill="black"/>
<path d="M278.919 113.31H270.184V122.072H278.919V113.31Z" fill="black"/>
<path d="M60.5508 122.072H51.8161V130.833H60.5508V122.072Z" fill="black"/>
<path d="M95.4897 122.072H86.755V130.833H95.4897V122.072Z" fill="black"/>
<path d="M121.694 122.072H112.959V130.833H121.694V122.072Z" fill="black"/>
<path d="M139.163 122.072H130.429V130.833H139.163V122.072Z" fill="black"/>
<path d="M147.898 122.072H139.163V130.833H147.898V122.072Z" fill="black"/>
<path d="M156.633 122.072H147.898V130.833H156.633V122.072Z" fill="black"/>
<path d="M174.102 122.072H165.367V130.833H174.102V122.072Z" fill="black"/>
<path d="M191.572 122.072H182.837V130.833H191.572V122.072Z" fill="black"/>
<path d="M217.776 122.072H209.041V130.833H217.776V122.072Z" fill="black"/>
<path d="M243.98 122.072H235.245V130.833H243.98V122.072Z" fill="black"/>
<path d="M252.714 122.072H243.98V130.833H252.714V122.072Z" fill="black"/>
<path d="M261.449 122.072H252.714V130.833H261.449V122.072Z" fill="black"/>
<path d="M278.919 122.072H270.184V130.833H278.919V122.072Z" fill="black"/>
<path d="M287.653 122.072H278.919V130.833H287.653V122.072Z" fill="black"/>
<path d="M43.0814 130.833H34.3467V139.595H43.0814V130.833Z" fill="black"/>
<path d="M60.5508 130.833H51.8161V139.595H60.5508V130.833Z" fill="black"/>
<path d="M69.2855 130.833H60.5508V139.595H69.2855V130.833Z" fill="black"/>
<path d="M104.224 130.833H95.4897V139.595H104.224V130.833Z" fill="black"/>
<path d="M139.163 130.833H130.429V139.595H139.163V130.833Z" fill="black"/>
<path d="M147.898 130.833H139.163V139.595H147.898V130.833Z" fill="black"/>
<path d="M156.633 130.833H147.898V139.595H156.633V130.833Z" fill="black"/>
<path d="M165.367 130.833H156.633V139.595H165.367V130.833Z" fill="black"/>
<path d="M191.572 130.833H182.837V139.595H191.572V130.833Z" fill="black"/>
<path d="M200.306 130.833H191.572V139.595H200.306V130.833Z" fill="black"/>
<path d="M209.041 130.833H200.306V139.595H209.041V130.833Z" fill="black"/>
<path d="M217.776 130.833H209.041V139.595H217.776V130.833Z" fill="black"/>
<path d="M226.51 130.833H217.776V139.595H226.51V130.833Z" fill="black"/>
<path d="M243.98 130.833H235.245V139.595H243.98V130.833Z" fill="black"/>
<path d="M261.449 130.833H252.714V139.595H261.449V130.833Z" fill="black"/>
<path d="M270.184 130.833H261.449V139.595H270.184V130.833Z" fill="black"/>
<path d="M43.0814 139.595H34.3467V148.357H43.0814V139.595Z" fill="black"/>
<path d="M60.5508 139.595H51.8161V148.357H60.5508V139.595Z" fill="black"/>
<path d="M95.4897 139.595H86.755V148.357H95.4897V139.595Z" fill="black"/>
<path d="M121.694 139.595H112.959V148.357H121.694V139.595Z" fill="black"/>
<path d="M130.429 139.595H121.694V148.357H130.429V139.595Z" fill="black"/>
<path d="M139.163 139.595H130.429V148.357H139.163V139.595Z" fill="black"/>
<path d="M156.633 139.595H147.898V148.357H156.633V139.595Z" fill="black"/>
<path d="M165.367 139.595H156.633V148.357H165.367V139.595Z" fill="black"/>
<path d="M182.837 139.595H174.102V148.357H182.837V139.595Z" fill="black"/>
<path d="M217.776 139.595H209.041V148.357H217.776V139.595Z" fill="black"/>
<path d="M226.51 139.595H217.776V148.357H226.51V139.595Z" fill="black"/>
<path d="M235.245 139.595H226.51V148.357H235.245V139.595Z" fill="black"/>
<path d="M243.98 139.595H235.245V148.357H243.98V139.595Z" fill="black"/>
<path d="M252.714 139.595H243.98V148.357H252.714V139.595Z" fill="black"/>
<path d="M270.184 139.595H261.449V148.357H270.184V139.595Z" fill="black"/>
<path d="M278.919 139.595H270.184V148.357H278.919V139.595Z" fill="black"/>
<path d="M287.653 139.595H278.919V148.357H287.653V139.595Z" fill="black"/>
<path d="M43.0814 148.357H34.3467V157.119H43.0814V148.357Z" fill="black"/>
<path d="M51.8161 148.357H43.0814V157.119H51.8161V148.357Z" fill="black"/>
<path d="M86.755 148.357H78.0202V157.119H86.755V148.357Z" fill="black"/>
<path d="M112.959 148.357H104.224V157.119H112.959V148.357Z" fill="black"/>
<path d="M121.694 148.357H112.959V157.119H121.694V148.357Z" fill="black"/>
<path d="M130.429 148.357H121.694V157.119H130.429V148.357Z" fill="black"/>
<path d="M165.367 148.357H156.633V157.119H165.367V148.357Z" fill="black"/>
<path d="M200.306 148.357H191.572V157.119H200.306V148.357Z" fill="black"/>
<path d="M209.041 148.357H200.306V157.119H209.041V148.357Z" fill="black"/>
<path d="M217.776 148.357H209.041V157.119H217.776V148.357Z" fill="black"/>
<path d="M243.98 148.357H235.245V157.119H243.98V148.357Z" fill="black"/>
<path d="M261.449 148.357H252.714V157.119H261.449V148.357Z" fill="black"/>
<path d="M43.0814 157.119H34.3467V165.881H43.0814V157.119Z" fill="black"/>
<path d="M69.2855 157.119H60.5508V165.881H69.2855V157.119Z" fill="black"/>
<path d="M78.0202 157.119H69.2855V165.881H78.0202V157.119Z" fill="black"/>
<path d="M95.4897 157.119H86.755V165.881H95.4897V157.119Z" fill="black"/>
<path d="M121.694 157.119H112.959V165.881H121.694V157.119Z" fill="black"/>
<path d="M147.898 157.119H139.163V165.881H147.898V157.119Z" fill="black"/>
<path d="M156.633 157.119H147.898V165.881H156.633V157.119Z" fill="black"/>
<path d="M174.102 157.119H165.367V165.881H174.102V157.119Z" fill="black"/>
<path d="M182.837 157.119H174.102V165.881H182.837V157.119Z" fill="black"/>
<path d="M191.572 157.119H182.837V165.881H191.572V157.119Z" fill="black"/>
<path d="M200.306 157.119H191.572V165.881H200.306V157.119Z" fill="black"/>
<path d="M209.041 157.119H200.306V165.881H209.041V157.119Z" fill="black"/>
<path d="M217.776 157.119H209.041V165.881H217.776V157.119Z" fill="black"/>
<path d="M235.245 157.119H226.51V165.881H235.245V157.119Z" fill="black"/>
<path d="M243.98 157.119H235.245V165.881H243.98V157.119Z" fill="black"/>
<path d="M43.0814 165.881H34.3467V174.643H43.0814V165.881Z" fill="black"/>
<path d="M69.2855 165.881H60.5508V174.643H69.2855V165.881Z" fill="black"/>
<path d="M86.755 165.881H78.0202V174.643H86.755V165.881Z" fill="black"/>
<path d="M104.224 165.881H95.4897V174.643H104.224V165.881Z" fill="black"/>
<path d="M112.959 165.881H104.224V174.643H112.959V165.881Z" fill="black"/>
<path d="M121.694 165.881H112.959V174.643H121.694V165.881Z" fill="black"/>
<path d="M147.898 165.881H139.163V174.643H147.898V165.881Z" fill="black"/>
<path d="M156.633 165.881H147.898V174.643H156.633V165.881Z" fill="black"/>
<path d="M191.572 165.881H182.837V174.643H191.572V165.881Z" fill="black"/>
<path d="M200.306 165.881H191.572V174.643H200.306V165.881Z" fill="black"/>
<path d="M217.776 165.881H209.041V174.643H217.776V165.881Z" fill="black"/>
<path d="M261.449 165.881H252.714V174.643H261.449V165.881Z" fill="black"/>
<path d="M287.653 165.881H278.919V174.643H287.653V165.881Z" fill="black"/>
<path d="M51.8161 174.643H43.0814V183.404H51.8161V174.643Z" fill="black"/>
<path d="M60.5508 174.643H51.8161V183.404H60.5508V174.643Z" fill="black"/>
<path d="M78.0202 174.643H69.2855V183.404H78.0202V174.643Z" fill="black"/>
<path d="M86.755 174.643H78.0202V183.404H86.755V174.643Z" fill="black"/>
<path d="M95.4897 174.643H86.755V183.404H95.4897V174.643Z" fill="black"/>
<path d="M104.224 174.643H95.4897V183.404H104.224V174.643Z" fill="black"/>
<path d="M112.959 174.643H104.224V183.404H112.959V174.643Z" fill="black"/>
<path d="M130.429 174.643H121.694V183.404H130.429V174.643Z" fill="black"/>
<path d="M156.633 174.643H147.898V183.404H156.633V174.643Z" fill="black"/>
<path d="M165.367 174.643H156.633V183.404H165.367V174.643Z" fill="black"/>
<path d="M174.102 174.643H165.367V183.404H174.102V174.643Z" fill="black"/>
<path d="M182.837 174.643H174.102V183.404H182.837V174.643Z" fill="black"/>
<path d="M200.306 174.643H191.572V183.404H200.306V174.643Z" fill="black"/>
<path d="M217.776 174.643H209.041V183.404H217.776V174.643Z" fill="black"/>
<path d="M226.51 174.643H217.776V183.404H226.51V174.643Z" fill="black"/>
<path d="M261.449 174.643H252.714V183.404H261.449V174.643Z" fill="black"/>
<path d="M278.919 174.643H270.184V183.404H278.919V174.643Z" fill="black"/>
<path d="M69.2855 183.404H60.5508V192.166H69.2855V183.404Z" fill="black"/>
<path d="M78.0202 183.404H69.2855V192.166H78.0202V183.404Z" fill="black"/>
<path d="M104.224 183.404H95.4897V192.166H104.224V183.404Z" fill="black"/>
<path d="M112.959 183.404H104.224V192.166H112.959V183.404Z" fill="black"/>
<path d="M130.429 183.404H121.694V192.166H130.429V183.404Z" fill="black"/>
<path d="M147.898 183.404H139.163V192.166H147.898V183.404Z" fill="black"/>
<path d="M156.633 183.404H147.898V192.166H156.633V183.404Z" fill="black"/>
<path d="M191.572 183.404H182.837V192.166H191.572V183.404Z" fill="black"/>
<path d="M209.041 183.404H200.306V192.166H209.041V183.404Z" fill="black"/>
<path d="M217.776 183.404H209.041V192.166H217.776V183.404Z" fill="black"/>
<path d="M226.51 183.404H217.776V192.166H226.51V183.404Z" fill="black"/>
<path d="M252.714 183.404H243.98V192.166H252.714V183.404Z" fill="black"/>
<path d="M261.449 183.404H252.714V192.166H261.449V183.404Z" fill="black"/>
<path d="M270.184 183.404H261.449V192.166H270.184V183.404Z" fill="black"/>
<path d="M51.8161 192.166H43.0814V200.928H51.8161V192.166Z" fill="black"/>
<path d="M60.5508 192.166H51.8161V200.928H60.5508V192.166Z" fill="black"/>
<path d="M86.755 192.166H78.0202V200.928H86.755V192.166Z" fill="black"/>
<path d="M95.4897 192.166H86.755V200.928H95.4897V192.166Z" fill="black"/>
<path d="M104.224 192.166H95.4897V200.928H104.224V192.166Z" fill="black"/>
<path d="M112.959 192.166H104.224V200.928H112.959V192.166Z" fill="black"/>
<path d="M121.694 192.166H112.959V200.928H121.694V192.166Z" fill="black"/>
<path d="M130.429 192.166H121.694V200.928H130.429V192.166Z" fill="black"/>
<path d="M165.367 192.166H156.633V200.928H165.367V192.166Z" fill="black"/>
<path d="M174.102 192.166H165.367V200.928H174.102V192.166Z" fill="black"/>
<path d="M182.837 192.166H174.102V200.928H182.837V192.166Z" fill="black"/>
<path d="M200.306 192.166H191.572V200.928H200.306V192.166Z" fill="black"/>
<path d="M209.041 192.166H200.306V200.928H209.041V192.166Z" fill="black"/>
<path d="M217.776 192.166H209.041V200.928H217.776V192.166Z" fill="black"/>
<path d="M226.51 192.166H217.776V200.928H226.51V192.166Z" fill="black"/>
<path d="M235.245 192.166H226.51V200.928H235.245V192.166Z" fill="black"/>
<path d="M270.184 192.166H261.449V200.928H270.184V192.166Z" fill="black"/>
<path d="M43.0814 200.928H34.3467V209.69H43.0814V200.928Z" fill="black"/>
<path d="M69.2855 200.928H60.5508V209.69H69.2855V200.928Z" fill="black"/>
<path d="M78.0202 200.928H69.2855V209.69H78.0202V200.928Z" fill="black"/>
<path d="M86.755 200.928H78.0202V209.69H86.755V200.928Z" fill="black"/>
<path d="M112.959 200.928H104.224V209.69H112.959V200.928Z" fill="black"/>
<path d="M121.694 200.928H112.959V209.69H121.694V200.928Z" fill="black"/>
<path d="M139.163 200.928H130.429V209.69H139.163V200.928Z" fill="black"/>
<path d="M147.898 200.928H139.163V209.69H147.898V200.928Z" fill="black"/>
<path d="M156.633 200.928H147.898V209.69H156.633V200.928Z" fill="black"/>
<path d="M165.367 200.928H156.633V209.69H165.367V200.928Z" fill="black"/>
<path d="M174.102 200.928H165.367V209.69H174.102V200.928Z" fill="black"/>
<path d="M182.837 200.928H174.102V209.69H182.837V200.928Z" fill="black"/>
<path d="M217.776 200.928H209.041V209.69H217.776V200.928Z" fill="black"/>
<path d="M235.245 200.928H226.51V209.69H235.245V200.928Z" fill="black"/>
<path d="M270.184 200.928H261.449V209.69H270.184V200.928Z" fill="black"/>
<path d="M278.919 200.928H270.184V209.69H278.919V200.928Z" fill="black"/>
<path d="M287.653 200.928H278.919V209.69H287.653V200.928Z" fill="black"/>
<path d="M43.0814 209.69H34.3467V218.452H43.0814V209.69Z" fill="black"/>
<path d="M51.8161 209.69H43.0814V218.452H51.8161V209.69Z" fill="black"/>
<path d="M60.5508 209.69H51.8161V218.452H60.5508V209.69Z" fill="black"/>
<path d="M78.0202 209.69H69.2855V218.452H78.0202V209.69Z" fill="black"/>
<path d="M86.755 209.69H78.0202V218.452H86.755V209.69Z" fill="black"/>
<path d="M95.4897 209.69H86.755V218.452H95.4897V209.69Z" fill="black"/>
<path d="M104.224 209.69H95.4897V218.452H104.224V209.69Z" fill="black"/>
<path d="M121.694 209.69H112.959V218.452H121.694V209.69Z" fill="black"/>
<path d="M130.429 209.69H121.694V218.452H130.429V209.69Z" fill="black"/>
<path d="M165.367 209.69H156.633V218.452H165.367V209.69Z" fill="black"/>
<path d="M182.837 209.69H174.102V218.452H182.837V209.69Z" fill="black"/>
<path d="M191.572 209.69H182.837V218.452H191.572V209.69Z" fill="black"/>
<path d="M200.306 209.69H191.572V218.452H200.306V209.69Z" fill="black"/>
<path d="M209.041 209.69H200.306V218.452H209.041V209.69Z" fill="black"/>
<path d="M217.776 209.69H209.041V218.452H217.776V209.69Z" fill="black"/>
<path d="M226.51 209.69H217.776V218.452H226.51V209.69Z" fill="black"/>
<path d="M235.245 209.69H226.51V218.452H235.245V209.69Z" fill="black"/>
<path d="M243.98 209.69H235.245V218.452H243.98V209.69Z" fill="black"/>
<path d="M252.714 209.69H243.98V218.452H252.714V209.69Z" fill="black"/>
<path d="M278.919 209.69H270.184V218.452H278.919V209.69Z" fill="black"/>
<path d="M287.653 209.69H278.919V218.452H287.653V209.69Z" fill="black"/>
<path d="M121.694 218.452H112.959V227.214H121.694V218.452Z" fill="black"/>
<path d="M130.429 218.452H121.694V227.214H130.429V218.452Z" fill="black"/>
<path d="M182.837 218.452H174.102V227.214H182.837V218.452Z" fill="black"/>
<path d="M200.306 218.452H191.572V227.214H200.306V218.452Z" fill="black"/>
<path d="M217.776 218.452H209.041V227.214H217.776V218.452Z" fill="black"/>
<path d="M252.714 218.452H243.98V227.214H252.714V218.452Z" fill="black"/>
<path d="M287.653 218.452H278.919V227.214H287.653V218.452Z" fill="black"/>
<path d="M43.0814 227.214H34.3467V235.975H43.0814V227.214Z" fill="black"/>
<path d="M51.8161 227.214H43.0814V235.975H51.8161V227.214Z" fill="black"/>
<path d="M60.5508 227.214H51.8161V235.975H60.5508V227.214Z" fill="black"/>
<path d="M69.2855 227.214H60.5508V235.975H69.2855V227.214Z" fill="black"/>
<path d="M78.0202 227.214H69.2855V235.975H78.0202V227.214Z" fill="black"/>
<path d="M86.755 227.214H78.0202V235.975H86.755V227.214Z" fill="black"/>
<path d="M95.4897 227.214H86.755V235.975H95.4897V227.214Z" fill="black"/>
<path d="M112.959 227.214H104.224V235.975H112.959V227.214Z" fill="black"/>
<path d="M121.694 227.214H112.959V235.975H121.694V227.214Z" fill="black"/>
<path d="M139.163 227.214H130.429V235.975H139.163V227.214Z" fill="black"/>
<path d="M156.633 227.214H147.898V235.975H156.633V227.214Z" fill="black"/>
<path d="M165.367 227.214H156.633V235.975H165.367V227.214Z" fill="black"/>
<path d="M200.306 227.214H191.572V235.975H200.306V227.214Z" fill="black"/>
<path d="M217.776 227.214H209.041V235.975H217.776V227.214Z" fill="black"/>
<path d="M235.245 227.214H226.51V235.975H235.245V227.214Z" fill="black"/>
<path d="M252.714 227.214H243.98V235.975H252.714V227.214Z" fill="black"/>
<path d="M278.919 227.214H270.184V235.975H278.919V227.214Z" fill="black"/>
<path d="M43.0814 235.975H34.3467V244.737H43.0814V235.975Z" fill="black"/>
<path d="M95.4897 235.975H86.755V244.737H95.4897V235.975Z" fill="black"/>
<path d="M121.694 235.975H112.959V244.737H121.694V235.975Z" fill="black"/>
<path d="M191.572 235.975H182.837V244.737H191.572V235.975Z" fill="black"/>
<path d="M200.306 235.975H191.572V244.737H200.306V235.975Z" fill="black"/>
<path d="M209.041 235.975H200.306V244.737H209.041V235.975Z" fill="black"/>
<path d="M217.776 235.975H209.041V244.737H217.776V235.975Z" fill="black"/>
<path d="M252.714 235.975H243.98V244.737H252.714V235.975Z" fill="black"/>
<path d="M261.449 235.975H252.714V244.737H261.449V235.975Z" fill="black"/>
<path d="M270.184 235.975H261.449V244.737H270.184V235.975Z" fill="black"/>
<path d="M43.0814 244.737H34.3467V253.499H43.0814V244.737Z" fill="black"/>
<path d="M60.5508 244.737H51.8161V253.499H60.5508V244.737Z" fill="black"/>
<path d="M69.2855 244.737H60.5508V253.499H69.2855V244.737Z" fill="black"/>
<path d="M78.0202 244.737H69.2855V253.499H78.0202V244.737Z" fill="black"/>
<path d="M95.4897 244.737H86.755V253.499H95.4897V244.737Z" fill="black"/>
<path d="M121.694 244.737H112.959V253.499H121.694V244.737Z" fill="black"/>
<path d="M139.163 244.737H130.429V253.499H139.163V244.737Z" fill="black"/>
<path d="M165.367 244.737H156.633V253.499H165.367V244.737Z" fill="black"/>
<path d="M174.102 244.737H165.367V253.499H174.102V244.737Z" fill="black"/>
<path d="M182.837 244.737H174.102V253.499H182.837V244.737Z" fill="black"/>
<path d="M200.306 244.737H191.572V253.499H200.306V244.737Z" fill="black"/>
<path d="M217.776 244.737H209.041V253.499H217.776V244.737Z" fill="black"/>
<path d="M226.51 244.737H217.776V253.499H226.51V244.737Z" fill="black"/>
<path d="M235.245 244.737H226.51V253.499H235.245V244.737Z" fill="black"/>
<path d="M243.98 244.737H235.245V253.499H243.98V244.737Z" fill="black"/>
<path d="M252.714 244.737H243.98V253.499H252.714V244.737Z" fill="black"/>
<path d="M261.449 244.737H252.714V253.499H261.449V244.737Z" fill="black"/>
<path d="M43.0814 253.499H34.3467V262.261H43.0814V253.499Z" fill="black"/>
<path d="M60.5508 253.499H51.8161V262.261H60.5508V253.499Z" fill="black"/>
<path d="M69.2855 253.499H60.5508V262.261H69.2855V253.499Z" fill="black"/>
<path d="M78.0202 253.499H69.2855V262.261H78.0202V253.499Z" fill="black"/>
<path d="M95.4897 253.499H86.755V262.261H95.4897V253.499Z" fill="black"/>
<path d="M112.959 253.499H104.224V262.261H112.959V253.499Z" fill="black"/>
<path d="M147.898 253.499H139.163V262.261H147.898V253.499Z" fill="black"/>
<path d="M182.837 253.499H174.102V262.261H182.837V253.499Z" fill="black"/>
<path d="M191.572 253.499H182.837V262.261H191.572V253.499Z" fill="black"/>
<path d="M217.776 253.499H209.041V262.261H217.776V253.499Z" fill="black"/>
<path d="M226.51 253.499H217.776V262.261H226.51V253.499Z" fill="black"/>
<path d="M235.245 253.499H226.51V262.261H235.245V253.499Z" fill="black"/>
<path d="M243.98 253.499H235.245V262.261H243.98V253.499Z" fill="black"/>
<path d="M261.449 253.499H252.714V262.261H261.449V253.499Z" fill="black"/>
<path d="M278.919 253.499H270.184V262.261H278.919V253.499Z" fill="black"/>
<path d="M43.0814 262.261H34.3467V271.023H43.0814V262.261Z" fill="black"/>
<path d="M60.5508 262.261H51.8161V271.023H60.5508V262.261Z" fill="black"/>
<path d="M69.2855 262.261H60.5508V271.023H69.2855V262.261Z" fill="black"/>
<path d="M78.0202 262.261H69.2855V271.023H78.0202V262.261Z" fill="black"/>
<path d="M95.4897 262.261H86.755V271.023H95.4897V262.261Z" fill="black"/>
<path d="M130.429 262.261H121.694V271.023H130.429V262.261Z" fill="black"/>
<path d="M147.898 262.261H139.163V271.023H147.898V262.261Z" fill="black"/>
<path d="M156.633 262.261H147.898V271.023H156.633V262.261Z" fill="black"/>
<path d="M165.367 262.261H156.633V271.023H165.367V262.261Z" fill="black"/>
<path d="M191.572 262.261H182.837V271.023H191.572V262.261Z" fill="black"/>
<path d="M200.306 262.261H191.572V271.023H200.306V262.261Z" fill="black"/>
<path d="M209.041 262.261H200.306V271.023H209.041V262.261Z" fill="black"/>
<path d="M217.776 262.261H209.041V271.023H217.776V262.261Z" fill="black"/>
<path d="M226.51 262.261H217.776V271.023H226.51V262.261Z" fill="black"/>
<path d="M252.714 262.261H243.98V271.023H252.714V262.261Z" fill="black"/>
<path d="M270.184 262.261H261.449V271.023H270.184V262.261Z" fill="black"/>
<path d="M43.0814 271.023H34.3467V279.785H43.0814V271.023Z" fill="black"/>
<path d="M95.4897 271.023H86.755V279.785H95.4897V271.023Z" fill="black"/>
<path d="M112.959 271.023H104.224V279.785H112.959V271.023Z" fill="black"/>
<path d="M130.429 271.023H121.694V279.785H130.429V271.023Z" fill="black"/>
<path d="M156.633 271.023H147.898V279.785H156.633V271.023Z" fill="black"/>
<path d="M165.367 271.023H156.633V279.785H165.367V271.023Z" fill="black"/>
<path d="M174.102 271.023H165.367V279.785H174.102V271.023Z" fill="black"/>
<path d="M182.837 271.023H174.102V279.785H182.837V271.023Z" fill="black"/>
<path d="M191.572 271.023H182.837V279.785H191.572V271.023Z" fill="black"/>
<path d="M226.51 271.023H217.776V279.785H226.51V271.023Z" fill="black"/>
<path d="M235.245 271.023H226.51V279.785H235.245V271.023Z" fill="black"/>
<path d="M252.714 271.023H243.98V279.785H252.714V271.023Z" fill="black"/>
<path d="M278.919 271.023H270.184V279.785H278.919V271.023Z" fill="black"/>
<path d="M287.653 271.023H278.919V279.785H287.653V271.023Z" fill="black"/>
<path d="M43.0814 279.785H34.3467V288.546H43.0814V279.785Z" fill="black"/>
<path d="M51.8161 279.785H43.0814V288.546H51.8161V279.785Z" fill="black"/>
<path d="M60.5508 279.785H51.8161V288.546H60.5508V279.785Z" fill="black"/>
<path d="M69.2855 279.785H60.5508V288.546H69.2855V279.785Z" fill="black"/>
<path d="M78.0202 279.785H69.2855V288.546H78.0202V279.785Z" fill="black"/>
<path d="M86.755 279.785H78.0202V288.546H86.755V279.785Z" fill="black"/>
<path d="M95.4897 279.785H86.755V288.546H95.4897V279.785Z" fill="black"/>
<path d="M112.959 279.785H104.224V288.546H112.959V279.785Z" fill="black"/>
<path d="M121.694 279.785H112.959V288.546H121.694V279.785Z" fill="black"/>
<path d="M139.163 279.785H130.429V288.546H139.163V279.785Z" fill="black"/>
<path d="M156.633 279.785H147.898V288.546H156.633V279.785Z" fill="black"/>
<path d="M165.367 279.785H156.633V288.546H165.367V279.785Z" fill="black"/>
<path d="M226.51 279.785H217.776V288.546H226.51V279.785Z" fill="black"/>
<path d="M261.449 279.785H252.714V288.546H261.449V279.785Z" fill="black"/>
<path d="M270.184 279.785H261.449V288.546H270.184V279.785Z" fill="black"/>
</svg>
